<?xml version="1.0" standalone="no"?>
<!DOCTYPE svg PUBLIC "-//W3C//DTD SVG 1.1//EN" "http://www.w3.org/Graphics/SVG/1.1/DTD/svg11.dtd" >
<svg>
<metadata>
Created by FontForge 20090622 at Mon Jul 17 07:02:45 2017
 By deploy user
Copyright (C) 2001, 2008 Hoefler &#38; Frere-Jones. http://www.typography.com
</metadata>
<defs>
<font id="GothamXNarrow-Medium" horiz-adv-x="300" >
  <font-face 
    font-family="Gotham XNarrow Medium"
    font-weight="350"
    font-stretch="condensed"
    units-per-em="1000"
    panose-1="0 0 0 0 0 0 0 0 0 0"
    ascent="800"
    descent="-200"
    x-height="532"
    cap-height="700"
    bbox="-168 -234 926 959"
    underline-thickness="50"
    underline-position="-50"
    unicode-range="U+0020-U+FB04"
  />
<missing-glyph horiz-adv-x="500" 
d="M0 800h500v-1000h-500v1000zM250 360l179 390h-358zM222 300l-172 376v-752zM278 300l172 -376v752zM71 -150h358l-179 390z" />
    <glyph glyph-name="f_f" unicode="ff" horiz-adv-x="551" 
d="M346 444h-47v86h47v43q0 74 37 110q34 34 100 34q20 0 34 -2t26 -5v-88q-9 2 -17.5 3.5t-18.5 1.5q-57 0 -57 -65v-32h92v-86h-91v-444h-105v444zM71 444h-49v86h49v43q0 73 35 110q37 34 102 34q18 0 32.5 -2t26.5 -5v-88q-9 2 -17.5 3.5t-18.5 1.5q-27 0 -42 -16
t-15 -49v-32h91v-86h-90v-444h-104v444z" />
    <glyph glyph-name="fi" unicode="fi" horiz-adv-x="492" 
d="M71 444h-49v86h49v43q0 73 35 110q37 34 102 34q18 0 32.5 -2t26.5 -5v-88q-9 2 -17.5 3.5t-18.5 1.5q-27 0 -42 -16t-15 -49v-32h92v-86h-91v-444h-104v444zM333 532h104v-532h-104v532zM330 712h109v-107h-109v107z" />
    <glyph glyph-name="fl" unicode="fl" horiz-adv-x="492" 
d="M71 444h-49v86h49v43q0 73 35 110q37 34 102 34q18 0 32.5 -2t26.5 -5v-88q-9 2 -17.5 3.5t-18.5 1.5q-27 0 -42 -16t-15 -49v-32h92v-86h-91v-444h-104v444zM333 714h104v-714h-104v714z" />
    <glyph glyph-name="f_f_i" unicode="ffi" horiz-adv-x="766" 
d="M346 444h-47v86h47v43q0 74 37 110q34 34 100 34q20 0 34 -2t26 -5v-88q-9 2 -17.5 3.5t-18.5 1.5q-57 0 -57 -65v-32h92v-86h-91v-444h-105v444zM71 444h-49v86h49v43q0 73 35 110q37 34 102 34q18 0 32.5 -2t26.5 -5v-88q-9 2 -17.5 3.5t-18.5 1.5q-27 0 -42 -16
t-15 -49v-32h91v-86h-90v-444h-104v444zM607 532h104v-532h-104v532zM604 712h109v-107h-109v107z" />
    <glyph glyph-name="f_f_l" unicode="ffl" horiz-adv-x="766" 
d="M346 444h-47v86h47v43q0 74 37 110q34 34 100 34q20 0 34 -2t26 -5v-88q-9 2 -17.5 3.5t-18.5 1.5q-57 0 -57 -65v-32h92v-86h-91v-444h-105v444zM71 444h-49v86h49v43q0 73 35 110q37 34 102 34q18 0 32.5 -2t26.5 -5v-88q-9 2 -17.5 3.5t-18.5 1.5q-27 0 -42 -16
t-15 -49v-32h91v-86h-90v-444h-104v444zM607 714h104v-714h-104v714z" />
    <glyph glyph-name=".notdef" horiz-adv-x="500" 
d="M0 800h500v-1000h-500v1000zM250 360l179 390h-358zM222 300l-172 376v-752zM278 300l172 -376v752zM71 -150h358l-179 390z" />
    <glyph glyph-name="NUL" horiz-adv-x="0" 
 />
    <glyph glyph-name="nonmarkingreturn" horiz-adv-x="189" 
 />
    <glyph glyph-name="space" unicode=" " horiz-adv-x="189" 
 />
    <glyph glyph-name="D" unicode="D" horiz-adv-x="547" 
d="M60 700h161q66 0 119.5 -23.5t91 -67.5t57.5 -107.5t20 -143.5v-15q0 -80 -20 -144t-57.5 -108t-91 -67.5t-119.5 -23.5h-161v700zM168 602v-504h51q80 0 129.5 61t49.5 185v11q0 62 -13 108.5t-36.5 77t-56.5 46t-73 15.5h-51z" />
    <glyph glyph-name="E" unicode="E" horiz-adv-x="453" 
d="M60 700h353v-100h-246v-198h219v-99h-219v-203h250v-100h-357v700z" />
    <glyph glyph-name="F" unicode="F" horiz-adv-x="435" 
d="M60 700h347v-100h-239v-204h211v-101h-211v-295h-108v700z" />
    <glyph glyph-name="G" unicode="G" horiz-adv-x="541" 
d="M311 -8q-59 0 -108.5 22.5t-85.5 67t-56.5 110t-20.5 151.5v14q0 81 20.5 146t57 110.5t87 70t110.5 24.5q49 0 90.5 -15t79.5 -47l-60 -89q-17 19 -44 34t-65 15q-36 0 -66 -17t-52.5 -49t-35 -78.5t-12.5 -104.5v-12q0 -65 13 -112.5t35.5 -79t53.5 -47t66 -15.5
q22 0 40.5 5.5t31.5 14.5v181h-111v95h212v-337q-37 -24 -81.5 -41t-98.5 -17z" />
    <glyph glyph-name="H" unicode="H" horiz-adv-x="544" 
d="M60 700h108v-297h208v297h108v-700h-108v302h-208v-302h-108v700z" />
    <glyph glyph-name="I" unicode="I" horiz-adv-x="236" 
d="M65 700h107v-700h-107v700z" />
    <glyph glyph-name="J" unicode="J" horiz-adv-x="379" 
d="M149 -8q-43 0 -80.5 19t-60.5 52l64 75q15 -20 32.5 -31.5t41.5 -11.5q32 0 52 23t20 74v508h107v-513q0 -99 -50 -147q-48 -48 -126 -48z" />
    <glyph glyph-name="K" unicode="K" horiz-adv-x="514" 
d="M60 700h108v-335l202 335h125l-190 -300l200 -400h-124l-152 298l-61 -97v-201h-108v700z" />
    <glyph glyph-name="L" unicode="L" horiz-adv-x="413" 
d="M60 700h108v-600h224v-100h-332v700z" />
    <glyph glyph-name="M" unicode="M" horiz-adv-x="623" 
d="M60 700h111l141 -311l141 311h111v-700h-105v487l-146 -317h-3l-146 316v-486h-104v700z" />
    <glyph glyph-name="N" unicode="N" horiz-adv-x="558" 
d="M60 700h101l233 -446v446h105v-700h-94l-240 462v-462h-105v700z" />
    <glyph glyph-name="O" unicode="O" horiz-adv-x="574" 
d="M287 -10q-55 0 -100.5 23.5t-78 68.5t-50.5 110t-18 148v20q0 82 18 147t50.5 110t78 69t100.5 24t100.5 -24t78 -69t50.5 -110t18 -147v-19q0 -83 -18 -148t-50.5 -110t-78 -69t-100.5 -24zM287 89q29 0 54 16t43.5 48t29 79.5t10.5 110.5v13q0 126 -39 190.5t-98 64.5
q-29 0 -54 -16t-43.5 -48t-29 -79.5t-10.5 -110.5v-13q0 -126 39 -190.5t98 -64.5z" />
    <glyph glyph-name="P" unicode="P" horiz-adv-x="484" 
d="M60 700h165q54 0 97.5 -15t74 -44.5t47.5 -73t17 -99.5v-2q0 -57 -17.5 -101t-49 -73.5t-74.5 -45.5t-94 -17h-58v-229h-108v700zM221 327q64 0 97.5 37t33.5 100v1q0 66 -33 101t-97 35h-54v-274h53z" />
    <glyph glyph-name="Q" unicode="Q" horiz-adv-x="577" 
d="M489 -19l-62 62q-29 -26 -64.5 -39.5t-74.5 -13.5q-56 0 -101.5 23.5t-78 68.5t-50.5 110t-18 148v20q0 82 18 147t50.5 110t78 69t100.5 24t100.5 -24t78 -69t50.5 -110t18 -147v-19q0 -70 -13.5 -127.5t-39.5 -102.5l70 -64zM292 88q18 0 35 5.5t31 17.5l-84 80l60 66
l70 -70q20 58 20 154v17q0 63 -10.5 110t-29 79t-43.5 48t-54 16q-59 0 -98 -63.5t-39 -188.5v-17q0 -131 40 -192.5t102 -61.5z" />
    <glyph glyph-name="Q.alt" horiz-adv-x="574" 
d="M361 2q-17 -5 -35.5 -8.5t-38.5 -3.5q-55 0 -100.5 23.5t-78 68.5t-50.5 110t-18 148v20q0 82 18 147t50.5 110t78 69t100.5 24t100.5 -24t78 -69t50.5 -110t18 -147v-19q0 -92 -22.5 -162t-61.5 -115l120 -154v-1h-133zM287 89q29 0 54 16t43.5 48t29 79.5t10.5 110.5
v13q0 126 -39 190.5t-98 64.5q-29 0 -54 -16t-43.5 -48t-29 -79.5t-10.5 -110.5v-13q0 -126 39 -190.5t98 -64.5z" />
    <glyph glyph-name="R" unicode="R" horiz-adv-x="513" 
d="M60 700h186q54 0 98 -15.5t74 -45.5q27 -27 42 -67t15 -91v-5q0 -78 -34 -126t-86 -71l136 -279h-121l-121 252q-5 -1 -13 -1h-68v-251h-108v700zM231 348q71 0 103.5 35t32.5 92q0 63 -34 94.5t-97 31.5h-68v-253h63z" />
    <glyph glyph-name="S" unicode="S" horiz-adv-x="446" 
d="M215 -8q-52 0 -104.5 20t-102.5 70l65 84q13 -13 28.5 -26t33 -23.5t37.5 -17.5t42 -7q44 0 69.5 26t25.5 64v1q0 14 -4 27.5t-16 27.5t-33 30t-54 36q-43 25 -74.5 48.5t-51.5 49t-30 53.5t-10 62v2q0 41 14.5 76t41.5 60t64 39t82 14q44 0 91.5 -17.5t89.5 -59.5
l-66 -83q-23 23 -53.5 41.5t-66.5 18.5q-39 0 -63.5 -22.5t-24.5 -56.5v-1q0 -16 4.5 -30t17.5 -29t37 -32.5t62 -40.5q41 -25 70 -48t47 -48t26.5 -52t8.5 -60v-2q0 -42 -15.5 -78t-43 -61.5t-64.5 -40t-80 -14.5z" />
    <glyph glyph-name="T" unicode="T" horiz-adv-x="437" 
d="M164 599h-140v101h389v-101h-141v-599h-108v599z" />
    <glyph glyph-name="U" unicode="U" horiz-adv-x="539" 
d="M269 -10q-48 0 -87.5 15.5t-68 46t-44 76t-15.5 106.5v466h108v-471q0 -70 29 -104.5t79 -34.5t79 34t29 104v472h107v-465q0 -61 -15.5 -107t-44 -76.5t-68.5 -46t-88 -15.5z" />
    <glyph glyph-name="V" unicode="V" horiz-adv-x="516" 
d="M17 700h114l129 -518l129 518h110l-189 -704h-104z" />
    <glyph glyph-name="W" unicode="W" horiz-adv-x="787" 
d="M20 700h113l102 -497l111 498h96l111 -498l102 497h111l-159 -704h-104l-110 485l-111 -485h-103z" />
    <glyph glyph-name="X" unicode="X" horiz-adv-x="508" 
d="M479 700l-163 -340l171 -360h-119l-115 264l-116 -264h-116l170 358l-162 342h119l106 -248l108 248h117z" />
    <glyph glyph-name="Y" unicode="Y" horiz-adv-x="498" 
d="M195 281l-187 419h117l125 -295l125 295h115l-187 -418v-282h-108v281z" />
    <glyph glyph-name="Z" unicode="Z" horiz-adv-x="471" 
d="M40 82l265 520h-256v98h384v-81l-266 -521h266v-98h-393v82z" />
    <glyph glyph-name="a" unicode="a" horiz-adv-x="428" 
d="M160 -9q-28 0 -52.5 11t-42.5 32t-28.5 50.5t-10.5 66.5v10q0 85 42.5 127.5t113.5 42.5q29 0 52 -6t46 -15v33q0 51 -26 75.5t-70 24.5q-32 0 -59 -11t-41 -21l-33 86q32 17 68.5 29t79.5 12q86 0 134 -48q49 -49 49 -143v-347h-103v64q-20 -35 -49 -54t-70 -19zM194 73
q18 0 33.5 7t27.5 19.5t18.5 29t6.5 36.5v73q-15 7 -34.5 11.5t-39.5 4.5q-38 0 -58.5 -24t-20.5 -66v-4q0 -42 18.5 -63.5t48.5 -23.5z" />
    <glyph glyph-name="a.alt" horiz-adv-x="478" 
d="M196 -10q-32 0 -61 15t-51.5 47t-35.5 81.5t-13 118.5v27q0 69 13 118.5t35 81.5t51.5 47t61.5 15q24 0 43.5 -7.5t34.5 -20t27 -28.5t22 -32v79h104v-532h-104v81q-9 -17 -21 -33.5t-27.5 -29.5t-35 -20.5t-43.5 -7.5zM229 86q40 0 67.5 45t27.5 126v18
q0 80 -27.5 125.5t-67.5 45.5q-39 0 -64 -44.5t-25 -127.5v-16q0 -83 25 -127.5t64 -44.5z" />
    <glyph glyph-name="b" unicode="b" horiz-adv-x="478" 
d="M282 -10q-24 0 -43.5 7.5t-35 20t-27.5 28t-21 32.5v-78h-104v714h104v-264q9 17 21 33.5t27.5 29t35 20.5t43.5 8q32 0 61 -15t51.5 -47t35.5 -81.5t13 -118.5v-26q0 -69 -13 -118.5t-35 -81.5t-51.5 -47.5t-61.5 -15.5zM249 86q39 0 64 44.5t25 127.5v16
q0 83 -25 127.5t-64 44.5q-40 0 -67.5 -45t-27.5 -126v-18q0 -81 27.5 -126t67.5 -45z" />
    <glyph glyph-name="c" unicode="c" horiz-adv-x="380" 
d="M230 -10q-44 0 -80 18t-62 51.5t-40.5 82.5t-14.5 112v20q0 63 15.5 112.5t42.5 84t64.5 52.5t81.5 18q37 0 66.5 -13t58.5 -36l-49 -86q-14 14 -31.5 26t-42.5 12q-44 0 -72.5 -46t-28.5 -130v-7q0 -85 28 -130t74 -44q24 0 41 11.5t32 28.5l49 -79q-23 -26 -56 -42
t-76 -16z" />
    <glyph glyph-name="d" unicode="d" horiz-adv-x="478" 
d="M196 -10q-32 0 -61 15t-51.5 47t-35.5 81.5t-13 118.5v27q0 69 13 118.5t35 81.5t51.5 47t61.5 15q24 0 43.5 -7.5t34.5 -20t27 -28.5t22 -32v261h104v-714h-104v81q-9 -17 -21 -33.5t-27.5 -29.5t-35 -20.5t-43.5 -7.5zM229 86q40 0 67.5 45t27.5 126v18
q0 80 -27.5 125.5t-67.5 45.5q-39 0 -64 -44.5t-25 -127.5v-16q0 -83 25 -127.5t64 -44.5z" />
    <glyph glyph-name="e" unicode="e" horiz-adv-x="434" 
d="M242 -10q-44 0 -82 18t-66.5 52t-45 83.5t-16.5 113.5v14q0 63 14.5 113t40 85t60.5 53.5t75 18.5q44 0 78 -19t57.5 -54.5t35.5 -86t12 -112.5v-17t-1 -30h-269q6 -69 38 -104.5t77 -35.5q29 0 53 14.5t44 34.5l47 -78q-34 -30 -70.5 -46.5t-81.5 -16.5zM305 299
q-2 69 -23.5 110.5t-59.5 41.5q-36 0 -60 -39t-28 -113h171z" />
    <glyph glyph-name="f" unicode="f" horiz-adv-x="275" 
d="M71 444h-49v86h49v43q0 73 35 110q37 34 102 34q18 0 32.5 -2t26.5 -5v-88q-9 2 -17.5 3.5t-18.5 1.5q-27 0 -42 -16t-15 -49v-32h92v-86h-91v-444h-104v444z" />
    <glyph glyph-name="g" unicode="g" horiz-adv-x="478" 
d="M214 -142q-45 0 -83.5 8.5t-78.5 26.5l29 86q24 -14 59 -23t66 -9q57 0 87 27t30 87v64q-10 -18 -22.5 -34t-28 -28.5t-35 -20t-43.5 -7.5q-32 0 -61 14.5t-51 45.5t-34.5 78t-12.5 112v5q0 65 13 112.5t34.5 78t50.5 45.5t61 15q24 0 43.5 -7.5t35 -19.5t28 -28
t22.5 -32v78h104v-471q0 -51 -12.5 -87.5t-38.5 -62.5q-28 -28 -68 -40.5t-94 -12.5zM229 129q39 0 67 41.5t28 116.5v2q0 75 -28 116.5t-67 41.5q-38 0 -63.5 -41t-25.5 -117v-2q0 -77 25.5 -117.5t63.5 -40.5z" />
    <glyph glyph-name="h" unicode="h" horiz-adv-x="457" 
d="M51 714h104v-255q19 33 47 57.5t75 24.5q63 0 98.5 -43.5t35.5 -121.5v-376h-104v348q0 50 -19 75t-54 25t-57 -26.5t-22 -74.5v-347h-104v714z" />
    <glyph glyph-name="i" unicode="i" horiz-adv-x="215" 
d="M53 712h108v-107h-108v107zM55 532h104v-532h-104v532z" />
    <glyph glyph-name="j" unicode="j" horiz-adv-x="217" 
d="M56 712h108v-107h-108v107zM31 -143q-15 0 -25 1.5t-21 3.5v83q5 -1 10 -1.5t10 -0.5q53 0 53 62v527h104v-538q0 -137 -131 -137z" />
    <glyph glyph-name="k" unicode="k" horiz-adv-x="426" 
d="M51 714h104v-414l138 232h118l-136 -216l139 -316h-117l-96 226l-46 -72v-154h-104v714z" />
    <glyph glyph-name="l" unicode="l" horiz-adv-x="215" 
d="M55 714h104v-714h-104v714z" />
    <glyph glyph-name="m" unicode="m" horiz-adv-x="703" 
d="M51 532h104v-73q20 35 48 58.5t72 23.5q40 0 69 -20t46 -56q21 30 51 53t77 23q59 0 97.5 -41.5t38.5 -123.5v-376h-104v347q0 101 -70 101q-33 0 -54 -26.5t-21 -75.5v-346h-105v347q0 51 -18 76t-51 25t-54.5 -27t-21.5 -75v-346h-104v532z" />
    <glyph glyph-name="n" unicode="n" horiz-adv-x="457" 
d="M51 532h104v-73q19 33 47 57.5t75 24.5q63 0 98.5 -43.5t35.5 -121.5v-376h-104v348q0 50 -19 75t-54 25t-57 -26.5t-22 -74.5v-347h-104v532z" />
    <glyph glyph-name="o" unicode="o" horiz-adv-x="468" 
d="M234 -10q-44 0 -81 18.5t-63.5 53t-41.5 84t-15 110.5v17q0 61 15 110.5t42 84.5t63.5 54t80.5 19q43 0 80 -19t64 -53.5t42 -84t15 -110.5v-17q0 -61 -15 -110.5t-42 -84t-64 -53.5t-80 -19zM234 82q45 0 71 48.5t26 129.5v10q0 81 -26.5 129.5t-70.5 48.5
q-45 0 -71 -48.5t-26 -129.5v-10q0 -81 26.5 -129.5t70.5 -48.5z" />
    <glyph glyph-name="p" unicode="p" horiz-adv-x="478" 
d="M51 532h104v-82q9 17 21 33.5t27.5 29t35 20.5t43.5 8q32 0 61 -15t51.5 -47t35.5 -81.5t13 -118.5v-26q0 -69 -13 -118.5t-35 -81.5t-51.5 -47.5t-61.5 -15.5q-24 0 -43.5 7.5t-35 20t-27.5 28t-21 32.5v-218h-104v672zM249 86q39 0 64 44.5t25 127.5v16q0 83 -25 127.5
t-64 44.5q-40 0 -67.5 -45t-27.5 -126v-18q0 -81 27.5 -126t67.5 -45z" />
    <glyph glyph-name="q" unicode="q" horiz-adv-x="478" 
d="M323 81q-9 -17 -21 -33.5t-27.5 -29.5t-35 -20.5t-43.5 -7.5q-32 0 -61 15t-51.5 47t-35.5 81.5t-13 118.5v27q0 69 13 118.5t35 81.5t51.5 47t61.5 15q24 0 43.5 -7.5t34.5 -20t27 -28.5t22 -32v79h104v-672h-104v221zM229 86q40 0 67.5 45t27.5 126v18
q0 80 -27.5 125.5t-67.5 45.5q-39 0 -64 -44.5t-25 -127.5v-16q0 -83 25 -127.5t64 -44.5z" />
    <glyph glyph-name="r" unicode="r" horiz-adv-x="301" 
d="M51 532h104v-86q17 42 47.5 68.5t79.5 23.5v-117h-3q-57 0 -90.5 -37t-33.5 -112v-272h-104v532z" />
    <glyph glyph-name="s" unicode="s" horiz-adv-x="359" 
d="M173 -9q-38 0 -81.5 15t-85.5 53l51 79q29 -26 58 -41.5t58 -15.5q32 0 48 17t16 41v1q0 25 -20 44t-68 46q-61 35 -91 70t-30 89v2q0 34 12 61t33 46.5t50.5 30t64.5 10.5q38 0 76 -14t71 -40l-48 -80q-20 18 -45.5 31t-54.5 13t-44.5 -15t-15.5 -36v-2
q0 -23 20.5 -41.5t67.5 -46.5q65 -39 93.5 -75t28.5 -87v-1q0 -36 -12.5 -64.5t-35 -48.5t-52.5 -30.5t-64 -10.5z" />
    <glyph glyph-name="t" unicode="t" horiz-adv-x="296" 
d="M190 -7q-26 0 -48 5.5t-38 19t-25.5 35.5t-9.5 56v335h-47v88h47v141h105v-141h93v-88h-93v-309q0 -26 12 -37.5t35 -11.5t45 11v-85q-15 -8 -34.5 -13.5t-41.5 -5.5z" />
    <glyph glyph-name="u" unicode="u" horiz-adv-x="457" 
d="M181 -10q-63 0 -98.5 44t-35.5 121v377h104v-348q0 -51 19 -75.5t54 -24.5t56.5 26t21.5 74v348h104v-532h-104v73q-19 -34 -47 -58.5t-74 -24.5z" />
    <glyph glyph-name="v" unicode="v" horiz-adv-x="436" 
d="M19 532h107l93 -383l94 383h105l-150 -535h-99z" />
    <glyph glyph-name="w" unicode="w" horiz-adv-x="639" 
d="M22 532h106l71 -353l77 353h88l77 -353l72 353h104l-122 -535h-98l-78 346l-78 -346h-98z" />
    <glyph glyph-name="x" unicode="x" horiz-adv-x="427" 
d="M213 353l81 179h107l-128 -258l134 -274h-111l-84 191l-84 -191h-109l133 273l-128 259h110z" />
    <glyph glyph-name="y" unicode="y" horiz-adv-x="436" 
d="M311 532h106l-146 -532q-23 -80 -54.5 -112t-83.5 -32q-19 0 -42 6t-44 18l23 83q11 -7 24 -11.5t26 -4.5q18 0 31 11t21 41l-153 533h107l95 -378z" />
    <glyph glyph-name="z" unicode="z" horiz-adv-x="380" 
d="M28 72l205 372h-197v88h317v-73l-205 -372h204v-87h-324v72z" />
    <glyph glyph-name="Aacute" unicode="&#xc1;" horiz-adv-x="543" 
d="M217 703h109l201 -703h-111l-44 161h-205l-43 -161h-107zM346 257l-76 281l-77 -281h153zM318 877l94 -44l-106 -86h-79z" />
    <glyph glyph-name="aacute" unicode="&#xe1;" horiz-adv-x="428" 
d="M160 -9q-28 0 -52.5 11t-42.5 32t-28.5 50.5t-10.5 66.5v10q0 85 42.5 127.5t113.5 42.5q29 0 52 -6t46 -15v33q0 51 -26 75.5t-70 24.5q-32 0 -59 -11t-41 -21l-33 86q32 17 68.5 29t79.5 12q86 0 134 -48q49 -49 49 -143v-347h-103v64q-20 -35 -49 -54t-70 -19zM194 73
q18 0 33.5 7t27.5 19.5t18.5 29t6.5 36.5v73q-15 7 -34.5 11.5t-39.5 4.5q-38 0 -58.5 -24t-20.5 -66v-4q0 -42 18.5 -63.5t48.5 -23.5zM258 731l89 -45l-104 -104h-73z" />
    <glyph glyph-name="aacute.alt" horiz-adv-x="478" 
d="M291 731l89 -45l-104 -104h-73zM196 -10q-32 0 -61 15t-51.5 47t-35.5 81.5t-13 118.5v27q0 69 13 118.5t35 81.5t51.5 47t61.5 15q24 0 43.5 -7.5t34.5 -20t27 -28.5t22 -32v79h104v-532h-104v81q-9 -17 -21 -33.5t-27.5 -29.5t-35 -20.5t-43.5 -7.5zM229 86
q40 0 67.5 45t27.5 126v18q0 80 -27.5 125.5t-67.5 45.5q-39 0 -64 -44.5t-25 -127.5v-16q0 -83 25 -127.5t64 -44.5z" />
    <glyph glyph-name="Abreve" unicode="&#x102;" horiz-adv-x="543" 
d="M217 703h109l201 -703h-111l-44 161h-205l-43 -161h-107zM346 257l-76 281l-77 -281h153zM271 745q-55 0 -92 28t-40 85h70q10 -43 62 -43t62 43h71q-5 -57 -41.5 -85t-91.5 -28z" />
    <glyph glyph-name="abreve" unicode="&#x103;" horiz-adv-x="428" 
d="M160 -9q-28 0 -52.5 11t-42.5 32t-28.5 50.5t-10.5 66.5v10q0 85 42.5 127.5t113.5 42.5q29 0 52 -6t46 -15v33q0 51 -26 75.5t-70 24.5q-32 0 -59 -11t-41 -21l-33 86q32 17 68.5 29t79.5 12q86 0 134 -48q49 -49 49 -143v-347h-103v64q-20 -35 -49 -54t-70 -19zM194 73
q18 0 33.5 7t27.5 19.5t18.5 29t6.5 36.5v73q-15 7 -34.5 11.5t-39.5 4.5q-38 0 -58.5 -24t-20.5 -66v-4q0 -42 18.5 -63.5t48.5 -23.5zM214 579q-54 0 -90.5 30.5t-41.5 92.5h69q5 -24 20 -38.5t43 -14.5t43 14.5t20 38.5h69q-5 -62 -41.5 -92.5t-90.5 -30.5z" />
    <glyph glyph-name="abreve.alt" horiz-adv-x="478" 
d="M196 -10q-32 0 -61 15t-51.5 47t-35.5 81.5t-13 118.5v27q0 69 13 118.5t35 81.5t51.5 47t61.5 15q24 0 43.5 -7.5t34.5 -20t27 -28.5t22 -32v79h104v-532h-104v81q-9 -17 -21 -33.5t-27.5 -29.5t-35 -20.5t-43.5 -7.5zM229 86q40 0 67.5 45t27.5 126v18
q0 80 -27.5 125.5t-67.5 45.5q-39 0 -64 -44.5t-25 -127.5v-16q0 -83 25 -127.5t64 -44.5zM246 579q-54 0 -90.5 30.5t-41.5 92.5h69q5 -24 20 -38.5t43 -14.5t43 14.5t20 38.5h69q-5 -62 -41.5 -92.5t-90.5 -30.5z" />
    <glyph glyph-name="Acircumflex" unicode="&#xc2;" horiz-adv-x="543" 
d="M217 703h109l201 -703h-111l-44 161h-205l-43 -161h-107zM346 257l-76 281l-77 -281h153zM225 867h92l91 -121h-82l-56 53l-56 -53h-80z" />
    <glyph glyph-name="acircumflex" unicode="&#xe2;" horiz-adv-x="428" 
d="M160 -9q-28 0 -52.5 11t-42.5 32t-28.5 50.5t-10.5 66.5v10q0 85 42.5 127.5t113.5 42.5q29 0 52 -6t46 -15v33q0 51 -26 75.5t-70 24.5q-32 0 -59 -11t-41 -21l-33 86q32 17 68.5 29t79.5 12q86 0 134 -48q49 -49 49 -143v-347h-103v64q-20 -35 -49 -54t-70 -19zM194 73
q18 0 33.5 7t27.5 19.5t18.5 29t6.5 36.5v73q-15 7 -34.5 11.5t-39.5 4.5q-38 0 -58.5 -24t-20.5 -66v-4q0 -42 18.5 -63.5t48.5 -23.5zM171 721h86l89 -138h-76l-57 66l-57 -66h-74z" />
    <glyph glyph-name="acircumflex.alt" horiz-adv-x="478" 
d="M203 721h86l89 -138h-76l-57 66l-57 -66h-74zM196 -10q-32 0 -61 15t-51.5 47t-35.5 81.5t-13 118.5v27q0 69 13 118.5t35 81.5t51.5 47t61.5 15q24 0 43.5 -7.5t34.5 -20t27 -28.5t22 -32v79h104v-532h-104v81q-9 -17 -21 -33.5t-27.5 -29.5t-35 -20.5t-43.5 -7.5z
M229 86q40 0 67.5 45t27.5 126v18q0 80 -27.5 125.5t-67.5 45.5q-39 0 -64 -44.5t-25 -127.5v-16q0 -83 25 -127.5t64 -44.5z" />
    <glyph glyph-name="Adieresis" unicode="&#xc4;" horiz-adv-x="543" 
d="M217 703h109l201 -703h-111l-44 161h-205l-43 -161h-107zM346 257l-76 281l-77 -281h153zM300 851h103v-101h-103v101zM139 851h103v-101h-103v101z" />
    <glyph glyph-name="adieresis" unicode="&#xe4;" horiz-adv-x="428" 
d="M160 -9q-28 0 -52.5 11t-42.5 32t-28.5 50.5t-10.5 66.5v10q0 85 42.5 127.5t113.5 42.5q29 0 52 -6t46 -15v33q0 51 -26 75.5t-70 24.5q-32 0 -59 -11t-41 -21l-33 86q32 17 68.5 29t79.5 12q86 0 134 -48q49 -49 49 -143v-347h-103v64q-20 -35 -49 -54t-70 -19zM194 73
q18 0 33.5 7t27.5 19.5t18.5 29t6.5 36.5v73q-15 7 -34.5 11.5t-39.5 4.5q-38 0 -58.5 -24t-20.5 -66v-4q0 -42 18.5 -63.5t48.5 -23.5zM240 688h100v-102h-100v102zM88 688h100v-102h-100v102z" />
    <glyph glyph-name="adieresis.alt" horiz-adv-x="478" 
d="M272 688h100v-102h-100v102zM120 688h100v-102h-100v102zM196 -10q-32 0 -61 15t-51.5 47t-35.5 81.5t-13 118.5v27q0 69 13 118.5t35 81.5t51.5 47t61.5 15q24 0 43.5 -7.5t34.5 -20t27 -28.5t22 -32v79h104v-532h-104v81q-9 -17 -21 -33.5t-27.5 -29.5t-35 -20.5
t-43.5 -7.5zM229 86q40 0 67.5 45t27.5 126v18q0 80 -27.5 125.5t-67.5 45.5q-39 0 -64 -44.5t-25 -127.5v-16q0 -83 25 -127.5t64 -44.5z" />
    <glyph glyph-name="AE" unicode="&#xc6;" horiz-adv-x="725" 
d="M267 700h418v-100h-238v-198h211v-99h-211v-203h242v-100h-349v161h-169l-59 -161h-107zM340 257v340h-14l-120 -340h134z" />
    <glyph glyph-name="ae" unicode="&#xe6;" horiz-adv-x="678" 
d="M170 -9q-64 0 -104 44.5t-40 121.5v4q0 85 42.5 127.5t112.5 42.5q29 0 52 -6t45 -15v33q0 50 -25 75t-69 25q-30 0 -56.5 -11t-43.5 -22l-33 89q32 17 68 28t78 11q53 0 87.5 -19.5t53.5 -54.5q23 36 55.5 56.5t73.5 20.5q43 0 76.5 -19.5t57 -55t36 -85.5t12.5 -112
v-16.5t-1 -30.5h-269q5 -69 36.5 -104.5t77.5 -35.5q30 0 54 13t44 36l46 -78q-35 -32 -71 -47.5t-81 -15.5q-53 0 -94.5 25.5t-67.5 75.5q-24 -42 -62.5 -71t-90.5 -29zM549 299q-2 69 -24 110.5t-60 41.5q-36 0 -59.5 -38.5t-27.5 -113.5h171zM198 73q29 0 54.5 22.5
t42.5 59.5q-5 20 -7.5 41t-4.5 41q-17 8 -35.5 12.5t-40.5 4.5q-38 0 -59 -24t-21 -66v-4q0 -40 19.5 -63.5t51.5 -23.5z" />
    <glyph glyph-name="AEacute" unicode="&#x1fc;" horiz-adv-x="725" 
d="M465 874l94 -44l-106 -86h-79zM267 700h418v-100h-238v-198h211v-99h-211v-203h242v-100h-349v161h-169l-59 -161h-107zM340 257v340h-14l-120 -340h134z" />
    <glyph glyph-name="aeacute" unicode="&#x1fd;" horiz-adv-x="678" 
d="M382 731l89 -45l-104 -104h-73zM170 -9q-64 0 -104 44.5t-40 121.5v4q0 85 42.5 127.5t112.5 42.5q29 0 52 -6t45 -15v33q0 50 -25 75t-69 25q-30 0 -56.5 -11t-43.5 -22l-33 89q32 17 68 28t78 11q53 0 87.5 -19.5t53.5 -54.5q23 36 55.5 56.5t73.5 20.5
q43 0 76.5 -19.5t57 -55t36 -85.5t12.5 -112v-16.5t-1 -30.5h-269q5 -69 36.5 -104.5t77.5 -35.5q30 0 54 13t44 36l46 -78q-35 -32 -71 -47.5t-81 -15.5q-53 0 -94.5 25.5t-67.5 75.5q-24 -42 -62.5 -71t-90.5 -29zM549 299q-2 69 -24 110.5t-60 41.5q-36 0 -59.5 -38.5
t-27.5 -113.5h171zM198 73q29 0 54.5 22.5t42.5 59.5q-5 20 -7.5 41t-4.5 41q-17 8 -35.5 12.5t-40.5 4.5q-38 0 -59 -24t-21 -66v-4q0 -40 19.5 -63.5t51.5 -23.5z" />
    <glyph glyph-name="Agrave" unicode="&#xc0;" horiz-adv-x="543" 
d="M217 703h109l201 -703h-111l-44 161h-205l-43 -161h-107zM346 257l-76 281l-77 -281h153zM237 747l-105 86l94 44l91 -130h-80z" />
    <glyph glyph-name="agrave" unicode="&#xe0;" horiz-adv-x="428" 
d="M160 -9q-28 0 -52.5 11t-42.5 32t-28.5 50.5t-10.5 66.5v10q0 85 42.5 127.5t113.5 42.5q29 0 52 -6t46 -15v33q0 51 -26 75.5t-70 24.5q-32 0 -59 -11t-41 -21l-33 86q32 17 68.5 29t79.5 12q86 0 134 -48q49 -49 49 -143v-347h-103v64q-20 -35 -49 -54t-70 -19zM194 73
q18 0 33.5 7t27.5 19.5t18.5 29t6.5 36.5v73q-15 7 -34.5 11.5t-39.5 4.5q-38 0 -58.5 -24t-20.5 -66v-4q0 -42 18.5 -63.5t48.5 -23.5zM78 686l90 45l87 -149h-73z" />
    <glyph glyph-name="agrave.alt" horiz-adv-x="478" 
d="M196 -10q-32 0 -61 15t-51.5 47t-35.5 81.5t-13 118.5v27q0 69 13 118.5t35 81.5t51.5 47t61.5 15q24 0 43.5 -7.5t34.5 -20t27 -28.5t22 -32v79h104v-532h-104v81q-9 -17 -21 -33.5t-27.5 -29.5t-35 -20.5t-43.5 -7.5zM229 86q40 0 67.5 45t27.5 126v18
q0 80 -27.5 125.5t-67.5 45.5q-39 0 -64 -44.5t-25 -127.5v-16q0 -83 25 -127.5t64 -44.5zM111 686l90 45l87 -149h-73z" />
    <glyph glyph-name="Amacron" unicode="&#x100;" horiz-adv-x="543" 
d="M217 703h109l201 -703h-111l-44 161h-205l-43 -161h-107zM346 257l-76 281l-77 -281h153zM133 831h276v-76h-276v76z" />
    <glyph glyph-name="amacron" unicode="&#x101;" horiz-adv-x="428" 
d="M160 -9q-28 0 -52.5 11t-42.5 32t-28.5 50.5t-10.5 66.5v10q0 85 42.5 127.5t113.5 42.5q29 0 52 -6t46 -15v33q0 51 -26 75.5t-70 24.5q-32 0 -59 -11t-41 -21l-33 86q32 17 68.5 29t79.5 12q86 0 134 -48q49 -49 49 -143v-347h-103v64q-20 -35 -49 -54t-70 -19zM194 73
q18 0 33.5 7t27.5 19.5t18.5 29t6.5 36.5v73q-15 7 -34.5 11.5t-39.5 4.5q-38 0 -58.5 -24t-20.5 -66v-4q0 -42 18.5 -63.5t48.5 -23.5zM85 663h258v-73h-258v73z" />
    <glyph glyph-name="amacron.alt" horiz-adv-x="478" 
d="M196 -10q-32 0 -61 15t-51.5 47t-35.5 81.5t-13 118.5v27q0 69 13 118.5t35 81.5t51.5 47t61.5 15q24 0 43.5 -7.5t34.5 -20t27 -28.5t22 -32v79h104v-532h-104v81q-9 -17 -21 -33.5t-27.5 -29.5t-35 -20.5t-43.5 -7.5zM229 86q40 0 67.5 45t27.5 126v18
q0 80 -27.5 125.5t-67.5 45.5q-39 0 -64 -44.5t-25 -127.5v-16q0 -83 25 -127.5t64 -44.5zM117 663h258v-73h-258v73z" />
    <glyph glyph-name="Aogonek" unicode="&#x104;" horiz-adv-x="543" 
d="M530 -147q-20 -3 -34 -3q-50 0 -75.5 19.5t-25.5 51.5q0 23 10 41.5t28 37.5h-17l-44 161h-205l-43 -161h-107l200 703h109l201 -703h-22q-27 -33 -27 -57q0 -34 52 -32v-58zM346 257l-76 281l-77 -281h153z" />
    <glyph glyph-name="aogonek" unicode="&#x105;" horiz-adv-x="428" 
d="M386 -147q-20 -3 -34 -3q-50 0 -75.5 19.5t-25.5 51.5q0 23 10 41.5t28 37.5h-10v64q-20 -35 -49 -54t-70 -19q-28 0 -52.5 11t-42.5 32t-28.5 50.5t-10.5 66.5v10q0 85 42.5 127.5t113.5 42.5q29 0 52 -6t46 -15v33q0 51 -26 75.5t-70 24.5q-32 0 -59 -11t-41 -21
l-33 86q32 17 68.5 29t79.5 12q86 0 134 -48q49 -49 49 -143v-347h-21q-27 -33 -27 -57q0 -34 52 -32v-58zM194 73q18 0 33.5 7t27.5 19.5t18.5 29t6.5 36.5v73q-15 7 -34.5 11.5t-39.5 4.5q-38 0 -58.5 -24t-20.5 -66v-4q0 -42 18.5 -63.5t48.5 -23.5z" />
    <glyph glyph-name="aogonek.alt" horiz-adv-x="478" 
d="M433 -147q-20 -3 -34 -3q-50 0 -75.5 19.5t-25.5 51.5q0 23 10 41.5t28 37.5h-13v81q-9 -17 -21 -33.5t-27.5 -29.5t-35 -20.5t-43.5 -7.5q-32 0 -61 15t-51.5 47t-35.5 81.5t-13 118.5v27q0 69 13 118.5t35 81.5t51.5 47t61.5 15q24 0 43.5 -7.5t34.5 -20t27 -28.5
t22 -32v79h104v-532h-19q-27 -33 -27 -57q0 -34 52 -32v-58zM229 86q40 0 67.5 45t27.5 126v18q0 80 -27.5 125.5t-67.5 45.5q-39 0 -64 -44.5t-25 -127.5v-16q0 -83 25 -127.5t64 -44.5z" />
    <glyph glyph-name="Aring" unicode="&#xc5;" horiz-adv-x="543" 
d="M206 669q-32 26 -32 67q0 40 29 65.5t69 25.5t68.5 -25.5t28.5 -65.5q0 -21 -9 -38t-24 -29l191 -669h-111l-44 161h-205l-43 -161h-107zM346 257l-76 281l-77 -281h153zM272 689q22 0 36 13.5t14 33.5t-14 34t-36 14t-36 -14t-14 -34t14 -33.5t36 -13.5z" />
    <glyph glyph-name="aring" unicode="&#xe5;" horiz-adv-x="428" 
d="M160 -9q-28 0 -52.5 11t-42.5 32t-28.5 50.5t-10.5 66.5v10q0 85 42.5 127.5t113.5 42.5q29 0 52 -6t46 -15v33q0 51 -26 75.5t-70 24.5q-32 0 -59 -11t-41 -21l-33 86q32 17 68.5 29t79.5 12q86 0 134 -48q49 -49 49 -143v-347h-103v64q-20 -35 -49 -54t-70 -19zM194 73
q18 0 33.5 7t27.5 19.5t18.5 29t6.5 36.5v73q-15 7 -34.5 11.5t-39.5 4.5q-38 0 -58.5 -24t-20.5 -66v-4q0 -42 18.5 -63.5t48.5 -23.5zM214 579q-40 0 -67.5 27t-27.5 68q0 40 27.5 67.5t67.5 27.5t67.5 -27t27.5 -68t-27.5 -68t-67.5 -27zM214 620q22 0 36 15.5t14 38.5
t-14 38.5t-36 15.5q-21 0 -35.5 -15.5t-14.5 -38.5t14.5 -38.5t35.5 -15.5z" />
    <glyph glyph-name="aring.alt" horiz-adv-x="478" 
d="M246 579q-40 0 -67.5 27t-27.5 68q0 40 27.5 67.5t67.5 27.5t67.5 -27t27.5 -68t-27.5 -68t-67.5 -27zM246 620q22 0 36 15.5t14 38.5t-14 38.5t-36 15.5q-21 0 -35.5 -15.5t-14.5 -38.5t14.5 -38.5t35.5 -15.5zM196 -10q-32 0 -61 15t-51.5 47t-35.5 81.5t-13 118.5v27
q0 69 13 118.5t35 81.5t51.5 47t61.5 15q24 0 43.5 -7.5t34.5 -20t27 -28.5t22 -32v79h104v-532h-104v81q-9 -17 -21 -33.5t-27.5 -29.5t-35 -20.5t-43.5 -7.5zM229 86q40 0 67.5 45t27.5 126v18q0 80 -27.5 125.5t-67.5 45.5q-39 0 -64 -44.5t-25 -127.5v-16
q0 -83 25 -127.5t64 -44.5z" />
    <glyph glyph-name="aring.alt2" horiz-adv-x="428" 
d="M160 -9q-28 0 -52.5 11t-42.5 32t-28.5 50.5t-10.5 66.5v10q0 85 42.5 127.5t113.5 42.5q29 0 52 -6t46 -15v33q0 51 -26 75.5t-70 24.5q-32 0 -59 -11t-41 -21l-33 86q20 11 42.5 20t46.5 14q-22 27 -22 62q0 40 27.5 67.5t67.5 27.5t67.5 -27t27.5 -68q0 -42 -29 -69
q32 -12 54 -34q49 -49 49 -143v-347h-103v64q-20 -35 -49 -54t-70 -19zM194 73q18 0 33.5 7t27.5 19.5t18.5 29t6.5 36.5v73q-15 7 -34.5 11.5t-39.5 4.5q-38 0 -58.5 -24t-20.5 -66v-4q0 -42 18.5 -63.5t48.5 -23.5zM213 539q22 0 36.5 15.5t14.5 38.5t-14.5 38.5
t-36.5 15.5q-21 0 -35.5 -15.5t-14.5 -38.5t14.5 -38.5t35.5 -15.5z" />
    <glyph glyph-name="Aringacute" unicode="&#x1fa;" horiz-adv-x="543" 
d="M206 669q-32 26 -32 67q0 40 29 65.5t69 25.5t68.5 -25.5t28.5 -65.5q0 -21 -9 -38t-24 -29l191 -669h-111l-44 161h-205l-43 -161h-107zM346 257l-76 281l-77 -281h153zM319 959l93 -44l-101 -67h-82zM272 689q22 0 36 13.5t14 33.5t-14 34t-36 14t-36 -14t-14 -34
t14 -33.5t36 -13.5z" />
    <glyph glyph-name="aringacute" unicode="&#x1fb;" horiz-adv-x="428" 
d="M258 914l88 -42l-97 -77h-77zM160 -9q-28 0 -52.5 11t-42.5 32t-28.5 50.5t-10.5 66.5v10q0 85 42.5 127.5t113.5 42.5q29 0 52 -6t46 -15v33q0 51 -26 75.5t-70 24.5q-32 0 -59 -11t-41 -21l-33 86q32 17 68.5 29t79.5 12q86 0 134 -48q49 -49 49 -143v-347h-103v64
q-20 -35 -49 -54t-70 -19zM194 73q18 0 33.5 7t27.5 19.5t18.5 29t6.5 36.5v73q-15 7 -34.5 11.5t-39.5 4.5q-38 0 -58.5 -24t-20.5 -66v-4q0 -42 18.5 -63.5t48.5 -23.5zM214 579q-40 0 -67.5 27t-27.5 68q0 40 27.5 67.5t67.5 27.5t67.5 -27t27.5 -68t-27.5 -68t-67.5 -27
zM214 620q22 0 36 15.5t14 38.5t-14 38.5t-36 15.5q-21 0 -35.5 -15.5t-14.5 -38.5t14.5 -38.5t35.5 -15.5z" />
    <glyph glyph-name="aringacute.alt" horiz-adv-x="478" 
d="M291 914l87 -42l-97 -77h-76zM246 579q-40 0 -67.5 27t-27.5 68q0 40 27.5 67.5t67.5 27.5t67.5 -27t27.5 -68t-27.5 -68t-67.5 -27zM246 620q22 0 36 15.5t14 38.5t-14 38.5t-36 15.5q-21 0 -35.5 -15.5t-14.5 -38.5t14.5 -38.5t35.5 -15.5zM196 -10q-32 0 -61 15
t-51.5 47t-35.5 81.5t-13 118.5v27q0 69 13 118.5t35 81.5t51.5 47t61.5 15q24 0 43.5 -7.5t34.5 -20t27 -28.5t22 -32v79h104v-532h-104v81q-9 -17 -21 -33.5t-27.5 -29.5t-35 -20.5t-43.5 -7.5zM229 86q40 0 67.5 45t27.5 126v18q0 80 -27.5 125.5t-67.5 45.5
q-39 0 -64 -44.5t-25 -127.5v-16q0 -83 25 -127.5t64 -44.5z" />
    <glyph glyph-name="aringacute.alt2" horiz-adv-x="428" 
d="M258 832l88 -41l-97 -78h-77zM160 -9q-28 0 -52.5 11t-42.5 32t-28.5 50.5t-10.5 66.5v10q0 85 42.5 127.5t113.5 42.5q29 0 52 -6t46 -15v33q0 51 -26 75.5t-70 24.5q-32 0 -59 -11t-41 -21l-33 86q20 11 42.5 20t46.5 14q-22 27 -22 62q0 40 27.5 67.5t67.5 27.5
t67.5 -27t27.5 -68q0 -42 -29 -69q32 -12 54 -34q49 -49 49 -143v-347h-103v64q-20 -35 -49 -54t-70 -19zM194 73q18 0 33.5 7t27.5 19.5t18.5 29t6.5 36.5v73q-15 7 -34.5 11.5t-39.5 4.5q-38 0 -58.5 -24t-20.5 -66v-4q0 -42 18.5 -63.5t48.5 -23.5zM213 539
q22 0 36.5 15.5t14.5 38.5t-14.5 38.5t-36.5 15.5q-21 0 -35.5 -15.5t-14.5 -38.5t14.5 -38.5t35.5 -15.5z" />
    <glyph glyph-name="Atilde" unicode="&#xc3;" horiz-adv-x="543" 
d="M217 703h109l201 -703h-111l-44 161h-205l-43 -161h-107zM346 257l-76 281l-77 -281h153zM340 747q-19 0 -36.5 6.5t-34.5 14.5q-14 7 -26 11.5t-21 4.5q-14 0 -21.5 -9.5t-15.5 -31.5l-61 17q12 53 31.5 79t52.5 26q19 0 37 -6.5t35 -14.5q14 -7 25.5 -11.5t20.5 -4.5
q14 0 21.5 9.5t15.5 31.5l61 -16q-12 -54 -31.5 -80t-52.5 -26z" />
    <glyph glyph-name="atilde" unicode="&#xe3;" horiz-adv-x="428" 
d="M160 -9q-28 0 -52.5 11t-42.5 32t-28.5 50.5t-10.5 66.5v10q0 85 42.5 127.5t113.5 42.5q29 0 52 -6t46 -15v33q0 51 -26 75.5t-70 24.5q-32 0 -59 -11t-41 -21l-33 86q32 17 68.5 29t79.5 12q86 0 134 -48q49 -49 49 -143v-347h-103v64q-20 -35 -49 -54t-70 -19zM194 73
q18 0 33.5 7t27.5 19.5t18.5 29t6.5 36.5v73q-15 7 -34.5 11.5t-39.5 4.5q-38 0 -58.5 -24t-20.5 -66v-4q0 -42 18.5 -63.5t48.5 -23.5zM281 582q-18 0 -34.5 7t-33.5 15q-14 8 -25.5 13t-20.5 5q-14 0 -21.5 -10.5t-15.5 -34.5l-59 16q13 56 31 81.5t51 25.5q18 0 34.5 -7
t33.5 -15q14 -8 25.5 -13t20.5 -5q14 0 21.5 10.5t15.5 33.5l59 -16q-12 -55 -30.5 -80.5t-51.5 -25.5z" />
    <glyph glyph-name="atilde.alt" horiz-adv-x="478" 
d="M196 -10q-32 0 -61 15t-51.5 47t-35.5 81.5t-13 118.5v27q0 69 13 118.5t35 81.5t51.5 47t61.5 15q24 0 43.5 -7.5t34.5 -20t27 -28.5t22 -32v79h104v-532h-104v81q-9 -17 -21 -33.5t-27.5 -29.5t-35 -20.5t-43.5 -7.5zM229 86q40 0 67.5 45t27.5 126v18
q0 80 -27.5 125.5t-67.5 45.5q-39 0 -64 -44.5t-25 -127.5v-16q0 -83 25 -127.5t64 -44.5zM313 582q-18 0 -34.5 7t-33.5 15q-14 8 -25.5 13t-20.5 5q-14 0 -21.5 -10.5t-15.5 -34.5l-59 16q13 56 31 81.5t51 25.5q18 0 34.5 -7t33.5 -15q14 -8 25.5 -13t20.5 -5
q14 0 21.5 10.5t15.5 33.5l59 -16q-12 -55 -30.5 -80.5t-51.5 -25.5z" />
    <glyph glyph-name="Cacute" unicode="&#x106;" horiz-adv-x="481" 
d="M291 -8q-56 0 -102.5 23t-79.5 67t-51 109.5t-18 151.5v14q0 85 20 150.5t54.5 110t81.5 67.5t102 23q52 0 90.5 -17.5t68.5 -46.5l-61 -86q-21 20 -45.5 33.5t-53.5 13.5q-31 0 -57.5 -16.5t-46.5 -48.5t-31.5 -79t-11.5 -108v-5q0 -64 12 -111.5t32 -79t46 -47
t55 -15.5q32 0 57 14t49 38l58 -83q-36 -35 -77.5 -53.5t-90.5 -18.5zM324 877l94 -44l-106 -86h-79z" />
    <glyph glyph-name="cacute" unicode="&#x107;" horiz-adv-x="380" 
d="M267 731l89 -45l-104 -104h-73zM230 -10q-44 0 -80 18t-62 51.5t-40.5 82.5t-14.5 112v20q0 63 15.5 112.5t42.5 84t64.5 52.5t81.5 18q37 0 66.5 -13t58.5 -36l-49 -86q-14 14 -31.5 26t-42.5 12q-44 0 -72.5 -46t-28.5 -130v-7q0 -85 28 -130t74 -44q24 0 41 11.5
t32 28.5l49 -79q-23 -26 -56 -42t-76 -16z" />
    <glyph glyph-name="Ccaron" unicode="&#x10c;" horiz-adv-x="481" 
d="M291 -8q-56 0 -102.5 23t-79.5 67t-51 109.5t-18 151.5v14q0 85 20 150.5t54.5 110t81.5 67.5t102 23q52 0 90.5 -17.5t68.5 -46.5l-61 -86q-21 20 -45.5 33.5t-53.5 13.5q-31 0 -57.5 -16.5t-46.5 -48.5t-31.5 -79t-11.5 -108v-5q0 -64 12 -111.5t32 -79t46 -47
t55 -15.5q32 0 57 14t49 38l58 -83q-36 -35 -77.5 -53.5t-90.5 -18.5zM323 748h-92l-91 121h82l56 -53l56 53h80z" />
    <glyph glyph-name="ccaron" unicode="&#x10d;" horiz-adv-x="380" 
d="M266 583h-86l-89 138h76l57 -66l57 66h74zM230 -10q-44 0 -80 18t-62 51.5t-40.5 82.5t-14.5 112v20q0 63 15.5 112.5t42.5 84t64.5 52.5t81.5 18q37 0 66.5 -13t58.5 -36l-49 -86q-14 14 -31.5 26t-42.5 12q-44 0 -72.5 -46t-28.5 -130v-7q0 -85 28 -130t74 -44
q24 0 41 11.5t32 28.5l49 -79q-23 -26 -56 -42t-76 -16z" />
    <glyph glyph-name="Ccedilla" unicode="&#xc7;" horiz-adv-x="481" 
d="M167 -100l65 99q-88 22 -140 108.5t-52 235.5v14q0 85 20 150.5t54.5 110t81.5 67.5t102 23q52 0 90.5 -17.5t68.5 -46.5l-61 -86q-21 20 -45.5 33.5t-53.5 13.5q-31 0 -57.5 -16.5t-46.5 -48.5t-31.5 -79t-11.5 -108v-5q0 -64 12 -111.5t32 -79t46 -47t55 -15.5
q32 0 57 14t49 38l58 -83q-33 -32 -70.5 -50t-81.5 -21l-48 -129z" />
    <glyph glyph-name="ccedilla" unicode="&#xe7;" horiz-adv-x="380" 
d="M110 -100l64 98q-65 20 -103 85.5t-38 170.5v20q0 63 15.5 112.5t42.5 84t64.5 52.5t81.5 18q37 0 66.5 -13t58.5 -36l-49 -86q-14 14 -31.5 26t-42.5 12q-44 0 -72.5 -46t-28.5 -130v-7q0 -85 28 -130t74 -44q24 0 41 11.5t32 28.5l49 -79q-21 -23 -49 -38t-64 -19
l-47 -127z" />
    <glyph glyph-name="Cdotaccent" unicode="&#x10a;" horiz-adv-x="481" 
d="M225 851h104v-101h-104v101zM291 -8q-56 0 -102.5 23t-79.5 67t-51 109.5t-18 151.5v14q0 85 20 150.5t54.5 110t81.5 67.5t102 23q52 0 90.5 -17.5t68.5 -46.5l-61 -86q-21 20 -45.5 33.5t-53.5 13.5q-31 0 -57.5 -16.5t-46.5 -48.5t-31.5 -79t-11.5 -108v-5
q0 -64 12 -111.5t32 -79t46 -47t55 -15.5q32 0 57 14t49 38l58 -83q-36 -35 -77.5 -53.5t-90.5 -18.5z" />
    <glyph glyph-name="cdotaccent" unicode="&#x10b;" horiz-adv-x="380" 
d="M230 -10q-44 0 -80 18t-62 51.5t-40.5 82.5t-14.5 112v20q0 63 15.5 112.5t42.5 84t64.5 52.5t81.5 18q37 0 66.5 -13t58.5 -36l-49 -86q-14 14 -31.5 26t-42.5 12q-44 0 -72.5 -46t-28.5 -130v-7q0 -85 28 -130t74 -44q24 0 41 11.5t32 28.5l49 -79q-23 -26 -56 -42
t-76 -16zM172 689h102v-103h-102v103z" />
    <glyph glyph-name="Dcaron" unicode="&#x10e;" horiz-adv-x="547" 
d="M60 700h161q66 0 119.5 -23.5t91 -67.5t57.5 -107.5t20 -143.5v-15q0 -80 -20 -144t-57.5 -108t-91 -67.5t-119.5 -23.5h-161v700zM168 602v-504h51q80 0 129.5 61t49.5 185v11q0 62 -13 108.5t-36.5 77t-56.5 46t-73 15.5h-51zM309 745h-92l-91 121h82l56 -53l56 53h80z
" />
    <glyph glyph-name="dcaron" unicode="&#x10f;" horiz-adv-x="478" 
d="M472 733h76v-3l-42 -161h-44zM196 -10q-32 0 -61 15t-51.5 47t-35.5 81.5t-13 118.5v27q0 69 13 118.5t35 81.5t51.5 47t61.5 15q24 0 43.5 -7.5t34.5 -20t27 -28.5t22 -32v261h104v-714h-104v81q-9 -17 -21 -33.5t-27.5 -29.5t-35 -20.5t-43.5 -7.5zM229 86
q40 0 67.5 45t27.5 126v18q0 80 -27.5 125.5t-67.5 45.5q-39 0 -64 -44.5t-25 -127.5v-16q0 -83 25 -127.5t64 -44.5z" />
    <glyph glyph-name="Dcroat" unicode="&#x110;" horiz-adv-x="563" 
d="M75 304h-54v96h54v300h162q65 0 118 -23.5t90.5 -67.5t58 -107.5t20.5 -143.5v-15q0 -80 -20.5 -144t-58 -108t-90.5 -67.5t-118 -23.5h-162v304zM183 304v-206h53q40 0 72.5 15t55.5 46t36 77t13 108v11q0 125 -49 186t-129 61h-52v-202h104v-96h-104z" />
    <glyph glyph-name="dcroat" unicode="&#x111;" horiz-adv-x="478" 
d="M210 663h113v51h104v-51h48v-73h-48v-590h-104v81q-9 -17 -21 -33.5t-27.5 -29.5t-34.5 -20.5t-43 -7.5q-32 0 -61.5 15.5t-52 47.5t-35.5 81.5t-13 117.5v27q0 68 13 117.5t35.5 81.5t52 47.5t61.5 15.5q24 0 43 -7.5t34 -20t27 -28.5t22 -32v138h-113v72zM230 86
q39 0 66.5 45t27.5 126v18q0 80 -27.5 125.5t-66.5 45.5q-40 0 -65 -45.5t-25 -126.5v-16q0 -82 25.5 -127t64.5 -45z" />
    <glyph glyph-name="Eacute" unicode="&#xc9;" horiz-adv-x="453" 
d="M284 874l94 -44l-106 -86h-79zM60 700h353v-100h-246v-198h219v-99h-219v-203h250v-100h-357v700z" />
    <glyph glyph-name="eacute" unicode="&#xe9;" horiz-adv-x="434" 
d="M266 731l89 -45l-104 -104h-73zM242 -10q-44 0 -82 18t-66.5 52t-45 83.5t-16.5 113.5v14q0 63 14.5 113t40 85t60.5 53.5t75 18.5q44 0 78 -19t57.5 -54.5t35.5 -86t12 -112.5v-17t-1 -30h-269q6 -69 38 -104.5t77 -35.5q29 0 53 14.5t44 34.5l47 -78
q-34 -30 -70.5 -46.5t-81.5 -16.5zM305 299q-2 69 -23.5 110.5t-59.5 41.5q-36 0 -60 -39t-28 -113h171z" />
    <glyph glyph-name="Ebreve" unicode="&#x114;" horiz-adv-x="453" 
d="M239 742q-55 0 -92 28t-40 85h70q10 -43 62 -43t62 43h71q-5 -57 -41.5 -85t-91.5 -28zM60 700h353v-100h-246v-198h219v-99h-219v-203h250v-100h-357v700z" />
    <glyph glyph-name="ebreve" unicode="&#x115;" horiz-adv-x="434" 
d="M242 -10q-44 0 -82 18t-66.5 52t-45 83.5t-16.5 113.5v14q0 63 14.5 113t40 85t60.5 53.5t75 18.5q44 0 78 -19t57.5 -54.5t35.5 -86t12 -112.5v-17t-1 -30h-269q6 -69 38 -104.5t77 -35.5q29 0 53 14.5t44 34.5l47 -78q-34 -30 -70.5 -46.5t-81.5 -16.5zM305 299
q-2 69 -23.5 110.5t-59.5 41.5q-36 0 -60 -39t-28 -113h171zM222 579q-54 0 -90.5 30.5t-41.5 92.5h69q5 -24 20 -38.5t43 -14.5t43 14.5t20 38.5h69q-5 -62 -41.5 -92.5t-90.5 -30.5z" />
    <glyph glyph-name="Ecaron" unicode="&#x11a;" horiz-adv-x="453" 
d="M285 745h-92l-91 121h82l56 -53l56 53h80zM60 700h353v-100h-246v-198h219v-99h-219v-203h250v-100h-357v700z" />
    <glyph glyph-name="ecaron" unicode="&#x11b;" horiz-adv-x="434" 
d="M265 583h-86l-89 138h76l57 -66l57 66h74zM242 -10q-44 0 -82 18t-66.5 52t-45 83.5t-16.5 113.5v14q0 63 14.5 113t40 85t60.5 53.5t75 18.5q44 0 78 -19t57.5 -54.5t35.5 -86t12 -112.5v-17t-1 -30h-269q6 -69 38 -104.5t77 -35.5q29 0 53 14.5t44 34.5l47 -78
q-34 -30 -70.5 -46.5t-81.5 -16.5zM305 299q-2 69 -23.5 110.5t-59.5 41.5q-36 0 -60 -39t-28 -113h171z" />
    <glyph glyph-name="Ecircumflex" unicode="&#xca;" horiz-adv-x="453" 
d="M60 700h353v-100h-246v-198h219v-99h-219v-203h250v-100h-357v700zM193 866h92l91 -121h-82l-56 53l-56 -53h-80z" />
    <glyph glyph-name="ecircumflex" unicode="&#xea;" horiz-adv-x="434" 
d="M179 720h86l89 -138h-76l-57 66l-57 -66h-74zM242 -10q-44 0 -82 18t-66.5 52t-45 83.5t-16.5 113.5v14q0 63 14.5 113t40 85t60.5 53.5t75 18.5q44 0 78 -19t57.5 -54.5t35.5 -86t12 -112.5v-17t-1 -30h-269q6 -69 38 -104.5t77 -35.5q29 0 53 14.5t44 34.5l47 -78
q-34 -30 -70.5 -46.5t-81.5 -16.5zM305 299q-2 69 -23.5 110.5t-59.5 41.5q-36 0 -60 -39t-28 -113h171z" />
    <glyph glyph-name="Edieresis" unicode="&#xcb;" horiz-adv-x="453" 
d="M268 848h103v-101h-103v101zM107 848h103v-101h-103v101zM60 700h353v-100h-246v-198h219v-99h-219v-203h250v-100h-357v700z" />
    <glyph glyph-name="edieresis" unicode="&#xeb;" horiz-adv-x="434" 
d="M248 688h100v-102h-100v102zM96 688h100v-102h-100v102zM242 -10q-44 0 -82 18t-66.5 52t-45 83.5t-16.5 113.5v14q0 63 14.5 113t40 85t60.5 53.5t75 18.5q44 0 78 -19t57.5 -54.5t35.5 -86t12 -112.5v-17t-1 -30h-269q6 -69 38 -104.5t77 -35.5q29 0 53 14.5t44 34.5
l47 -78q-34 -30 -70.5 -46.5t-81.5 -16.5zM305 299q-2 69 -23.5 110.5t-59.5 41.5q-36 0 -60 -39t-28 -113h171z" />
    <glyph glyph-name="Edotaccent" unicode="&#x116;" horiz-adv-x="453" 
d="M187 848h104v-101h-104v101zM60 700h353v-100h-246v-198h219v-99h-219v-203h250v-100h-357v700z" />
    <glyph glyph-name="edotaccent" unicode="&#x117;" horiz-adv-x="434" 
d="M242 -10q-44 0 -82 18t-66.5 52t-45 83.5t-16.5 113.5v14q0 63 14.5 113t40 85t60.5 53.5t75 18.5q44 0 78 -19t57.5 -54.5t35.5 -86t12 -112.5v-17t-1 -30h-269q6 -69 38 -104.5t77 -35.5q29 0 53 14.5t44 34.5l47 -78q-34 -30 -70.5 -46.5t-81.5 -16.5zM305 299
q-2 69 -23.5 110.5t-59.5 41.5q-36 0 -60 -39t-28 -113h171zM171 689h102v-103h-102v103z" />
    <glyph glyph-name="Egrave" unicode="&#xc8;" horiz-adv-x="453" 
d="M204 744l-105 86l94 44l91 -130h-80zM60 700h353v-100h-246v-198h219v-99h-219v-203h250v-100h-357v700z" />
    <glyph glyph-name="egrave" unicode="&#xe8;" horiz-adv-x="434" 
d="M242 -10q-44 0 -82 18t-66.5 52t-45 83.5t-16.5 113.5v14q0 63 14.5 113t40 85t60.5 53.5t75 18.5q44 0 78 -19t57.5 -54.5t35.5 -86t12 -112.5v-17t-1 -30h-269q6 -69 38 -104.5t77 -35.5q29 0 53 14.5t44 34.5l47 -78q-34 -30 -70.5 -46.5t-81.5 -16.5zM305 299
q-2 69 -23.5 110.5t-59.5 41.5q-36 0 -60 -39t-28 -113h171zM86 686l90 45l87 -149h-73z" />
    <glyph glyph-name="Emacron" unicode="&#x112;" horiz-adv-x="453" 
d="M101 828h276v-76h-276v76zM60 700h353v-100h-246v-198h219v-99h-219v-203h250v-100h-357v700z" />
    <glyph glyph-name="emacron" unicode="&#x113;" horiz-adv-x="434" 
d="M242 -10q-44 0 -82 18t-66.5 52t-45 83.5t-16.5 113.5v14q0 63 14.5 113t40 85t60.5 53.5t75 18.5q44 0 78 -19t57.5 -54.5t35.5 -86t12 -112.5v-17t-1 -30h-269q6 -69 38 -104.5t77 -35.5q29 0 53 14.5t44 34.5l47 -78q-34 -30 -70.5 -46.5t-81.5 -16.5zM305 299
q-2 69 -23.5 110.5t-59.5 41.5q-36 0 -60 -39t-28 -113h171zM93 663h258v-73h-258v73z" />
    <glyph glyph-name="Eogonek" unicode="&#x118;" horiz-adv-x="453" 
d="M60 700h353v-100h-246v-198h219v-99h-219v-203h250v-100h-26q-27 -33 -27 -57q0 -34 52 -32v-58q-20 -3 -34 -3q-50 0 -75.5 19.5t-25.5 51.5q0 23 10 41.5t28 37.5h-259v700z" />
    <glyph glyph-name="eogonek" unicode="&#x119;" horiz-adv-x="434" 
d="M394 53l-29 -27q-17 -17 -32.5 -40t-15.5 -42q0 -35 51 -33v-58q-20 -3 -33 -3q-51 0 -76 19t-25 51q0 20 8.5 36.5t24.5 35.5q-5 -2 -12 -2h-13q-44 0 -82 18t-66.5 52t-45 83.5t-16.5 113.5v14q0 63 14.5 113t40 85t60.5 53.5t75 18.5q44 0 78 -19t57.5 -54.5t35.5 -86
t12 -112.5v-8t-0.5 -15t-0.5 -15.5v-8.5h-269q6 -69 38 -104.5t77 -35.5q29 0 53 14.5t44 34.5zM305 299q-2 69 -23.5 110.5t-59.5 41.5q-36 0 -60 -39t-28 -113h171z" />
    <glyph glyph-name="Eth" unicode="&#xd0;" horiz-adv-x="563" 
d="M75 304h-54v96h54v300h162q65 0 118 -23.5t90.5 -67.5t58 -107.5t20.5 -143.5v-15q0 -80 -20.5 -144t-58 -108t-90.5 -67.5t-118 -23.5h-162v304zM183 304v-206h53q40 0 72.5 15t55.5 46t36 77t13 108v11q0 125 -49 186t-129 61h-52v-202h104v-96h-104z" />
    <glyph glyph-name="eth" unicode="&#xf0;" horiz-adv-x="467" 
d="M320 630q51 -72 82 -155.5t31 -180.5v-16q0 -69 -15 -123t-41.5 -90.5t-64 -55.5t-82.5 -19q-42 0 -78 19t-62.5 54t-41.5 84.5t-15 110.5v19q0 59 14 106.5t37.5 80.5t53.5 50.5t63 17.5q29 0 50.5 -10.5t42.5 -30.5q-25 54 -64 105l-86 -32l-25 62l67 25
q-14 16 -29.5 31.5l-31.5 31.5h126q7 -7 13 -14l13 -15l81 31l25 -62zM233 82q45 0 70.5 48.5t25.5 129.5v10q0 83 -27 130.5t-71 47.5q-43 0 -68.5 -48.5t-25.5 -129.5v-10q0 -80 26 -129t70 -49z" />
    <glyph glyph-name="Gbreve" unicode="&#x11e;" horiz-adv-x="541" 
d="M296 745q-55 0 -92 28t-40 85h70q10 -43 62 -43t62 43h71q-5 -57 -41.5 -85t-91.5 -28zM311 -8q-59 0 -108.5 22.5t-85.5 67t-56.5 110t-20.5 151.5v14q0 81 20.5 146t57 110.5t87 70t110.5 24.5q49 0 90.5 -15t79.5 -47l-60 -89q-17 19 -44 34t-65 15q-36 0 -66 -17
t-52.5 -49t-35 -78.5t-12.5 -104.5v-12q0 -65 13 -112.5t35.5 -79t53.5 -47t66 -15.5q22 0 40.5 5.5t31.5 14.5v181h-111v95h212v-337q-37 -24 -81.5 -41t-98.5 -17z" />
    <glyph glyph-name="gbreve" unicode="&#x11f;" horiz-adv-x="478" 
d="M214 -142q-45 0 -83.5 8.5t-78.5 26.5l29 86q24 -14 59 -23t66 -9q57 0 87 27t30 87v64q-10 -18 -22.5 -34t-28 -28.5t-35 -20t-43.5 -7.5q-32 0 -61 14.5t-51 45.5t-34.5 78t-12.5 112v5q0 65 13 112.5t34.5 78t50.5 45.5t61 15q24 0 43.5 -7.5t35 -19.5t28 -28
t22.5 -32v78h104v-471q0 -51 -12.5 -87.5t-38.5 -62.5q-28 -28 -68 -40.5t-94 -12.5zM229 129q39 0 67 41.5t28 116.5v2q0 75 -28 116.5t-67 41.5q-38 0 -63.5 -41t-25.5 -117v-2q0 -77 25.5 -117.5t63.5 -40.5zM246 579q-54 0 -90.5 30.5t-41.5 92.5h69q5 -24 20 -38.5
t43 -14.5t43 14.5t20 38.5h69q-5 -62 -41.5 -92.5t-90.5 -30.5z" />
    <glyph glyph-name="Gcommaaccent" unicode="&#x122;" horiz-adv-x="541" 
d="M236 -198q31 5 43.5 18t10.5 39h-45v88h100v-78q0 -51 -25.5 -74.5t-76.5 -28.5zM311 -8q-59 0 -108.5 22.5t-85.5 67t-56.5 110t-20.5 151.5v14q0 81 20.5 146t57 110.5t87 70t110.5 24.5q49 0 90.5 -15t79.5 -47l-60 -89q-17 19 -44 34t-65 15q-36 0 -66 -17t-52.5 -49
t-35 -78.5t-12.5 -104.5v-12q0 -65 13 -112.5t35.5 -79t53.5 -47t66 -15.5q22 0 40.5 5.5t31.5 14.5v181h-111v95h212v-337q-37 -24 -81.5 -41t-98.5 -17z" />
    <glyph glyph-name="gcommaaccent" unicode="&#x123;" horiz-adv-x="478" 
d="M302 733q-31 -5 -43.5 -18t-10.5 -39h45v-88h-100v78q0 51 25.5 74.5t76.5 28.5zM214 -142q-45 0 -83.5 8.5t-78.5 26.5l29 86q24 -14 59 -23t66 -9q57 0 87 27t30 87v64q-10 -18 -22.5 -34t-28 -28.5t-35 -20t-43.5 -7.5q-32 0 -61 14.5t-51 45.5t-34.5 78t-12.5 112v5
q0 65 13 112.5t34.5 78t50.5 45.5t61 15q24 0 43.5 -7.5t35 -19.5t28 -28t22.5 -32v78h104v-471q0 -51 -12.5 -87.5t-38.5 -62.5q-28 -28 -68 -40.5t-94 -12.5zM229 129q39 0 67 41.5t28 116.5v2q0 75 -28 116.5t-67 41.5q-38 0 -63.5 -41t-25.5 -117v-2q0 -77 25.5 -117.5
t63.5 -40.5z" />
    <glyph glyph-name="Gdotaccent" unicode="&#x120;" horiz-adv-x="541" 
d="M244 851h104v-101h-104v101zM311 -8q-59 0 -108.5 22.5t-85.5 67t-56.5 110t-20.5 151.5v14q0 81 20.5 146t57 110.5t87 70t110.5 24.5q49 0 90.5 -15t79.5 -47l-60 -89q-17 19 -44 34t-65 15q-36 0 -66 -17t-52.5 -49t-35 -78.5t-12.5 -104.5v-12q0 -65 13 -112.5
t35.5 -79t53.5 -47t66 -15.5q22 0 40.5 5.5t31.5 14.5v181h-111v95h212v-337q-37 -24 -81.5 -41t-98.5 -17z" />
    <glyph glyph-name="gdotaccent" unicode="&#x121;" horiz-adv-x="478" 
d="M214 -142q-45 0 -83.5 8.5t-78.5 26.5l29 86q24 -14 59 -23t66 -9q57 0 87 27t30 87v64q-10 -18 -22.5 -34t-28 -28.5t-35 -20t-43.5 -7.5q-32 0 -61 14.5t-51 45.5t-34.5 78t-12.5 112v5q0 65 13 112.5t34.5 78t50.5 45.5t61 15q24 0 43.5 -7.5t35 -19.5t28 -28
t22.5 -32v78h104v-471q0 -51 -12.5 -87.5t-38.5 -62.5q-28 -28 -68 -40.5t-94 -12.5zM229 129q39 0 67 41.5t28 116.5v2q0 75 -28 116.5t-67 41.5q-38 0 -63.5 -41t-25.5 -117v-2q0 -77 25.5 -117.5t63.5 -40.5zM195 689h102v-103h-102v103z" />
    <glyph glyph-name="Hbar" unicode="&#x126;" horiz-adv-x="559" 
d="M15 608h52v92h108v-94h210v94h107v-92h53v-86h-53v-522h-107v301h-210v-301h-108v522h-52v86zM385 402v122h-210v-122h210z" />
    <glyph glyph-name="hbar" unicode="&#x127;" horiz-adv-x="457" 
d="M155 591v-132q19 33 47 57.5t74 24.5q64 0 99.5 -45t35.5 -121v-375h-104v350q0 48 -19 73t-54 25t-57 -26.5t-22 -74.5v-347h-104v590h-48v73h48v51h104v-51h113v-72h-113z" />
    <glyph glyph-name="Iacute" unicode="&#xcd;" horiz-adv-x="236" 
d="M65 700h107v-700h-107v700zM166 874l94 -44l-106 -86h-79z" />
    <glyph glyph-name="iacute" unicode="&#xed;" horiz-adv-x="215" 
d="M154 731l89 -45l-104 -104h-73zM55 532h104v-532h-104v532z" />
    <glyph glyph-name="Ibreve" unicode="&#x12c;" horiz-adv-x="236" 
d="M65 700h107v-700h-107v700zM119 742q-55 0 -92 28t-40 85h70q10 -43 62 -43t62 43h71q-5 -57 -41.5 -85t-91.5 -28z" />
    <glyph glyph-name="ibreve" unicode="&#x12d;" horiz-adv-x="215" 
d="M55 532h104v-532h-104v532zM108 579q-54 0 -90.5 30.5t-41.5 92.5h69q5 -24 20 -38.5t43 -14.5t43 14.5t20 38.5h69q-5 -62 -41.5 -92.5t-90.5 -30.5z" />
    <glyph glyph-name="Icircumflex" unicode="&#xce;" horiz-adv-x="236" 
d="M65 700h107v-700h-107v700zM73 866h92l91 -121h-82l-56 53l-56 -53h-80z" />
    <glyph glyph-name="icircumflex" unicode="&#xee;" horiz-adv-x="215" 
d="M65 721h86l89 -138h-76l-57 66l-57 -66h-74zM55 532h104v-532h-104v532z" />
    <glyph glyph-name="Idieresis" unicode="&#xcf;" horiz-adv-x="236" 
d="M65 700h107v-700h-107v700zM148 848h103v-101h-103v101zM-13 848h103v-101h-103v101z" />
    <glyph glyph-name="idieresis" unicode="&#xef;" horiz-adv-x="215" 
d="M134 688h100v-102h-100v102zM-18 688h100v-102h-100v102zM55 532h104v-532h-104v532z" />
    <glyph glyph-name="Idotaccent" unicode="&#x130;" horiz-adv-x="236" 
d="M65 700h107v-700h-107v700zM67 848h104v-101h-104v101z" />
    <glyph glyph-name="dotlessi" unicode="&#x131;" horiz-adv-x="215" 
d="M55 532h104v-532h-104v532z" />
    <glyph glyph-name="Igrave" unicode="&#xcc;" horiz-adv-x="236" 
d="M65 700h107v-700h-107v700zM83 744l-105 86l94 44l91 -130h-80z" />
    <glyph glyph-name="igrave" unicode="&#xec;" horiz-adv-x="215" 
d="M55 532h104v-532h-104v532zM-28 686l90 45l87 -149h-73z" />
    <glyph glyph-name="Imacron" unicode="&#x12a;" horiz-adv-x="236" 
d="M65 700h107v-700h-107v700zM-19 828h276v-76h-276v76z" />
    <glyph glyph-name="imacron" unicode="&#x12b;" horiz-adv-x="215" 
d="M55 532h104v-532h-104v532zM-21 663h258v-73h-258v73z" />
    <glyph glyph-name="Iogonek" unicode="&#x12e;" horiz-adv-x="236" 
d="M65 700h107v-700h-16q-27 -33 -27 -57q0 -34 52 -32v-58q-20 -3 -34 -3q-50 0 -75.5 19.5t-25.5 51.5q0 23 10 41.5t28 37.5h-19v700z" />
    <glyph glyph-name="iogonek" unicode="&#x12f;" horiz-adv-x="215" 
d="M55 532h104v-532h-14q-27 -33 -27 -57q0 -34 52 -32v-58q-20 -3 -34 -3q-50 0 -75.5 19.5t-25.5 51.5q0 23 10 41.5t28 37.5h-18v532zM53 712h108v-107h-108v107z" />
    <glyph glyph-name="Kcommaaccent" unicode="&#x136;" horiz-adv-x="514" 
d="M200 -195q31 5 43.5 18t10.5 39h-45v88h100v-78q0 -51 -25.5 -74.5t-76.5 -28.5zM60 700h108v-335l202 335h125l-190 -300l200 -400h-124l-152 298l-61 -97v-201h-108v700z" />
    <glyph glyph-name="kcommaaccent" unicode="&#x137;" horiz-adv-x="426" 
d="M162 -197q31 5 43.5 18t10.5 39h-45v88h100v-78q0 -51 -25.5 -74.5t-76.5 -28.5zM51 714h104v-414l138 232h118l-136 -216l139 -316h-117l-96 226l-46 -72v-154h-104v714z" />
    <glyph glyph-name="Lacute" unicode="&#x139;" horiz-adv-x="413" 
d="M177 874l94 -44l-106 -86h-79zM60 700h108v-600h224v-100h-332v700z" />
    <glyph glyph-name="lacute" unicode="&#x13a;" horiz-adv-x="215" 
d="M161 879l94 -44l-106 -86h-79zM55 714h104v-714h-104v714z" />
    <glyph glyph-name="Lcaron" unicode="&#x13d;" horiz-adv-x="413" 
d="M223 701h76v-3l-42 -161h-44zM60 700h108v-600h224v-100h-332v700z" />
    <glyph glyph-name="lcaron" unicode="&#x13e;" horiz-adv-x="215" 
d="M206 733h76v-3l-42 -161h-44zM55 714h104v-714h-104v714z" />
    <glyph glyph-name="Lcommaaccent" unicode="&#x13b;" horiz-adv-x="413" 
d="M166 -197q31 5 43.5 18t10.5 39h-45v88h100v-78q0 -51 -25.5 -74.5t-76.5 -28.5zM60 700h108v-600h224v-100h-332v700z" />
    <glyph glyph-name="lcommaaccent" unicode="&#x13c;" horiz-adv-x="215" 
d="M49 -197q31 5 43.5 18t10.5 39h-45v88h100v-78q0 -51 -25.5 -74.5t-76.5 -28.5zM55 714h104v-714h-104v714z" />
    <glyph glyph-name="Ldot" unicode="&#x13f;" horiz-adv-x="413" 
d="M275 419h98v-104h-98v104zM60 700h108v-600h224v-100h-332v700z" />
    <glyph glyph-name="ldot" unicode="&#x140;" horiz-adv-x="292" 
d="M210 415h86v-103h-86v103zM55 714h104v-714h-104v714z" />
    <glyph glyph-name="Lslash" unicode="&#x141;" horiz-adv-x="437" 
d="M182 322v-222h225v-100h-332v265l-54 -28v104l54 28v331h107v-275l107 58v-105z" />
    <glyph glyph-name="lslash" unicode="&#x142;" horiz-adv-x="253" 
d="M178 344v-344h-103v284l-59 -34v102l59 34v328h103v-269l59 34v-101z" />
    <glyph glyph-name="Nacute" unicode="&#x143;" horiz-adv-x="558" 
d="M326 873l94 -44l-106 -86h-79zM60 700h101l233 -446v446h105v-700h-94l-240 462v-462h-105v700z" />
    <glyph glyph-name="nacute" unicode="&#x144;" horiz-adv-x="457" 
d="M275 731l89 -45l-104 -104h-73zM51 532h104v-73q19 33 47 57.5t75 24.5q63 0 98.5 -43.5t35.5 -121.5v-376h-104v348q0 50 -19 75t-54 25t-57 -26.5t-22 -74.5v-347h-104v532z" />
    <glyph glyph-name="Ncaron" unicode="&#x147;" horiz-adv-x="558" 
d="M324 744h-92l-91 121h82l56 -53l56 53h80zM60 700h101l233 -446v446h105v-700h-94l-240 462v-462h-105v700z" />
    <glyph glyph-name="ncaron" unicode="&#x148;" horiz-adv-x="457" 
d="M274 583h-86l-89 138h76l57 -66l57 66h74zM51 532h104v-73q19 33 47 57.5t75 24.5q63 0 98.5 -43.5t35.5 -121.5v-376h-104v348q0 50 -19 75t-54 25t-57 -26.5t-22 -74.5v-347h-104v532z" />
    <glyph glyph-name="Ncommaaccent" unicode="&#x145;" horiz-adv-x="558" 
d="M219 -195q31 5 43.5 18t10.5 39h-45v88h100v-78q0 -51 -25.5 -74.5t-76.5 -28.5zM60 700h101l233 -446v446h105v-700h-94l-240 462v-462h-105v700z" />
    <glyph glyph-name="ncommaaccent" unicode="&#x146;" horiz-adv-x="457" 
d="M172 -197q31 5 43.5 18t10.5 39h-45v88h100v-78q0 -51 -25.5 -74.5t-76.5 -28.5zM51 532h104v-73q19 33 47 57.5t75 24.5q63 0 98.5 -43.5t35.5 -121.5v-376h-104v348q0 50 -19 75t-54 25t-57 -26.5t-22 -74.5v-347h-104v532z" />
    <glyph glyph-name="Ntilde" unicode="&#xd1;" horiz-adv-x="558" 
d="M347 743q-19 0 -36.5 6.5t-34.5 14.5q-14 7 -26 11.5t-21 4.5q-14 0 -21.5 -9.5t-15.5 -31.5l-61 17q12 53 31.5 79t52.5 26q19 0 37 -6.5t35 -14.5q14 -7 25.5 -11.5t20.5 -4.5q14 0 21.5 9.5t15.5 31.5l61 -16q-12 -54 -31.5 -80t-52.5 -26zM60 700h101l233 -446v446
h105v-700h-94l-240 462v-462h-105v700z" />
    <glyph glyph-name="ntilde" unicode="&#xf1;" horiz-adv-x="457" 
d="M51 532h104v-73q19 33 47 57.5t75 24.5q63 0 98.5 -43.5t35.5 -121.5v-376h-104v348q0 50 -19 75t-54 25t-57 -26.5t-22 -74.5v-347h-104v532zM299 582q-18 0 -34.5 7t-33.5 15q-14 8 -25.5 13t-20.5 5q-14 0 -21.5 -10.5t-15.5 -34.5l-59 16q13 56 31 81.5t51 25.5
q18 0 34.5 -7t33.5 -15q14 -8 25.5 -13t20.5 -5q14 0 21.5 10.5t15.5 33.5l59 -16q-12 -55 -30.5 -80.5t-51.5 -25.5z" />
    <glyph glyph-name="Oacute" unicode="&#xd3;" horiz-adv-x="574" 
d="M333 877l94 -44l-106 -86h-79zM287 -10q-55 0 -100.5 23.5t-78 68.5t-50.5 110t-18 148v20q0 82 18 147t50.5 110t78 69t100.5 24t100.5 -24t78 -69t50.5 -110t18 -147v-19q0 -83 -18 -148t-50.5 -110t-78 -69t-100.5 -24zM287 89q29 0 54 16t43.5 48t29 79.5t10.5 110.5
v13q0 126 -39 190.5t-98 64.5q-29 0 -54 -16t-43.5 -48t-29 -79.5t-10.5 -110.5v-13q0 -126 39 -190.5t98 -64.5z" />
    <glyph glyph-name="oacute" unicode="&#xf3;" horiz-adv-x="468" 
d="M279 731l89 -45l-104 -104h-73zM234 -10q-44 0 -81 18.5t-63.5 53t-41.5 84t-15 110.5v17q0 61 15 110.5t42 84.5t63.5 54t80.5 19q43 0 80 -19t64 -53.5t42 -84t15 -110.5v-17q0 -61 -15 -110.5t-42 -84t-64 -53.5t-80 -19zM234 82q45 0 71 48.5t26 129.5v10
q0 81 -26.5 129.5t-70.5 48.5q-45 0 -71 -48.5t-26 -129.5v-10q0 -81 26.5 -129.5t70.5 -48.5z" />
    <glyph glyph-name="Obreve" unicode="&#x14e;" horiz-adv-x="574" 
d="M286 745q-55 0 -92 28t-40 85h70q10 -43 62 -43t62 43h71q-5 -57 -41.5 -85t-91.5 -28zM287 -10q-55 0 -100.5 23.5t-78 68.5t-50.5 110t-18 148v20q0 82 18 147t50.5 110t78 69t100.5 24t100.5 -24t78 -69t50.5 -110t18 -147v-19q0 -83 -18 -148t-50.5 -110t-78 -69
t-100.5 -24zM287 89q29 0 54 16t43.5 48t29 79.5t10.5 110.5v13q0 126 -39 190.5t-98 64.5q-29 0 -54 -16t-43.5 -48t-29 -79.5t-10.5 -110.5v-13q0 -126 39 -190.5t98 -64.5z" />
    <glyph glyph-name="obreve" unicode="&#x14f;" horiz-adv-x="468" 
d="M234 -10q-44 0 -81 18.5t-63.5 53t-41.5 84t-15 110.5v17q0 61 15 110.5t42 84.5t63.5 54t80.5 19q43 0 80 -19t64 -53.5t42 -84t15 -110.5v-17q0 -61 -15 -110.5t-42 -84t-64 -53.5t-80 -19zM234 82q45 0 71 48.5t26 129.5v10q0 81 -26.5 129.5t-70.5 48.5
q-45 0 -71 -48.5t-26 -129.5v-10q0 -81 26.5 -129.5t70.5 -48.5zM235 579q-54 0 -90.5 30.5t-41.5 92.5h69q5 -24 20 -38.5t43 -14.5t43 14.5t20 38.5h69q-5 -62 -41.5 -92.5t-90.5 -30.5z" />
    <glyph glyph-name="Ocircumflex" unicode="&#xd4;" horiz-adv-x="574" 
d="M287 -10q-55 0 -100.5 23.5t-78 68.5t-50.5 110t-18 148v20q0 82 18 147t50.5 110t78 69t100.5 24t100.5 -24t78 -69t50.5 -110t18 -147v-19q0 -83 -18 -148t-50.5 -110t-78 -69t-100.5 -24zM287 89q29 0 54 16t43.5 48t29 79.5t10.5 110.5v13q0 126 -39 190.5t-98 64.5
q-29 0 -54 -16t-43.5 -48t-29 -79.5t-10.5 -110.5v-13q0 -126 39 -190.5t98 -64.5zM240 869h92l91 -121h-82l-56 53l-56 -53h-80z" />
    <glyph glyph-name="ocircumflex" unicode="&#xf4;" horiz-adv-x="468" 
d="M192 720h86l89 -138h-76l-57 66l-57 -66h-74zM234 -10q-44 0 -81 18.5t-63.5 53t-41.5 84t-15 110.5v17q0 61 15 110.5t42 84.5t63.5 54t80.5 19q43 0 80 -19t64 -53.5t42 -84t15 -110.5v-17q0 -61 -15 -110.5t-42 -84t-64 -53.5t-80 -19zM234 82q45 0 71 48.5t26 129.5
v10q0 81 -26.5 129.5t-70.5 48.5q-45 0 -71 -48.5t-26 -129.5v-10q0 -81 26.5 -129.5t70.5 -48.5z" />
    <glyph glyph-name="Odieresis" unicode="&#xd6;" horiz-adv-x="574" 
d="M315 851h103v-101h-103v101zM154 851h103v-101h-103v101zM287 -10q-55 0 -100.5 23.5t-78 68.5t-50.5 110t-18 148v20q0 82 18 147t50.5 110t78 69t100.5 24t100.5 -24t78 -69t50.5 -110t18 -147v-19q0 -83 -18 -148t-50.5 -110t-78 -69t-100.5 -24zM287 89q29 0 54 16
t43.5 48t29 79.5t10.5 110.5v13q0 126 -39 190.5t-98 64.5q-29 0 -54 -16t-43.5 -48t-29 -79.5t-10.5 -110.5v-13q0 -126 39 -190.5t98 -64.5z" />
    <glyph glyph-name="odieresis" unicode="&#xf6;" horiz-adv-x="468" 
d="M261 688h100v-102h-100v102zM109 688h100v-102h-100v102zM234 -10q-44 0 -81 18.5t-63.5 53t-41.5 84t-15 110.5v17q0 61 15 110.5t42 84.5t63.5 54t80.5 19q43 0 80 -19t64 -53.5t42 -84t15 -110.5v-17q0 -61 -15 -110.5t-42 -84t-64 -53.5t-80 -19zM234 82
q45 0 71 48.5t26 129.5v10q0 81 -26.5 129.5t-70.5 48.5q-45 0 -71 -48.5t-26 -129.5v-10q0 -81 26.5 -129.5t70.5 -48.5z" />
    <glyph glyph-name="OE" unicode="&#x152;" horiz-adv-x="754" 
d="M326 0q-65 0 -118 23.5t-90.5 67.5t-57.5 107.5t-20 143.5v15q0 80 20 143.5t57.5 108t90.5 68t118 23.5h388v-100h-238v-198h211v-99h-211v-203h242v-100h-392zM368 98v504h-40q-80 0 -129 -61t-49 -185v-11q0 -125 49 -186t128 -61h41z" />
    <glyph glyph-name="oe" unicode="&#x153;" horiz-adv-x="736" 
d="M232 -10q-42 0 -78.5 18.5t-63 53t-42 83.5t-15.5 111v17q0 61 15.5 111t42.5 84.5t63.5 53.5t78.5 19q48 0 86 -25.5t62 -70.5q23 47 60 71.5t82 24.5q43 0 77 -19.5t57.5 -55t36 -85.5t12.5 -112v-16.5t-1 -30.5h-269q6 -69 37.5 -104.5t77.5 -35.5q29 0 53 13t44 36
l47 -78q-35 -32 -71 -47.5t-81 -15.5q-52 0 -94 25t-68 73q-24 -47 -62.5 -72.5t-86.5 -25.5zM606 299q-2 69 -24 110.5t-60 41.5q-36 0 -59.5 -38.5t-27.5 -113.5h171zM233 82q45 0 70.5 48.5t25.5 129.5v10q0 81 -26 129.5t-70 48.5q-45 0 -70.5 -48.5t-25.5 -129.5v-10
q0 -81 26.5 -129.5t69.5 -48.5z" />
    <glyph glyph-name="Ograve" unicode="&#xd2;" horiz-adv-x="574" 
d="M252 747l-105 86l94 44l91 -130h-80zM287 -10q-55 0 -100.5 23.5t-78 68.5t-50.5 110t-18 148v20q0 82 18 147t50.5 110t78 69t100.5 24t100.5 -24t78 -69t50.5 -110t18 -147v-19q0 -83 -18 -148t-50.5 -110t-78 -69t-100.5 -24zM287 89q29 0 54 16t43.5 48t29 79.5
t10.5 110.5v13q0 126 -39 190.5t-98 64.5q-29 0 -54 -16t-43.5 -48t-29 -79.5t-10.5 -110.5v-13q0 -126 39 -190.5t98 -64.5z" />
    <glyph glyph-name="ograve" unicode="&#xf2;" horiz-adv-x="468" 
d="M234 -10q-44 0 -81 18.5t-63.5 53t-41.5 84t-15 110.5v17q0 61 15 110.5t42 84.5t63.5 54t80.5 19q43 0 80 -19t64 -53.5t42 -84t15 -110.5v-17q0 -61 -15 -110.5t-42 -84t-64 -53.5t-80 -19zM234 82q45 0 71 48.5t26 129.5v10q0 81 -26.5 129.5t-70.5 48.5
q-45 0 -71 -48.5t-26 -129.5v-10q0 -81 26.5 -129.5t70.5 -48.5zM99 686l90 45l87 -149h-73z" />
    <glyph glyph-name="Ohungarumlaut" unicode="&#x150;" horiz-adv-x="574" 
d="M287 -10q-55 0 -100.5 23.5t-78 68.5t-50.5 110t-18 148v20q0 82 18 147t50.5 110t78 69t100.5 24t100.5 -24t78 -69t50.5 -110t18 -147v-19q0 -83 -18 -148t-50.5 -110t-78 -69t-100.5 -24zM287 89q29 0 54 16t43.5 48t29 79.5t10.5 110.5v13q0 126 -39 190.5t-98 64.5
q-29 0 -54 -16t-43.5 -48t-29 -79.5t-10.5 -110.5v-13q0 -126 39 -190.5t98 -64.5zM265 877l87 -44l-103 -86h-75zM398 877l87 -44l-103 -86h-76z" />
    <glyph glyph-name="ohungarumlaut" unicode="&#x151;" horiz-adv-x="468" 
d="M340 731l84 -44l-101 -105h-70zM212 731l84 -44l-101 -105h-70zM234 -10q-44 0 -81 18.5t-63.5 53t-41.5 84t-15 110.5v17q0 61 15 110.5t42 84.5t63.5 54t80.5 19q43 0 80 -19t64 -53.5t42 -84t15 -110.5v-17q0 -61 -15 -110.5t-42 -84t-64 -53.5t-80 -19zM234 82
q45 0 71 48.5t26 129.5v10q0 81 -26.5 129.5t-70.5 48.5q-45 0 -71 -48.5t-26 -129.5v-10q0 -81 26.5 -129.5t70.5 -48.5z" />
    <glyph glyph-name="Omacron" unicode="&#x14c;" horiz-adv-x="574" 
d="M148 831h276v-76h-276v76zM287 -10q-55 0 -100.5 23.5t-78 68.5t-50.5 110t-18 148v20q0 82 18 147t50.5 110t78 69t100.5 24t100.5 -24t78 -69t50.5 -110t18 -147v-19q0 -83 -18 -148t-50.5 -110t-78 -69t-100.5 -24zM287 89q29 0 54 16t43.5 48t29 79.5t10.5 110.5v13
q0 126 -39 190.5t-98 64.5q-29 0 -54 -16t-43.5 -48t-29 -79.5t-10.5 -110.5v-13q0 -126 39 -190.5t98 -64.5z" />
    <glyph glyph-name="omacron" unicode="&#x14d;" horiz-adv-x="468" 
d="M106 663h258v-73h-258v73zM234 -10q-44 0 -81 18.5t-63.5 53t-41.5 84t-15 110.5v17q0 61 15 110.5t42 84.5t63.5 54t80.5 19q43 0 80 -19t64 -53.5t42 -84t15 -110.5v-17q0 -61 -15 -110.5t-42 -84t-64 -53.5t-80 -19zM234 82q45 0 71 48.5t26 129.5v10
q0 81 -26.5 129.5t-70.5 48.5q-45 0 -71 -48.5t-26 -129.5v-10q0 -81 26.5 -129.5t70.5 -48.5z" />
    <glyph glyph-name="Oslash" unicode="&#xd8;" horiz-adv-x="574" 
d="M535 706l-60 -104q28 -45 43.5 -105.5t15.5 -136.5v-19q0 -82 -18 -147t-51 -110.5t-78.5 -69.5t-100.5 -24q-79 0 -137 49l-27 -45h-83l60 103q-29 45 -44 106t-15 137v19q0 82 18 147t51 110.5t78.5 69.5t99.5 24q79 0 137 -49l28 45h83zM148 343q0 -81 16 -135
l209 359q-35 46 -87 46q-60 0 -99 -63.5t-39 -191.5v-15zM287 87q61 0 100 64t39 191v15q0 40 -4 73.5t-12 61.5l-210 -360q34 -45 87 -45z" />
    <glyph glyph-name="oslash" unicode="&#xf8;" horiz-adv-x="468" 
d="M444 537l-54 -86q21 -34 33 -78.5t12 -98.5v-17q0 -62 -15.5 -111t-42.5 -84t-63.5 -53.5t-79.5 -18.5q-63 0 -110 38l-23 -35h-78l55 86q-45 68 -45 177v17q0 61 15.5 111t42.5 84.5t63.5 53.5t79.5 19q31 0 59 -10t51 -28l22 34h78zM132 260q0 -47 9 -83l154 242
q-26 31 -61 31q-47 0 -74.5 -49t-27.5 -131v-10zM234 80q47 0 74 49.5t27 130.5v10q0 46 -9 81l-154 -240q26 -31 62 -31z" />
    <glyph glyph-name="Oslashacute" unicode="&#x1fe;" horiz-adv-x="574" 
d="M535 706l-60 -104q28 -45 43.5 -105.5t15.5 -136.5v-19q0 -82 -18 -147t-51 -110.5t-78.5 -69.5t-100.5 -24q-79 0 -137 49l-27 -45h-83l60 103q-29 45 -44 106t-15 137v19q0 82 18 147t51 110.5t78.5 69.5t99.5 24q79 0 137 -49l28 45h83zM148 343q0 -81 16 -135
l209 359q-35 46 -87 46q-60 0 -99 -63.5t-39 -191.5v-15zM287 87q61 0 100 64t39 191v15q0 40 -4 73.5t-12 61.5l-210 -360q34 -45 87 -45zM334 877l94 -44l-106 -86h-79z" />
    <glyph glyph-name="oslashacute" unicode="&#x1ff;" horiz-adv-x="468" 
d="M444 537l-54 -86q21 -34 33 -78.5t12 -98.5v-17q0 -62 -15.5 -111t-42.5 -84t-63.5 -53.5t-79.5 -18.5q-63 0 -110 38l-23 -35h-78l55 86q-45 68 -45 177v17q0 61 15.5 111t42.5 84.5t63.5 53.5t79.5 19q31 0 59 -10t51 -28l22 34h78zM132 260q0 -47 9 -83l154 242
q-26 31 -61 31q-47 0 -74.5 -49t-27.5 -131v-10zM234 80q47 0 74 49.5t27 130.5v10q0 46 -9 81l-154 -240q26 -31 62 -31zM278 731l89 -45l-104 -104h-73z" />
    <glyph glyph-name="Otilde" unicode="&#xd5;" horiz-adv-x="574" 
d="M356 747q-19 0 -36.5 6.5t-34.5 14.5q-14 7 -26 11.5t-21 4.5q-14 0 -21.5 -9.5t-15.5 -31.5l-61 17q12 53 31.5 79t52.5 26q19 0 37 -6.5t35 -14.5q14 -7 25.5 -11.5t20.5 -4.5q14 0 21.5 9.5t15.5 31.5l61 -16q-12 -54 -31.5 -80t-52.5 -26zM287 -10q-55 0 -100.5 23.5
t-78 68.5t-50.5 110t-18 148v20q0 82 18 147t50.5 110t78 69t100.5 24t100.5 -24t78 -69t50.5 -110t18 -147v-19q0 -83 -18 -148t-50.5 -110t-78 -69t-100.5 -24zM287 89q29 0 54 16t43.5 48t29 79.5t10.5 110.5v13q0 126 -39 190.5t-98 64.5q-29 0 -54 -16t-43.5 -48
t-29 -79.5t-10.5 -110.5v-13q0 -126 39 -190.5t98 -64.5z" />
    <glyph glyph-name="otilde" unicode="&#xf5;" horiz-adv-x="468" 
d="M234 -10q-44 0 -81 18.5t-63.5 53t-41.5 84t-15 110.5v17q0 61 15 110.5t42 84.5t63.5 54t80.5 19q43 0 80 -19t64 -53.5t42 -84t15 -110.5v-17q0 -61 -15 -110.5t-42 -84t-64 -53.5t-80 -19zM234 82q45 0 71 48.5t26 129.5v10q0 81 -26.5 129.5t-70.5 48.5
q-45 0 -71 -48.5t-26 -129.5v-10q0 -81 26.5 -129.5t70.5 -48.5zM302 582q-18 0 -34.5 7t-33.5 15q-14 8 -25.5 13t-20.5 5q-14 0 -21.5 -10.5t-15.5 -34.5l-59 16q13 56 31 81.5t51 25.5q18 0 34.5 -7t33.5 -15q14 -8 25.5 -13t20.5 -5q14 0 21.5 10.5t15.5 33.5l59 -16
q-12 -55 -30.5 -80.5t-51.5 -25.5z" />
    <glyph glyph-name="Racute" unicode="&#x154;" horiz-adv-x="513" 
d="M60 700h186q54 0 98 -15.5t74 -45.5q27 -27 42 -67t15 -91v-5q0 -78 -34 -126t-86 -71l136 -279h-121l-121 252q-5 -1 -13 -1h-68v-251h-108v700zM231 348q71 0 103.5 35t32.5 92q0 63 -34 94.5t-97 31.5h-68v-253h63zM294 874l94 -44l-106 -86h-79z" />
    <glyph glyph-name="racute" unicode="&#x155;" horiz-adv-x="301" 
d="M207 731l89 -45l-104 -104h-73zM51 532h104v-86q17 42 47.5 68.5t79.5 23.5v-117h-3q-57 0 -90.5 -37t-33.5 -112v-272h-104v532z" />
    <glyph glyph-name="Rcaron" unicode="&#x158;" horiz-adv-x="513" 
d="M60 700h186q54 0 98 -15.5t74 -45.5q27 -27 42 -67t15 -91v-5q0 -78 -34 -126t-86 -71l136 -279h-121l-121 252q-5 -1 -13 -1h-68v-251h-108v700zM231 348q71 0 103.5 35t32.5 92q0 63 -34 94.5t-97 31.5h-68v-253h63zM294 745h-92l-91 121h82l56 -53l56 53h80z" />
    <glyph glyph-name="rcaron" unicode="&#x159;" horiz-adv-x="301" 
d="M204 583h-86l-89 138h76l57 -66l57 66h74zM51 532h104v-86q17 42 47.5 68.5t79.5 23.5v-117h-3q-57 0 -90.5 -37t-33.5 -112v-272h-104v532z" />
    <glyph glyph-name="Rcommaaccent" unicode="&#x156;" horiz-adv-x="513" 
d="M60 700h186q54 0 98 -15.5t74 -45.5q27 -27 42 -67t15 -91v-5q0 -78 -34 -126t-86 -71l136 -279h-121l-121 252q-5 -1 -13 -1h-68v-251h-108v700zM231 348q71 0 103.5 35t32.5 92q0 63 -34 94.5t-97 31.5h-68v-253h63zM190 -195q31 5 43.5 18t10.5 39h-45v88h100v-78
q0 -51 -25.5 -74.5t-76.5 -28.5z" />
    <glyph glyph-name="rcommaaccent" unicode="&#x157;" horiz-adv-x="301" 
d="M50 -197q31 5 43.5 18t10.5 39h-45v88h100v-78q0 -51 -25.5 -74.5t-76.5 -28.5zM51 532h104v-86q17 42 47.5 68.5t79.5 23.5v-117h-3q-57 0 -90.5 -37t-33.5 -112v-272h-104v532z" />
    <glyph glyph-name="Sacute" unicode="&#x15a;" horiz-adv-x="446" 
d="M215 -8q-52 0 -104.5 20t-102.5 70l65 84q13 -13 28.5 -26t33 -23.5t37.5 -17.5t42 -7q44 0 69.5 26t25.5 64v1q0 14 -4 27.5t-16 27.5t-33 30t-54 36q-43 25 -74.5 48.5t-51.5 49t-30 53.5t-10 62v2q0 41 14.5 76t41.5 60t64 39t82 14q44 0 91.5 -17.5t89.5 -59.5
l-66 -83q-23 23 -53.5 41.5t-66.5 18.5q-39 0 -63.5 -22.5t-24.5 -56.5v-1q0 -16 4.5 -30t17.5 -29t37 -32.5t62 -40.5q41 -25 70 -48t47 -48t26.5 -52t8.5 -60v-2q0 -42 -15.5 -78t-43 -61.5t-64.5 -40t-80 -14.5zM274 877l94 -44l-106 -86h-79z" />
    <glyph glyph-name="sacute" unicode="&#x15b;" horiz-adv-x="359" 
d="M229 731l89 -45l-104 -104h-73zM173 -9q-38 0 -81.5 15t-85.5 53l51 79q29 -26 58 -41.5t58 -15.5q32 0 48 17t16 41v1q0 25 -20 44t-68 46q-61 35 -91 70t-30 89v2q0 34 12 61t33 46.5t50.5 30t64.5 10.5q38 0 76 -14t71 -40l-48 -80q-20 18 -45.5 31t-54.5 13
t-44.5 -15t-15.5 -36v-2q0 -23 20.5 -41.5t67.5 -46.5q65 -39 93.5 -75t28.5 -87v-1q0 -36 -12.5 -64.5t-35 -48.5t-52.5 -30.5t-64 -10.5z" />
    <glyph glyph-name="Scaron" unicode="&#x160;" horiz-adv-x="446" 
d="M215 -8q-52 0 -104.5 20t-102.5 70l65 84q13 -13 28.5 -26t33 -23.5t37.5 -17.5t42 -7q44 0 69.5 26t25.5 64v1q0 14 -4 27.5t-16 27.5t-33 30t-54 36q-43 25 -74.5 48.5t-51.5 49t-30 53.5t-10 62v2q0 41 14.5 76t41.5 60t64 39t82 14q44 0 91.5 -17.5t89.5 -59.5
l-66 -83q-23 23 -53.5 41.5t-66.5 18.5q-39 0 -63.5 -22.5t-24.5 -56.5v-1q0 -16 4.5 -30t17.5 -29t37 -32.5t62 -40.5q41 -25 70 -48t47 -48t26.5 -52t8.5 -60v-2q0 -42 -15.5 -78t-43 -61.5t-64.5 -40t-80 -14.5zM275 748h-92l-91 121h82l56 -53l56 53h80z" />
    <glyph glyph-name="scaron" unicode="&#x161;" horiz-adv-x="359" 
d="M226 583h-86l-89 138h76l57 -66l57 66h74zM173 -9q-38 0 -81.5 15t-85.5 53l51 79q29 -26 58 -41.5t58 -15.5q32 0 48 17t16 41v1q0 25 -20 44t-68 46q-61 35 -91 70t-30 89v2q0 34 12 61t33 46.5t50.5 30t64.5 10.5q38 0 76 -14t71 -40l-48 -80q-20 18 -45.5 31
t-54.5 13t-44.5 -15t-15.5 -36v-2q0 -23 20.5 -41.5t67.5 -46.5q65 -39 93.5 -75t28.5 -87v-1q0 -36 -12.5 -64.5t-35 -48.5t-52.5 -30.5t-64 -10.5z" />
    <glyph glyph-name="Scedilla" unicode="&#x15e;" horiz-adv-x="446" 
d="M123 -100l61 94q-45 5 -89.5 25t-86.5 63l65 84q13 -13 28.5 -26t33 -23.5t37.5 -17.5t42 -7q44 0 69.5 26t25.5 64v1q0 14 -4 27.5t-16 27.5t-33 30t-54 36q-43 25 -74.5 48.5t-51.5 49t-30 53.5t-10 62v2q0 41 14.5 76t41.5 60t64 39t82 14q44 0 91.5 -17.5t89.5 -59.5
l-66 -83q-23 23 -53.5 41.5t-66.5 18.5q-39 0 -63.5 -22.5t-24.5 -56.5v-1q0 -16 4.5 -30t17.5 -29t37 -32.5t62 -40.5q41 -25 70 -48t47 -48t26.5 -52t8.5 -60v-2q0 -36 -11.5 -67t-32 -55.5t-48.5 -41.5t-62 -24l-49 -134z" />
    <glyph glyph-name="scedilla" unicode="&#x15f;" horiz-adv-x="359" 
d="M75 -100l62 94q-32 5 -65.5 20.5t-65.5 44.5l51 79q29 -26 58 -41.5t58 -15.5q32 0 48 17t16 41v1q0 25 -20 44t-68 46q-61 35 -91 70t-30 89v2q0 34 12 61t33 46.5t50.5 30t64.5 10.5q38 0 76 -14t71 -40l-48 -80q-20 18 -45.5 31t-54.5 13t-44.5 -15t-15.5 -36v-2
q0 -23 20.5 -41.5t67.5 -46.5q65 -39 93.5 -75t28.5 -87v-1q0 -61 -34 -99.5t-87 -49.5l-49 -132z" />
    <glyph glyph-name="Scommaaccent" unicode="&#x218;" horiz-adv-x="446" 
d="M162 -197q31 5 43.5 18t10.5 39h-45v88h100v-78q0 -51 -25.5 -74.5t-76.5 -28.5zM215 -8q-52 0 -104.5 20t-102.5 70l65 84q13 -13 28.5 -26t33 -23.5t37.5 -17.5t42 -7q44 0 69.5 26t25.5 64v1q0 14 -4 27.5t-16 27.5t-33 30t-54 36q-43 25 -74.5 48.5t-51.5 49
t-30 53.5t-10 62v2q0 41 14.5 76t41.5 60t64 39t82 14q44 0 91.5 -17.5t89.5 -59.5l-66 -83q-23 23 -53.5 41.5t-66.5 18.5q-39 0 -63.5 -22.5t-24.5 -56.5v-1q0 -16 4.5 -30t17.5 -29t37 -32.5t62 -40.5q41 -25 70 -48t47 -48t26.5 -52t8.5 -60v-2q0 -42 -15.5 -78
t-43 -61.5t-64.5 -40t-80 -14.5z" />
    <glyph glyph-name="scommaaccent" unicode="&#x219;" horiz-adv-x="359" 
d="M119 -197q31 5 43.5 18t10.5 39h-45v88h100v-78q0 -51 -25.5 -74.5t-76.5 -28.5zM173 -9q-38 0 -81.5 15t-85.5 53l51 79q29 -26 58 -41.5t58 -15.5q32 0 48 17t16 41v1q0 25 -20 44t-68 46q-61 35 -91 70t-30 89v2q0 34 12 61t33 46.5t50.5 30t64.5 10.5q38 0 76 -14
t71 -40l-48 -80q-20 18 -45.5 31t-54.5 13t-44.5 -15t-15.5 -36v-2q0 -23 20.5 -41.5t67.5 -46.5q65 -39 93.5 -75t28.5 -87v-1q0 -36 -12.5 -64.5t-35 -48.5t-52.5 -30.5t-64 -10.5z" />
    <glyph glyph-name="Tcaron" unicode="&#x164;" horiz-adv-x="437" 
d="M265 745h-92l-91 121h82l56 -53l56 53h80zM164 599h-140v101h389v-101h-141v-599h-108v599z" />
    <glyph glyph-name="tcaron" unicode="&#x165;" horiz-adv-x="296" 
d="M230 733h76v-3l-42 -161h-44zM190 -7q-26 0 -48 5.5t-38 19t-25.5 35.5t-9.5 56v335h-47v88h47v141h105v-141h93v-88h-93v-309q0 -26 12 -37.5t35 -11.5t45 11v-85q-15 -8 -34.5 -13.5t-41.5 -5.5z" />
    <glyph glyph-name="Tcommaaccent" unicode="&#x162;" horiz-adv-x="437" 
d="M160 -197q31 5 43.5 18t10.5 39h-45v88h100v-78q0 -51 -25.5 -74.5t-76.5 -28.5zM164 599h-140v101h389v-101h-141v-599h-108v599z" />
    <glyph glyph-name="tcommaaccent" unicode="&#x163;" horiz-adv-x="296" 
d="M105 -197q31 5 43.5 18t10.5 39h-45v88h100v-78q0 -51 -25.5 -74.5t-76.5 -28.5zM190 -7q-26 0 -48 5.5t-38 19t-25.5 35.5t-9.5 56v335h-47v88h47v141h105v-141h93v-88h-93v-309q0 -26 12 -37.5t35 -11.5t45 11v-85q-15 -8 -34.5 -13.5t-41.5 -5.5z" />
    <glyph glyph-name="Thorn" unicode="&#xde;" horiz-adv-x="486" 
d="M60 700h108v-106h57q54 0 97.5 -15t74 -44.5t47.5 -72.5t17 -99v-2q0 -58 -17.5 -102.5t-49 -74.5t-74.5 -45.5t-94 -15.5h-58v-123h-108v700zM221 221q64 0 97.5 37t33.5 100v1q0 66 -33 101t-97 35h-54v-274h53z" />
    <glyph glyph-name="thorn" unicode="&#xfe;" horiz-adv-x="478" 
d="M51 714h104v-264q9 17 21 33.5t27.5 29t34.5 20.5t43 8q32 0 61 -15.5t51.5 -47.5t36 -81.5t13.5 -117.5v-26q0 -68 -13 -117.5t-35.5 -82t-52 -48t-61.5 -15.5q-24 0 -43 7.5t-34.5 20t-27.5 28t-21 32.5v-218h-104v854zM248 86q39 0 64.5 45.5t25.5 126.5v16
q0 81 -25.5 126.5t-64.5 45.5t-66.5 -45t-27.5 -126v-18q0 -81 27.5 -126t66.5 -45z" />
    <glyph glyph-name="Uacute" unicode="&#xda;" horiz-adv-x="539" 
d="M316 873l94 -44l-106 -86h-79zM269 -10q-48 0 -87.5 15.5t-68 46t-44 76t-15.5 106.5v466h108v-471q0 -70 29 -104.5t79 -34.5t79 34t29 104v472h107v-465q0 -61 -15.5 -107t-44 -76.5t-68.5 -46t-88 -15.5z" />
    <glyph glyph-name="uacute" unicode="&#xfa;" horiz-adv-x="457" 
d="M272 731l89 -45l-104 -104h-73zM181 -10q-63 0 -98.5 44t-35.5 121v377h104v-348q0 -51 19 -75.5t54 -24.5t56.5 26t21.5 74v348h104v-532h-104v73q-19 -34 -47 -58.5t-74 -24.5z" />
    <glyph glyph-name="Ubreve" unicode="&#x16c;" horiz-adv-x="539" 
d="M268 737q-55 0 -92 28t-40 85h70q10 -43 62 -43t62 43h71q-5 -57 -41.5 -85t-91.5 -28zM269 -10q-48 0 -87.5 15.5t-68 46t-44 76t-15.5 106.5v466h108v-471q0 -70 29 -104.5t79 -34.5t79 34t29 104v472h107v-465q0 -61 -15.5 -107t-44 -76.5t-68.5 -46t-88 -15.5z" />
    <glyph glyph-name="ubreve" unicode="&#x16d;" horiz-adv-x="457" 
d="M181 -10q-63 0 -98.5 44t-35.5 121v377h104v-348q0 -51 19 -75.5t54 -24.5t56.5 26t21.5 74v348h104v-532h-104v73q-19 -34 -47 -58.5t-74 -24.5zM228 579q-54 0 -90.5 30.5t-41.5 92.5h69q5 -24 20 -38.5t43 -14.5t43 14.5t20 38.5h69q-5 -62 -41.5 -92.5t-90.5 -30.5z
" />
    <glyph glyph-name="Ucircumflex" unicode="&#xdb;" horiz-adv-x="539" 
d="M269 -10q-48 0 -87.5 15.5t-68 46t-44 76t-15.5 106.5v466h108v-471q0 -70 29 -104.5t79 -34.5t79 34t29 104v472h107v-465q0 -61 -15.5 -107t-44 -76.5t-68.5 -46t-88 -15.5zM222 865h92l91 -121h-82l-56 53l-56 -53h-80z" />
    <glyph glyph-name="ucircumflex" unicode="&#xfb;" horiz-adv-x="457" 
d="M185 721h86l89 -138h-76l-57 66l-57 -66h-74zM181 -10q-63 0 -98.5 44t-35.5 121v377h104v-348q0 -51 19 -75.5t54 -24.5t56.5 26t21.5 74v348h104v-532h-104v73q-19 -34 -47 -58.5t-74 -24.5z" />
    <glyph glyph-name="Udieresis" unicode="&#xdc;" horiz-adv-x="539" 
d="M297 847h103v-101h-103v101zM136 847h103v-101h-103v101zM269 -10q-48 0 -87.5 15.5t-68 46t-44 76t-15.5 106.5v466h108v-471q0 -70 29 -104.5t79 -34.5t79 34t29 104v472h107v-465q0 -61 -15.5 -107t-44 -76.5t-68.5 -46t-88 -15.5z" />
    <glyph glyph-name="udieresis" unicode="&#xfc;" horiz-adv-x="457" 
d="M254 688h100v-102h-100v102zM102 688h100v-102h-100v102zM181 -10q-63 0 -98.5 44t-35.5 121v377h104v-348q0 -51 19 -75.5t54 -24.5t56.5 26t21.5 74v348h104v-532h-104v73q-19 -34 -47 -58.5t-74 -24.5z" />
    <glyph glyph-name="Ugrave" unicode="&#xd9;" horiz-adv-x="539" 
d="M235 743l-105 86l94 44l91 -130h-80zM269 -10q-48 0 -87.5 15.5t-68 46t-44 76t-15.5 106.5v466h108v-471q0 -70 29 -104.5t79 -34.5t79 34t29 104v472h107v-465q0 -61 -15.5 -107t-44 -76.5t-68.5 -46t-88 -15.5z" />
    <glyph glyph-name="ugrave" unicode="&#xf9;" horiz-adv-x="457" 
d="M181 -10q-63 0 -98.5 44t-35.5 121v377h104v-348q0 -51 19 -75.5t54 -24.5t56.5 26t21.5 74v348h104v-532h-104v73q-19 -34 -47 -58.5t-74 -24.5zM92 686l90 45l87 -149h-73z" />
    <glyph glyph-name="Uhungarumlaut" unicode="&#x170;" horiz-adv-x="539" 
d="M269 -10q-48 0 -87.5 15.5t-68 46t-44 76t-15.5 106.5v466h108v-471q0 -70 29 -104.5t79 -34.5t79 34t29 104v472h107v-465q0 -61 -15.5 -107t-44 -76.5t-68.5 -46t-88 -15.5zM248 873l87 -44l-103 -86h-75zM381 873l87 -44l-103 -86h-76z" />
    <glyph glyph-name="uhungarumlaut" unicode="&#x171;" horiz-adv-x="457" 
d="M181 -10q-63 0 -98.5 44t-35.5 121v377h104v-348q0 -51 19 -75.5t54 -24.5t56.5 26t21.5 74v348h104v-532h-104v73q-19 -34 -47 -58.5t-74 -24.5zM333 731l84 -44l-101 -105h-70zM205 731l84 -44l-101 -105h-70z" />
    <glyph glyph-name="Umacron" unicode="&#x16a;" horiz-adv-x="539" 
d="M130 827h276v-76h-276v76zM269 -10q-48 0 -87.5 15.5t-68 46t-44 76t-15.5 106.5v466h108v-471q0 -70 29 -104.5t79 -34.5t79 34t29 104v472h107v-465q0 -61 -15.5 -107t-44 -76.5t-68.5 -46t-88 -15.5z" />
    <glyph glyph-name="umacron" unicode="&#x16b;" horiz-adv-x="457" 
d="M181 -10q-63 0 -98.5 44t-35.5 121v377h104v-348q0 -51 19 -75.5t54 -24.5t56.5 26t21.5 74v348h104v-532h-104v73q-19 -34 -47 -58.5t-74 -24.5zM99 663h258v-73h-258v73z" />
    <glyph glyph-name="Uogonek" unicode="&#x172;" horiz-adv-x="539" 
d="M332 -147q-20 -3 -34 -3q-50 0 -75.5 19.5t-25.5 51.5q0 20 8.5 37.5t23.5 34.5q-80 12 -127.5 72t-47.5 169v466h108v-471q0 -70 29 -104.5t79 -34.5t79 34t29 104v472h107v-465q0 -112 -50 -173t-134 -70q-21 -28 -21 -49q0 -34 52 -32v-58z" />
    <glyph glyph-name="uogonek" unicode="&#x173;" horiz-adv-x="457" 
d="M181 -10q-63 0 -98.5 44t-35.5 121v377h104v-348q0 -51 19 -75.5t54 -24.5t56.5 26t21.5 74v348h104v-532h-18q-27 -33 -27 -57q0 -34 52 -32v-58q-20 -3 -34 -3q-50 0 -75.5 19.5t-25.5 51.5q0 23 10 41.5t28 37.5h-14v73q-19 -34 -47 -58.5t-74 -24.5z" />
    <glyph glyph-name="Uring" unicode="&#x16e;" horiz-adv-x="539" 
d="M269 -10q-48 0 -87.5 15.5t-68 46t-44 76t-15.5 106.5v466h108v-471q0 -70 29 -104.5t79 -34.5t79 34t29 104v472h107v-465q0 -61 -15.5 -107t-44 -76.5t-68.5 -46t-88 -15.5zM268 726q-40 0 -68.5 25.5t-28.5 64.5t28.5 64.5t68.5 25.5q41 0 69 -25.5t28 -64.5
t-28.5 -64.5t-68.5 -25.5zM268 768q22 0 36 14t14 34t-14 34t-36 14t-36 -14t-14 -34t14 -34t36 -14z" />
    <glyph glyph-name="uring" unicode="&#x16f;" horiz-adv-x="457" 
d="M228 570q-40 0 -67.5 27t-27.5 68q0 40 27.5 67.5t67.5 27.5t67.5 -27t27.5 -68t-27.5 -68t-67.5 -27zM228 611q22 0 36 15.5t14 38.5t-14 38.5t-36 15.5q-21 0 -35.5 -15.5t-14.5 -38.5t14.5 -38.5t35.5 -15.5zM181 -10q-63 0 -98.5 44t-35.5 121v377h104v-348
q0 -51 19 -75.5t54 -24.5t56.5 26t21.5 74v348h104v-532h-104v73q-19 -34 -47 -58.5t-74 -24.5z" />
    <glyph glyph-name="Wacute" unicode="&#x1e82;" horiz-adv-x="787" 
d="M439 874l94 -44l-106 -86h-79zM20 700h113l102 -497l111 498h96l111 -498l102 497h111l-159 -704h-104l-110 485l-111 -485h-103z" />
    <glyph glyph-name="wacute" unicode="&#x1e83;" horiz-adv-x="639" 
d="M364 731l89 -45l-104 -104h-73zM22 532h106l71 -353l77 353h88l77 -353l72 353h104l-122 -535h-98l-78 346l-78 -346h-98z" />
    <glyph glyph-name="Wcircumflex" unicode="&#x174;" horiz-adv-x="787" 
d="M20 700h113l102 -497l111 498h96l111 -498l102 497h111l-159 -704h-104l-110 485l-111 -485h-103zM346 866h92l91 -121h-82l-56 53l-56 -53h-80z" />
    <glyph glyph-name="wcircumflex" unicode="&#x175;" horiz-adv-x="639" 
d="M275 721h86l89 -138h-76l-57 66l-57 -66h-74zM22 532h106l71 -353l77 353h88l77 -353l72 353h104l-122 -535h-98l-78 346l-78 -346h-98z" />
    <glyph glyph-name="Wdieresis" unicode="&#x1e84;" horiz-adv-x="787" 
d="M421 848h103v-101h-103v101zM260 848h103v-101h-103v101zM20 700h113l102 -497l111 498h96l111 -498l102 497h111l-159 -704h-104l-110 485l-111 -485h-103z" />
    <glyph glyph-name="wdieresis" unicode="&#x1e85;" horiz-adv-x="639" 
d="M344 688h100v-102h-100v102zM192 688h100v-102h-100v102zM22 532h106l71 -353l77 353h88l77 -353l72 353h104l-122 -535h-98l-78 346l-78 -346h-98z" />
    <glyph glyph-name="Wgrave" unicode="&#x1e80;" horiz-adv-x="787" 
d="M356 744l-105 86l94 44l91 -130h-80zM20 700h113l102 -497l111 498h96l111 -498l102 497h111l-159 -704h-104l-110 485l-111 -485h-103z" />
    <glyph glyph-name="wgrave" unicode="&#x1e81;" horiz-adv-x="639" 
d="M22 532h106l71 -353l77 353h88l77 -353l72 353h104l-122 -535h-98l-78 346l-78 -346h-98zM183 686l90 45l87 -149h-73z" />
    <glyph glyph-name="Yacute" unicode="&#xdd;" horiz-adv-x="498" 
d="M195 281l-187 419h117l125 -295l125 295h115l-187 -418v-282h-108v281zM295 873l94 -44l-106 -86h-79z" />
    <glyph glyph-name="yacute" unicode="&#xfd;" horiz-adv-x="436" 
d="M311 532h106l-146 -532q-23 -80 -54.5 -112t-83.5 -32q-19 0 -42 6t-44 18l23 83q11 -7 24 -11.5t26 -4.5q18 0 31 11t21 41l-153 533h107l95 -378zM264 731l89 -45l-104 -104h-73z" />
    <glyph glyph-name="Ycircumflex" unicode="&#x176;" horiz-adv-x="498" 
d="M195 281l-187 419h117l125 -295l125 295h115l-187 -418v-282h-108v281zM203 865h92l91 -121h-82l-56 53l-56 -53h-80z" />
    <glyph glyph-name="ycircumflex" unicode="&#x177;" horiz-adv-x="436" 
d="M311 532h106l-146 -532q-23 -80 -54.5 -112t-83.5 -32q-19 0 -42 6t-44 18l23 83q11 -7 24 -11.5t26 -4.5q18 0 31 11t21 41l-153 533h107l95 -378zM176 721h86l89 -138h-76l-57 66l-57 -66h-74z" />
    <glyph glyph-name="Ydieresis" unicode="&#x178;" horiz-adv-x="498" 
d="M195 281l-187 419h117l125 -295l125 295h115l-187 -418v-282h-108v281zM278 847h103v-101h-103v101zM117 847h103v-101h-103v101z" />
    <glyph glyph-name="ydieresis" unicode="&#xff;" horiz-adv-x="436" 
d="M311 532h106l-146 -532q-23 -80 -54.5 -112t-83.5 -32q-19 0 -42 6t-44 18l23 83q11 -7 24 -11.5t26 -4.5q18 0 31 11t21 41l-153 533h107l95 -378zM245 688h100v-102h-100v102zM93 688h100v-102h-100v102z" />
    <glyph glyph-name="Ygrave" unicode="&#x1ef2;" horiz-adv-x="498" 
d="M195 281l-187 419h117l125 -295l125 295h115l-187 -418v-282h-108v281zM214 743l-105 86l94 44l91 -130h-80z" />
    <glyph glyph-name="ygrave" unicode="&#x1ef3;" horiz-adv-x="436" 
d="M311 532h106l-146 -532q-23 -80 -54.5 -112t-83.5 -32q-19 0 -42 6t-44 18l23 83q11 -7 24 -11.5t26 -4.5q18 0 31 11t21 41l-153 533h107l95 -378zM83 686l90 45l87 -149h-73z" />
    <glyph glyph-name="Zacute" unicode="&#x179;" horiz-adv-x="471" 
d="M40 82l265 520h-256v98h384v-81l-266 -521h266v-98h-393v82zM287 874l94 -44l-106 -86h-79z" />
    <glyph glyph-name="zacute" unicode="&#x17a;" horiz-adv-x="380" 
d="M241 731l89 -45l-104 -104h-73zM28 72l205 372h-197v88h317v-73l-205 -372h204v-87h-324v72z" />
    <glyph glyph-name="Zcaron" unicode="&#x17d;" horiz-adv-x="471" 
d="M287 745h-92l-91 121h82l56 -53l56 53h80zM40 82l265 520h-256v98h384v-81l-266 -521h266v-98h-393v82z" />
    <glyph glyph-name="zcaron" unicode="&#x17e;" horiz-adv-x="380" 
d="M237 583h-86l-89 138h76l57 -66l57 66h74zM28 72l205 372h-197v88h317v-73l-205 -372h204v-87h-324v72z" />
    <glyph glyph-name="Zdotaccent" unicode="&#x17b;" horiz-adv-x="471" 
d="M189 848h104v-101h-104v101zM40 82l265 520h-256v98h384v-81l-266 -521h266v-98h-393v82z" />
    <glyph glyph-name="zdotaccent" unicode="&#x17c;" horiz-adv-x="380" 
d="M28 72l205 372h-197v88h317v-73l-205 -372h204v-87h-324v72zM143 689h102v-103h-102v103z" />
    <glyph glyph-name="schwa" unicode="&#x259;" horiz-adv-x="434" 
d="M192 541q44 0 82 -18t66.5 -52t45 -83.5t16.5 -113.5v-14q0 -63 -14.5 -113t-40 -85t-60.5 -53.5t-75 -18.5q-44 0 -78 19t-57.5 54.5t-35.5 86t-12 112.5v17t1 30h269q-6 69 -38 104.5t-77 35.5q-29 0 -53 -14.5t-44 -34.5l-47 78q34 30 70.5 46.5t81.5 16.5zM129 232
q2 -69 23.5 -110.5t59.5 -41.5q36 0 60 39t28 113h-171z" />
    <glyph glyph-name="germandbls" unicode="&#xdf;" horiz-adv-x="466" 
d="M222 84q54 4 82 34t28 81v1q0 51 -28.5 81.5t-81.5 41.5v74q42 21 63.5 56.5t21.5 78.5v2q0 44 -20 68.5t-52 24.5q-38 0 -59 -31t-21 -87v-509h-104v505q0 98 49 155.5t137 57.5q40 0 72 -13t54.5 -36.5t34 -54.5t11.5 -67v-6q0 -64 -27 -104t-68 -64q52 -20 86.5 -61.5
t34.5 -110.5v-5q0 -92 -55.5 -144.5t-157.5 -53.5v86z" />
    <glyph glyph-name="zero" unicode="0" horiz-adv-x="518" 
d="M259 -10q-103 0 -161.5 89t-58.5 260v21q0 171 59 260.5t162 89.5q102 0 160.5 -89t58.5 -260v-21q0 -171 -58.5 -260.5t-161.5 -89.5zM260 89q48 0 79 60t31 193v15q0 133 -32 193.5t-79 60.5q-48 0 -79 -60t-31 -193v-15q0 -133 31 -193.5t80 -60.5z" />
    <glyph glyph-name="one" unicode="1" horiz-adv-x="297" 
d="M122 589l-92 -32l-10 101l132 46h77v-704h-107v589z" />
    <glyph glyph-name="two" unicode="2" horiz-adv-x="447" 
d="M37 87l183 256q22 31 37.5 55t25 44t14 38t4.5 37q0 42 -25.5 66t-63.5 24q-32 0 -59.5 -18.5t-55.5 -54.5l-65 73q36 50 86 76.5t105 26.5q40 0 74.5 -12.5t59.5 -36.5t39 -58t14 -77v-2q0 -29 -5.5 -55t-18 -53t-32.5 -57t-49 -69l-137 -188h240v-102h-371v87z" />
    <glyph glyph-name="three" unicode="3" horiz-adv-x="437" 
d="M190 -10q-54 0 -97.5 18t-75.5 49l54 83q19 -17 46 -34t68 -17q47 0 78 31.5t31 85.5v3q0 57 -42 86.5t-115 29.5h-12l-7 70l148 204h-222v101h350v-89l-157 -207q33 -7 62.5 -21.5t52 -38t36 -56.5t13.5 -76v-4q0 -50 -16 -90t-44.5 -68.5t-67 -44t-83.5 -15.5z" />
    <glyph glyph-name="three.alt" horiz-adv-x="435" 
d="M190 -10q-100 0 -174 66l53 83q20 -18 49.5 -34t66.5 -16q48 0 79.5 30.5t31.5 81.5v1q0 50 -35 80t-112 30h-26v94h26q69 0 103.5 31t34.5 80q0 45 -28 69.5t-67 24.5t-66 -17.5t-45 -33.5l-55 76q36 34 81.5 54t96.5 20q40 0 74.5 -12t60 -35t40 -55.5t14.5 -73.5v-1
q0 -66 -32.5 -106.5t-78.5 -60.5q53 -18 87 -60t34 -109v-2q0 -45 -15.5 -82.5t-44 -65t-67.5 -42.5t-86 -15z" />
    <glyph glyph-name="four" unicode="4" horiz-adv-x="493" 
d="M292 145h-260l-9 80l270 479h100v-466h74v-93h-74v-145h-101v145zM292 238v288l-160 -288h160z" />
    <glyph glyph-name="five" unicode="5" horiz-adv-x="446" 
d="M196 -10q-48 0 -91.5 17t-78.5 49l54 84q26 -22 52.5 -35.5t61.5 -13.5q49 0 79.5 35t30.5 95v1q0 60 -32.5 90.5t-79.5 30.5q-24 0 -43.5 -6t-36.5 -14l-60 40l18 337h314v-101h-226l-10 -169q16 5 32.5 8.5t39.5 3.5q37 0 71.5 -12.5t61.5 -38.5t43 -66.5t16 -97.5v-3
q0 -54 -16.5 -97.5t-45.5 -73.5t-68.5 -46.5t-85.5 -16.5z" />
    <glyph glyph-name="six" unicode="6" horiz-adv-x="483" 
d="M247 -10q-81 0 -130 51q-18 18 -32 42t-24.5 57t-16 76.5t-5.5 100.5v11q0 98 17 170t48 119t75 70t98 23q39 0 73.5 -12t67.5 -36l-47 -89q-15 13 -40 25t-55 12q-58 0 -91.5 -56t-37.5 -162q23 25 54 39.5t69 14.5q34 0 66 -13t57 -39.5t40 -67.5t15 -96v-3
q0 -53 -16 -96.5t-43 -75t-63.5 -48.5t-78.5 -17zM247 86q45 0 70.5 38t25.5 98v1q0 63 -26.5 97t-69.5 34t-70 -34t-27 -96v-1q0 -62 25 -99.5t72 -37.5z" />
    <glyph glyph-name="seven" unicode="7" horiz-adv-x="436" 
d="M290 596h-253v104h364v-81l-216 -619h-113z" />
    <glyph glyph-name="eight" unicode="8" horiz-adv-x="472" 
d="M236 -10q-44 0 -81.5 14t-65 39.5t-43 62t-15.5 81.5v5q0 67 29 107.5t73 62.5q-38 23 -62 62.5t-24 95.5v5q0 41 14.5 75t39.5 58.5t59.5 38t75.5 13.5q40 0 74.5 -13.5t60 -38t39.5 -58.5t14 -75v-5q0 -56 -23.5 -95.5t-61.5 -62.5q44 -22 73 -62.5t29 -107.5v-5
q0 -45 -15.5 -81.5t-43 -62t-65 -39.5t-81.5 -14zM236 79q44 0 72 31.5t28 85.5v2q0 54 -29 86t-71 32t-71 -32t-29 -86v-2q0 -54 28 -85.5t72 -31.5zM236 405q37 0 62 31t25 80v1q0 50 -25.5 77.5t-61.5 27.5t-61.5 -27.5t-25.5 -77.5v-1q0 -49 25 -80t62 -31z" />
    <glyph glyph-name="nine" unicode="9" horiz-adv-x="482" 
d="M206 90q58 0 91.5 55t36.5 155q-23 -26 -53.5 -40t-67.5 -14q-35 0 -67 13.5t-56.5 40.5t-39.5 68.5t-15 97.5v3q0 54 15.5 98.5t43 76t64 49t78.5 17.5q79 0 130 -51q18 -18 32 -42t24 -57t15.5 -76.5t5.5 -100.5v-11q0 -98 -17 -170t-48 -119t-75 -70t-98 -23
q-39 0 -76 13t-75 42l47 89q23 -18 49 -31t56 -13zM236 338q43 0 70 35t27 99v1q0 64 -25.5 102.5t-71.5 38.5q-45 0 -70.5 -38.5t-25.5 -101.5v-1q0 -65 26.5 -100t69.5 -35z" />
    <glyph glyph-name="period" unicode="." horiz-adv-x="224" 
d="M51 128h122v-128h-122v128z" />
    <glyph glyph-name="comma" unicode="," horiz-adv-x="224" 
d="M24 -99q48 11 65 37.5t13 61.5h-51v128h122v-107q0 -75 -34 -115t-103 -51z" />
    <glyph glyph-name="colon" unicode=":" horiz-adv-x="234" 
d="M56 531h122v-128h-122v128zM56 128h122v-128h-122v128z" />
    <glyph glyph-name="semicolon" unicode=";" horiz-adv-x="234" 
d="M56 531h122v-128h-122v128zM29 -99q48 11 65 37.5t13 61.5h-51v128h122v-107q0 -75 -34 -115t-103 -51z" />
    <glyph glyph-name="ellipsis" unicode="&#x2026;" horiz-adv-x="704" 
d="M528 127h121v-127h-121v127zM292 127h121v-127h-121v127zM55 127h121v-127h-121v127z" />
    <glyph glyph-name="periodcentered" unicode="&#xb7;" horiz-adv-x="233" 
d="M55 370h122v-128h-122v128z" />
    <glyph glyph-name="bullet" unicode="&#x2022;" horiz-adv-x="394" 
d="M197 214q-50 0 -83 35.5t-33 98.5v11q0 63 33 98.5t83 35.5q49 0 83 -35.5t34 -98.5v-11q0 -63 -33.5 -98.5t-83.5 -35.5z" />
    <glyph glyph-name="ampersand" unicode="&#x26;" horiz-adv-x="525" 
d="M372 70q-32 -37 -70.5 -58t-91.5 -21q-39 0 -73 14t-59 38.5t-39 59.5t-14 77v3q0 65 32 116t92 91q-32 48 -46.5 84t-14.5 74v5q0 31 11 59.5t32 50.5t50.5 34.5t66.5 12.5q35 0 63 -12t48 -32.5t30.5 -48t10.5 -59.5v-5q0 -63 -32.5 -107t-88.5 -80l93 -138
q11 26 20 53.5t19 65.5l84 -24q-12 -53 -27.5 -96t-35.5 -80l79 -107l-79 -52zM230 432q76 48 76 118v2q0 31 -16.5 51.5t-42.5 20.5q-29 0 -46 -21t-17 -51v-2q0 -26 10 -53t36 -65zM221 82q29 0 53.5 15t45.5 41l-121 180q-35 -26 -51.5 -60.5t-16.5 -68.5v-3
q0 -45 24.5 -74.5t65.5 -29.5z" />
    <glyph glyph-name="exclam" unicode="!" horiz-adv-x="246" 
d="M60 665v35h126v-35l-35 -453h-56zM62 128h122v-128h-122v128z" />
    <glyph glyph-name="exclamdown" unicode="&#xa1;" horiz-adv-x="246" 
d="M62 700h122v-128h-122v128zM60 35l35 453h56l35 -453v-35h-126v35z" />
    <glyph glyph-name="question" unicode="?" horiz-adv-x="397" 
d="M126 383l4 5q65 11 99.5 42.5t34.5 82.5v2q0 42 -26 67.5t-68 25.5q-35 0 -61.5 -17.5t-43.5 -34.5l-57 77q35 33 76 53t93 20q44 0 80 -14t61 -38.5t38.5 -59t13.5 -75.5v-1q0 -42 -12 -73.5t-32.5 -55t-47.5 -39t-58 -25.5l-11 -113h-70zM114 128h122v-128h-122v128z
" />
    <glyph glyph-name="questiondown" unicode="&#xbf;" horiz-adv-x="397" 
d="M162 700h121v-128h-121v128zM221 -6q-44 0 -80 14t-61.5 38.5t-39 59t-13.5 75.5v1q0 42 12 73.5t32.5 55t47.5 39.5t58 25l11 113h71l13 -171l-5 -5q-64 -11 -99 -42.5t-35 -82.5v-2q0 -42 26.5 -67.5t67.5 -25.5q36 0 62.5 18t42.5 34l57 -77q-35 -33 -76 -53t-92 -20z
" />
    <glyph glyph-name="quotedblleft" unicode="&#x201c;" horiz-adv-x="421" 
d="M243 538q0 75 34 115t103 50l11 -45q-47 -11 -64 -37.5t-14 -61.5h51v-129h-121v108zM48 538q0 75 34.5 115t103.5 50l11 -45q-47 -11 -64 -37.5t-14 -61.5h52v-129h-123v108z" />
    <glyph glyph-name="quotedblright" unicode="&#x201d;" horiz-adv-x="421" 
d="M223 473q48 11 65 38t14 61h-52v128h122v-107q0 -75 -34 -115t-103 -50zM29 473q48 11 65 38t13 61h-51v128h122v-107q0 -75 -34 -115t-103 -50z" />
    <glyph glyph-name="quoteleft" unicode="&#x2018;" horiz-adv-x="227" 
d="M48 538q0 75 34.5 115t103.5 50l11 -45q-47 -11 -64 -37.5t-14 -61.5h52v-129h-123v108z" />
    <glyph glyph-name="quoteright" unicode="&#x2019;" horiz-adv-x="227" 
d="M29 473q48 11 65 38t13 61h-51v128h122v-107q0 -75 -34 -115t-103 -50z" />
    <glyph glyph-name="quotedblbase" unicode="&#x201e;" horiz-adv-x="436" 
d="M227 -99q50 11 68.5 37.5t14.5 61.5h-51v128h122v-107q0 -75 -35 -115t-108 -51zM29 -99q50 11 68 37.5t15 61.5h-51v128h122v-107q0 -75 -35.5 -115t-107.5 -51z" />
    <glyph glyph-name="quotesinglbase" unicode="&#x201a;" horiz-adv-x="238" 
d="M29 -99q50 11 68 37.5t15 61.5h-51v128h122v-107q0 -75 -35.5 -115t-107.5 -51z" />
    <glyph glyph-name="guillemotleft" unicode="&#xab;" horiz-adv-x="488" 
d="M229 260v8l150 217l73 -39l-109 -181l110 -181l-74 -41zM33 260v8l149 217l74 -39l-110 -181l111 -181l-75 -41z" />
    <glyph glyph-name="guillemotright" unicode="&#xbb;" horiz-adv-x="488" 
d="M232 83l109 180l-110 181l74 41l150 -217v-8l-150 -217zM36 83l109 180l-111 181l75 41l150 -217v-8l-150 -217z" />
    <glyph glyph-name="guilsinglleft" unicode="&#x2039;" horiz-adv-x="291" 
d="M33 260v8l149 217l74 -39l-110 -181l111 -181l-75 -41z" />
    <glyph glyph-name="guilsinglright" unicode="&#x203a;" horiz-adv-x="291" 
d="M36 83l109 180l-111 181l75 41l150 -217v-8l-150 -217z" />
    <glyph glyph-name="hyphen" unicode="-" horiz-adv-x="349" 
d="M45 358h259v-104h-259v104z" />
    <glyph glyph-name="endash" unicode="&#x2013;" horiz-adv-x="471" 
d="M45 357h381v-102h-381v102z" />
    <glyph glyph-name="emdash" unicode="&#x2014;" horiz-adv-x="737" 
d="M45 357h647v-102h-647v102z" />
    <glyph glyph-name="underscore" unicode="_" horiz-adv-x="506" 
d="M-2 -73h510v-83h-510v83z" />
    <glyph glyph-name="slash" unicode="/" horiz-adv-x="376" 
d="M290 779h89l-303 -888h-90z" />
    <glyph glyph-name="backslash" unicode="\" horiz-adv-x="376" 
d="M-3 779h90l303 -888h-89z" />
    <glyph glyph-name="bar" unicode="|" horiz-adv-x="273" 
d="M95 779h84v-888h-84v888z" />
    <glyph glyph-name="parenleft" unicode="(" horiz-adv-x="338" 
d="M278 -135q-115 55 -172.5 164t-57.5 259q0 151 57.5 260t172.5 164l36 -66q-86 -53 -124.5 -144t-38.5 -214q0 -122 38.5 -213t124.5 -144l-36 -66v0z" />
    <glyph glyph-name="parenright" unicode=")" horiz-adv-x="338" 
d="M24 -69q86 53 124.5 144t38.5 213q0 123 -38.5 214t-124.5 144l36 66q115 -55 172.5 -164t57.5 -260q0 -150 -57.5 -259t-172.5 -164z" />
    <glyph glyph-name="bracketleft" unicode="[" horiz-adv-x="341" 
d="M75 700h225v-78h-129v-674h129v-78h-225v830z" />
    <glyph glyph-name="bracketright" unicode="]" horiz-adv-x="341" 
d="M41 -52h130v674h-130v78h225v-830h-225v78z" />
    <glyph glyph-name="braceleft" unicode="{" horiz-adv-x="366" 
d="M321 -140q-53 5 -89.5 19.5t-59 35.5t-32.5 48.5t-10 59.5q0 34 10 66t10 66q0 43 -23 67t-73 24h-21v83h21q50 0 73 24.5t23 66.5q0 34 -10 66t-10 66q0 32 10 59.5t32.5 49t59 35.5t89.5 19l14 -72q-58 -7 -84 -30.5t-26 -67.5q0 -18 3.5 -34.5t7.5 -32t7.5 -32
t3.5 -34.5q0 -48 -29 -81t-81 -43q52 -11 81 -44t29 -81q0 -18 -3.5 -34t-7.5 -32t-7.5 -32t-3.5 -35q0 -44 26 -67.5t84 -30.5l-14 -72v0z" />
    <glyph glyph-name="braceright" unicode="}" horiz-adv-x="366" 
d="M32 -68q58 7 83.5 30.5t25.5 67.5q0 19 -3.5 35t-7.5 32t-7.5 32t-3.5 34q0 48 29 81t81 44q-52 10 -81 43t-29 81q0 18 3.5 34.5t7.5 32t7.5 32t3.5 34.5q0 44 -25.5 67.5t-83.5 30.5l13 72q53 -5 89.5 -19t59 -35.5t32.5 -49t10 -59.5q0 -34 -10 -66t-10 -66
q0 -42 23.5 -66.5t73.5 -24.5h20v-83h-20q-50 0 -73.5 -24t-23.5 -67q0 -34 10 -66t10 -66q0 -32 -10 -59.5t-32.5 -48.5t-59 -35.5t-89.5 -19.5z" />
    <glyph glyph-name="at" unicode="@" horiz-adv-x="761" 
d="M371 -145q-71 0 -132 26.5t-106 75.5t-70 119.5t-25 159.5q0 93 26.5 179t75.5 151.5t116.5 104.5t150.5 39q69 0 127 -27.5t100 -74t65 -108t23 -129.5q0 -63 -12.5 -118t-35.5 -96t-55 -64.5t-71 -23.5q-51 0 -77.5 23.5t-34.5 58.5q-23 -35 -52.5 -58t-71.5 -23
q-50 0 -84.5 38t-34.5 110q0 57 14.5 109.5t39 92.5t57 63.5t68.5 23.5q41 0 64.5 -22.5t34.5 -52.5l11 63l87 -14l-45 -255q-4 -14 -5.5 -28.5t-1.5 -28.5q0 -27 13 -42t37 -15t45 21t37 56.5t25 82.5t9 100q0 60 -19.5 114.5t-56 96t-88 66t-114.5 24.5q-74 0 -134.5 -37
t-103.5 -98t-66.5 -140t-23.5 -163q0 -79 21.5 -142.5t61 -108.5t94.5 -69t120 -24q54 0 97 12.5t86 38.5l19 -31q-47 -28 -95 -42t-110 -14zM342 145q27 0 51 24q12 12 23 32.5t18.5 44.5t12 49.5t4.5 47.5q0 41 -17.5 61.5t-43.5 20.5q-30 0 -51 -23q-13 -13 -23.5 -34.5
t-17.5 -46t-11 -49.5t-4 -46q0 -43 16.5 -62t42.5 -19z" />
    <glyph glyph-name="copyright" unicode="&#xa9;" horiz-adv-x="634" 
d="M317 -11q-62 0 -113.5 26.5t-89 73t-58.5 110.5t-21 140v22q0 76 21 140t58.5 110.5t89.5 73t113 26.5q62 0 114 -26.5t89.5 -73t58.5 -110.5t21 -140v-22q0 -75 -21 -139.5t-59 -111t-90 -73t-113 -26.5zM317 23q55 0 101 24t78 66.5t50 100t18 125.5v23q0 67 -18 125
t-50 100t-78 66t-101 24t-100.5 -24t-78 -66t-50.5 -100t-18 -126v-23q0 -68 18 -125.5t50 -99.5t77.5 -66t101.5 -24zM326 154q-63 0 -101 49.5t-38 143.5v10q0 47 11 83.5t30 61t44.5 37t55.5 12.5q29 0 50 -9t40 -26l-34 -52q-11 10 -23.5 17.5t-31.5 7.5
q-32 0 -54.5 -32t-22.5 -100v-9q0 -69 23 -100.5t56 -31.5q16 0 28.5 7t26.5 21l33 -49q-21 -23 -45 -32t-48 -9z" />
    <glyph glyph-name="published" unicode="&#x2117;" horiz-adv-x="634" 
d="M317 -11q-62 0 -113.5 26.5t-89 73t-58.5 110.5t-21 140v22q0 76 21 140t58.5 110.5t89.5 73t113 26.5q62 0 114 -26.5t89.5 -73t58.5 -110.5t21 -140v-22q0 -75 -21 -139.5t-59 -111t-90 -73t-113 -26.5zM317 23q55 0 101 24t78 66.5t50 100t18 125.5v23q0 67 -18 125
t-50 100t-78 66t-101 24t-100.5 -24t-78 -66t-50.5 -100t-18 -126v-23q0 -68 18 -125.5t50 -99.5t77.5 -66t101.5 -24zM224 548h93q58 0 94 -32t36 -95v-2q0 -64 -37 -96.5t-92 -34.5h-31v-123h-63v383zM317 346q30 0 48.5 18.5t18.5 53.5v1q0 36 -18 53.5t-49 17.5h-30
v-144h30z" />
    <glyph glyph-name="registered.alt" horiz-adv-x="634" 
d="M317 -11q-62 0 -113.5 26.5t-89 73t-58.5 110.5t-21 140v22q0 76 21 140t58.5 110.5t89.5 73t113 26.5q62 0 114 -26.5t89.5 -73t58.5 -110.5t21 -140v-22q0 -75 -21 -139.5t-59 -111t-90 -73t-113 -26.5zM317 23q55 0 101 24t78 66.5t50 100t18 125.5v23q0 67 -18 125
t-50 100t-78 66t-101 24t-100.5 -24t-78 -66t-50.5 -100t-18 -126v-23q0 -68 18 -125.5t50 -99.5t77.5 -66t101.5 -24zM210 549h104q30 0 54.5 -8.5t41.5 -25.5q31 -31 31 -86v-4q0 -41 -17.5 -67t-45.5 -39l73 -153h-70l-65 137q-2 -1 -6 -1h-37v-136h-63v383zM312 358
q29 0 47.5 17.5t18.5 49.5v1q0 35 -19 50t-49 15h-37v-133h39z" />
    <glyph glyph-name="registered" unicode="&#xae;" horiz-adv-x="338" 
d="M168 357q-31 0 -57.5 13t-45.5 36t-29.5 54.5t-10.5 69.5v11q0 37 11 69t30 55t45 36t57 13t58 -13t46 -36t30 -55t11 -69v-10q0 -38 -11 -69.5t-30 -55t-46 -36.5t-58 -13zM168 377q28 0 50.5 11.5t38.5 32.5t25 49t9 61v10q0 33 -9 61t-25 48.5t-38.5 32t-50.5 11.5
q-27 0 -49.5 -12t-38 -32.5t-24.5 -48.5t-9 -60v-11q0 -33 8.5 -61t24.5 -48.5t38.5 -32t49.5 -11.5zM113 633h56q30 0 48 -15.5t18 -44.5v-1q0 -21 -9 -34t-23 -20l36 -73h-39l-32 64h-19v-64h-36v188zM167 540q31 0 31 31q0 30 -31 30h-18v-61h18z" />
    <glyph glyph-name="servicemark" unicode="&#x2120;" horiz-adv-x="532" 
d="M256 700h61l58 -129l59 129h60v-312h-54v214l-63 -141h-4l-62 141v-214h-55v312zM115 384q-53 0 -97 37l27 45q14 -11 32 -22t38 -11q17 0 27.5 9t10.5 25q0 14 -9.5 24t-37.5 27q-19 12 -33.5 22.5t-24 21.5t-14.5 24.5t-5 30.5q0 39 26 62.5t68 23.5q47 0 86 -31
l-27 -45q-11 9 -26 17.5t-33 8.5t-28 -9t-10 -23t10 -23.5t38 -26.5q39 -25 57.5 -46.5t18.5 -54.5q0 -39 -27 -62.5t-67 -23.5z" />
    <glyph glyph-name="trademark" unicode="&#x2122;" horiz-adv-x="517" 
d="M242 700h61l58 -129l59 129h60v-312h-55v214l-63 -141h-3l-63 141v-214h-54v312zM79 647h-62v53h179v-53h-62v-259h-55v259z" />
    <glyph glyph-name="asterisk" unicode="*" horiz-adv-x="342" 
d="M152 514l-85 -68l-35 59l100 44l-100 44l35 60l85 -68l-15 116h68l-14 -116l84 68l35 -60l-100 -44l100 -44l-35 -59l-84 68l14 -117h-68z" />
    <glyph glyph-name="dagger" unicode="&#x2020;" 
d="M125 514l-93 -9v69l92 -10l-12 136h76l-13 -136l93 10v-69l-93 9l10 -276h-70z" />
    <glyph glyph-name="daggerdbl" unicode="&#x2021;" horiz-adv-x="319" 
d="M134 135l-92 -9v69l93 -10l-12 165l12 164l-93 -9v69l92 -10l-13 136h77l-13 -136l92 10v-69l-93 9l12 -164l-12 -165l93 10v-69l-92 9l12 -135h-76z" />
    <glyph glyph-name="dollar" unicode="$" horiz-adv-x="455" 
d="M355 549q-20 20 -41.5 34.5t-47.5 20.5v-205q84 -48 119 -97t35 -114v-2q0 -74 -42.5 -123.5t-111.5 -62.5v-103h-73v100q-46 5 -92.5 26t-83.5 65l64 79q23 -26 51 -45.5t61 -26.5v218q-40 23 -68 45.5t-46 46.5t-26.5 51.5t-8.5 60.5v1q0 71 41 119.5t108 61.5v68h73
v-65q42 -5 81.5 -23t71.5 -52zM315 184q0 23 -10.5 43.5t-38.5 41.5v-169q24 11 36.5 33t12.5 50v1zM149 525q0 -25 9.5 -43t34.5 -37v152q-22 -10 -33 -29t-11 -43z" />
    <glyph glyph-name="sterling" unicode="&#xa3;" horiz-adv-x="452" 
d="M39 68l60 23v197h-59v94h59v113q0 56 12.5 96.5t41.5 69.5q23 23 55 35.5t67 12.5q51 0 90 -20.5t64 -52.5l-68 -74q-13 17 -31.5 30t-45.5 13q-12 0 -25.5 -3.5t-24.5 -14.5q-15 -14 -20.5 -38t-5.5 -56v-111h156v-94h-156v-192h216v-96h-385v68z" />
    <glyph glyph-name="Euro" unicode="&#x20ac;" horiz-adv-x="499" 
d="M413 563q-14 17 -33.5 31t-51.5 14q-41 0 -72.5 -34t-45.5 -100h154v-78h-164q-1 -10 -1 -19v-19v-15v-17.5t1 -16.5h164v-78h-155q14 -73 46.5 -106t71.5 -33q31 0 52.5 15.5t35.5 33.5l60 -76q-31 -35 -68 -55t-84 -20q-87 0 -145.5 62.5t-78.5 178.5h-71v78h63
q-1 8 -1 16v16v16v19.5t1 19.5h-63v78h72q21 112 80.5 174t145.5 62q49 0 82.5 -18t66.5 -51z" />
    <glyph glyph-name="yen" unicode="&#xa5;" horiz-adv-x="494" 
d="M68 340h102l-158 360h116l120 -301l121 301h113l-159 -360h103v-80h-127v-73h127v-80h-127v-107h-104v107h-127v80h127v73h-127v80z" />
    <glyph glyph-name="cent" unicode="&#xa2;" horiz-adv-x="400" 
d="M284 623q26 -5 47.5 -17t41.5 -29l-50 -85q-8 8 -19.5 17.5t-27.5 15.5l-25 -350q22 1 39 10.5t36 28.5l49 -79q-26 -25 -57 -40.5t-73 -17.5l-6 -83h-73l6 94q-61 23 -98.5 88.5t-37.5 167.5v16q0 57 13 103.5t36 80.5t55 55t70 27l6 79h74zM141 349q0 -54 10.5 -90.5
t30.5 -56.5l23 318q-29 -16 -46.5 -57t-17.5 -109v-5z" />
    <glyph glyph-name="baht" unicode="&#xe3f;" horiz-adv-x="481" 
d="M319 785l-12 -97q60 -17 96 -58t36 -107v-4q0 -35 -9.5 -61t-25 -45t-35.5 -32t-41 -22q26 -10 48.5 -23.5t39 -33t26 -46t9.5 -60.5v-5q0 -45 -16 -79.5t-45.5 -59t-70.5 -38t-90 -14.5l-13 -120h-72l14 120h-104v700h165h9t9 -1l10 86h72zM347 203q0 42 -22 68t-64 34
l-24 -210q51 4 80.5 30.5t29.5 74.5v3zM205 397l22 208h-2h-68v-208h48zM336 505q0 58 -43 83l-20 -182q30 11 46.5 35.5t16.5 62.5v1zM171 95l25 214h-39v-214h14z" />
    <glyph glyph-name="colonmonetary" unicode="&#x20a1;" horiz-adv-x="441" 
d="M395 779l-12 -98q12 -6 23.5 -13t22.5 -16l-51 -85q-4 2 -10 8l-56 -479q18 4 33.5 13t32.5 23l48 -78q-26 -22 -54.5 -36.5t-68.5 -18.5l-13 -117h-46l14 116q-17 2 -32 5t-30 9l-15 -130h-45l18 153q-54 38 -85.5 114.5t-31.5 192.5v16q0 76 14.5 135t40.5 101t62 68
t78 35l10 82h45l-9 -76h4q33 0 58 -7l9 83h46zM206 123q29 -24 67 -29l58 503q-20 9 -46 9q-6 0 -11.5 -0.5t-10.5 -1.5zM141 341q0 -58 8.5 -101t23.5 -72l49 420q-37 -24 -59 -81t-22 -151v-15z" />
    <glyph glyph-name="florin" unicode="&#x192;" horiz-adv-x="402" 
d="M74 -5q-31 0 -53 6v91q8 -2 16.5 -3t17.5 -1q24 0 38 14.5t19 47.5l24 215h-59v86h70l12 110q9 71 45 107.5t101 36.5q26 0 44 -2.5t32 -7.5v-93q-12 4 -25.5 6.5t-27.5 2.5q-57 0 -66 -71l-10 -89h101v-86h-111l-27 -229q-9 -76 -44 -108.5t-97 -32.5z" />
    <glyph glyph-name="naira" unicode="&#x20a6;" horiz-adv-x="632" 
d="M527 208v-208h-106l-94 209h-119v-209h-103v208h-85v81h85v126h-85v81h85v204h113l91 -205h115v205h103v-204h85v-81h-85v-126h85v-81h-85zM207 288h86l-84 194h-2v-194zM425 233v183h-82l80 -183h2z" />
    <glyph glyph-name="peso" unicode="&#x20b1;" horiz-adv-x="558" 
d="M97 420h-84v80h84v200h149q99 0 161 -51.5t72 -148.5h84v-80h-85q-6 -47 -26 -83.5t-50.5 -61.5t-70 -38.5t-85.5 -14.5h-42v-222h-107v420zM204 498h167q-9 53 -42.5 79t-84.5 26h-40v-105zM244 318q51 0 84 27t42 77h-166v-104h40z" />
    <glyph glyph-name="R_p" horiz-adv-x="879" 
d="M51 700h153q49 0 89 -14.5t68 -42t43.5 -68.5t15.5 -95v-4q0 -78 -30 -125.5t-77 -70.5l123 -280h-113l-107 253q-2 -1 -6 -1h-6h-52v-252h-101v700zM492 532h98v-79q8 16 19 32t25 28.5t31.5 20.5t40.5 8q29 0 55.5 -15t46.5 -47t32 -81.5t12 -117.5v-30q0 -68 -12 -117
t-32 -81t-46.5 -47t-55.5 -15q-23 0 -40.5 7.5t-31.5 19.5t-24.5 27t-19.5 30v-216h-98v673zM671 82q36 0 57.5 44t21.5 126v28q0 81 -22 126t-57 45t-58.5 -44.5t-23.5 -125.5v-30q0 -80 23.5 -124.5t58.5 -44.5zM203 343q51 0 83.5 34t32.5 98v2q0 68 -33.5 98.5
t-85.5 30.5h-48v-263h51z" />
    <glyph glyph-name="rupee" unicode="&#x20a8;" horiz-adv-x="795" 
d="M618 -9q-38 0 -80 15t-81 52l51 75q28 -27 54.5 -41t53.5 -14q30 0 46.5 17t16.5 43v1q0 11 -3.5 21t-12.5 20.5t-25 22.5t-41 28q-29 18 -50.5 35.5t-36.5 36.5t-22.5 40.5t-7.5 48.5v2q0 33 11 60t31.5 45.5t48.5 29t61 10.5t70 -11t72 -40l-48 -78q-19 15 -42.5 28.5
t-50.5 13.5t-43 -15.5t-16 -38.5v-1q0 -11 3.5 -20.5t13 -20t26 -23t41.5 -28.5q31 -20 53 -38.5t36 -37t20.5 -39t6.5 -45.5v-2q0 -35 -11.5 -63t-32.5 -48t-49.5 -30.5t-62.5 -10.5zM51 700h153q49 0 89 -14.5t68 -42t43.5 -68.5t15.5 -95v-4q0 -78 -30 -125.5t-77 -70.5
l123 -280h-113l-107 253q-2 -1 -6 -1h-6h-52v-252h-101v700zM203 343q51 0 83.5 34t32.5 98v2q0 68 -33.5 98.5t-85.5 30.5h-48v-263h51z" />
    <glyph glyph-name="won" unicode="&#x20a9;" horiz-adv-x="828" 
d="M728 493h86v-81h-102l-23 -120h125v-83h-140l-40 -211h-118l-42 211h-121l-41 -211h-118l-40 211h-139v82h123l-23 121h-100v81h85l-39 207h112l34 -207h111l41 208h113l40 -208h112l33 207h110zM368 290h91l-43 223h-3zM259 178l45 235h-86l38 -235h3zM575 178l37 235
h-85l45 -235h3z" />
    <glyph glyph-name="sheqel" unicode="&#x20aa;" horiz-adv-x="506" 
d="M163 330h59l17 -147q5 -45 23 -65t53 -20h66v430h78v-528h-147q-56 0 -87.5 33.5t-39.5 105.5zM275 344q0 86 -67 86h-82v-430h-79v528h175q51 0 80.5 -33.5t29.5 -99.5v-194h-57v143z" />
    <glyph glyph-name="numbersign" unicode="#" horiz-adv-x="497" 
d="M447 165h-86l-19 -165h-79l19 165h-110l-19 -165h-80l19 165h-68v94h79l21 185h-75v94h86l19 162h80l-19 -162h110l18 162h81l-19 -162h67v-94h-78l-22 -185h75v-94zM181 258h112l22 188h-112z" />
    <glyph glyph-name="paragraph" unicode="&#xb6;" horiz-adv-x="425" 
d="M257 238h-7q-47 2 -88 17t-71.5 43.5t-48 71t-17.5 98.5v2q0 58 18 101t50 71.5t75.5 43t95.5 14.5h101v-700h-108v238z" />
    <glyph glyph-name="section" unicode="&#xa7;" horiz-adv-x="481" 
d="M350 225q46 -40 46 -95v-2q0 -63 -45 -100t-119 -37q-42 0 -82 12.5t-73 38.5l46 75q17 -12 45.5 -25t61.5 -13q31 0 48 14t17 35q0 12 -5 21.5t-17 19t-32.5 19.5t-51.5 22q-39 15 -68 30t-48.5 32t-29.5 37.5t-10 46.5v2q0 40 25 71.5t73 45.5q-46 40 -46 95v2
q0 63 45 100t119 37q42 0 82 -12.5t73 -38.5l-46 -75q-17 12 -45.5 25t-61.5 13q-31 0 -48 -14t-17 -35q0 -12 5 -21.5t17 -19t32.5 -19.5t51.5 -22q39 -15 68 -30t48.5 -31.5t29.5 -37t10 -46.5v-2q0 -40 -25 -71.5t-73 -46.5zM284 272q26 0 46.5 16.5t20.5 41.5v2
q0 24 -21.5 41t-63.5 36q-25 11 -40 15t-29 4q-26 0 -46.5 -16.5t-20.5 -41.5v-2q0 -24 21.5 -41t63.5 -36q25 -11 40 -15t29 -4z" />
    <glyph glyph-name="ordfeminine" unicode="&#xaa;" horiz-adv-x="301" 
d="M120 403q-31 0 -53 23t-22 65v6q0 48 24 70.5t64 22.5q14 0 27 -3t25 -8v15q0 26 -14 40t-38 14q-16 0 -30.5 -5.5t-24.5 -12.5l-21 50q17 10 38.5 16.5t47.5 6.5q48 0 75 -26q27 -27 27 -81v-188h-60v33q-12 -18 -27.5 -28t-37.5 -10zM42 346h212v-47h-212v47zM140 451
q19 0 32.5 13.5t13.5 34.5v38q-8 3 -18.5 6t-21.5 3q-20 0 -31 -12t-11 -34v-5q0 -22 10 -33t26 -11z" />
    <glyph glyph-name="ordmasculine" unicode="&#xba;" horiz-adv-x="301" 
d="M150 402q-49 0 -80 40t-31 106v10q0 67 31.5 107t80.5 40t80 -40t31 -106v-10q0 -67 -31.5 -107t-80.5 -40zM43 346h215v-47h-215v47zM151 455q24 0 37 26.5t13 67.5v8q0 41 -13 67t-38 26q-24 0 -37 -25.5t-13 -66.5v-9q0 -41 13.5 -67.5t37.5 -26.5z" />
    <glyph glyph-name="degree" unicode="&#xb0;" horiz-adv-x="341" 
d="M170 377q-27 0 -50.5 11.5t-41 32.5t-27.5 50.5t-10 66.5v7q0 37 10 66.5t27.5 50.5t41 32.5t50.5 11.5t51 -11.5t41.5 -32.5t27.5 -50.5t10 -66.5v-7q0 -37 -10 -66.5t-27.5 -50.5t-41.5 -32.5t-51 -11.5zM170 441q28 0 45.5 26t17.5 73v3q0 48 -17.5 73.5t-45.5 25.5
q-27 0 -44.5 -25.5t-17.5 -73.5v-3q0 -47 17.5 -73t44.5 -26z" />
    <glyph glyph-name="percent" unicode="%" horiz-adv-x="658" 
d="M163 347q-29 0 -52.5 12.5t-40.5 35.5t-26.5 54.5t-9.5 70.5v12q0 39 9.5 71t26.5 55.5t41 36t53 12.5q28 0 52 -12.5t41 -35.5t26.5 -55t9.5 -71v-12q0 -39 -9.5 -71t-26.5 -55t-41 -35.5t-53 -12.5zM163 635q-25 0 -39 -27t-14 -77v-8q0 -51 15 -78t39 -27q25 0 39 27
t14 78v7q0 51 -15 78t-39 27zM488 700h75l-207 -366l-185 -334h-75l207 366zM494 -7q-29 0 -52.5 12.5t-40.5 35.5t-26.5 55t-9.5 71v12q0 39 9.5 71t26.5 55t41 35.5t53 12.5t53 -12.5t41 -35.5t26.5 -54.5t9.5 -70.5v-12q0 -39 -9.5 -71t-27 -55.5t-41.5 -36t-53 -12.5z
M495 65q25 0 39 27t14 77v8q0 51 -14.5 78t-39.5 27q-24 0 -38.5 -27t-14.5 -78v-7q0 -51 15 -78t39 -27z" />
    <glyph glyph-name="perthousand" unicode="&#x2030;" horiz-adv-x="959" 
d="M164 418q25 0 39 27t14 78v7q0 51 -15 78t-39 27q-25 0 -39 -27t-14 -77v-8q0 -51 15 -78t39 -27zM163 347q-29 0 -52.5 12.5t-40.5 35.5t-26.5 54.5t-9.5 70.5v12q0 39 9.5 71t26.5 55.5t41 36t53 12.5q28 0 52 -12.5t41 -35.5t26.5 -55t9.5 -71v-12q0 -39 -9.5 -71
t-26.5 -55t-41 -35.5t-53 -12.5zM356 334l-185 -334h-75l207 366l185 334h75zM495 65q25 0 39 27t14 77v8q0 51 -14.5 78t-39.5 27q-24 0 -38.5 -27t-14.5 -78v-7q0 -51 15 -78t39 -27zM494 -7q-29 0 -52.5 12.5t-40.5 35.5t-26.5 55t-9.5 71v12q0 39 9.5 71t26.5 55
t41 35.5t53 12.5t53 -12.5t41 -35.5t26.5 -54.5t9.5 -70.5v-12q0 -39 -9.5 -71t-27 -55.5t-41.5 -36t-53 -12.5zM797 65q25 0 39 27t14 77v8q0 51 -15 78t-39 27q-25 0 -39.5 -27t-14.5 -78v-7q0 -51 15.5 -78t39.5 -27zM796 -7q-29 0 -52.5 12.5t-40.5 35.5t-26.5 55
t-9.5 71v12q0 39 9.5 71t26.5 55t41 35.5t53 12.5q28 0 52 -12.5t41 -35.5t26.5 -54.5t9.5 -70.5v-12q0 -39 -9.5 -71t-26.5 -55.5t-41 -36t-53 -12.5z" />
    <glyph glyph-name="quotedbl" unicode="&#x22;" horiz-adv-x="375" 
d="M232 700h113v-8l-75 -289h-46zM59 700h113v-8l-75 -289h-47z" />
    <glyph glyph-name="quotesingle" unicode="'" horiz-adv-x="200" 
d="M59 700h114v-8l-76 -289h-47z" />
    <glyph glyph-name="plus" unicode="+" horiz-adv-x="465" 
d="M183 303h-143v98h143v148h99v-148h142v-98h-142v-148h-99v148z" />
    <glyph glyph-name="minus" unicode="&#x2212;" horiz-adv-x="465" 
d="M41 300v104h383v-104h-383z" />
    <glyph glyph-name="divide" unicode="&#xf7;" horiz-adv-x="465" 
d="M177 581h110v-111h-110v111zM41 305v95h383v-95h-383zM177 234h110v-111h-110v111z" />
    <glyph glyph-name="equal" unicode="=" horiz-adv-x="465" 
d="M45 505h375v-103h-375v103zM45 302h375v-102h-375v102z" />
    <glyph glyph-name="multiply" unicode="&#xd7;" horiz-adv-x="465" 
d="M232 284l-116 -125l-71 63l124 130l-124 129l72 64l115 -125l116 125l72 -63l-124 -130l124 -129l-73 -64z" />
    <glyph glyph-name="less" unicode="&#x3c;" horiz-adv-x="465" 
d="M45 304v96l362 194v-114l-254 -127l254 -127v-116z" />
    <glyph glyph-name="greater" unicode="&#x3e;" horiz-adv-x="465" 
d="M58 224l254 127l-254 128v115l362 -194v-96l-362 -194v114z" />
    <glyph glyph-name="plusminus" unicode="&#xb1;" horiz-adv-x="465" 
d="M281 331v-145h-97v145h-141v97l141 -1v146h97v-146l141 1v-97h-141zM43 19v93h378v-93h-378z" />
    <glyph glyph-name="onehalf" unicode="&#xbd;" horiz-adv-x="620" 
d="M355 55l106 125q23 28 35 45.5t12 37.5t-13.5 32t-32.5 12q-22 0 -38.5 -12t-34.5 -29l-36 47q26 28 53 42.5t62 14.5q48 0 78.5 -26.5t30.5 -73.5q0 -29 -12 -53.5t-42 -59.5l-83 -95h138v-62h-223v55zM265 363l165 337h60l-185 -363l-166 -337h-60zM105 337v294
l-64 -29l-8 63l90 38h51v-366h-69z" />
    <glyph glyph-name="onehalf.alt" horiz-adv-x="675" 
d="M44 337v57h81v239l-75 -31l-7 62l99 40h51v-310h72v-57h-221zM417 55l106 125q23 28 35 45.5t12 37.5t-13.5 32t-32.5 12q-22 0 -38.5 -12t-34.5 -29l-36 47q26 28 53 42.5t62 14.5q48 0 78.5 -26.5t30.5 -73.5q0 -29 -12 -53.5t-42 -59.5l-83 -95h138v-62h-223v55z
M331 363l165 337h60l-185 -363l-166 -337h-60z" />
    <glyph glyph-name="onethird" unicode="&#x2153;" horiz-adv-x="620" 
d="M465 -7q-35 0 -62 12.5t-47 29.5l32 51q14 -11 32.5 -21.5t43.5 -10.5q24 0 39.5 14t15.5 40q0 51 -82 53h-16l-5 44l85 97h-128v62h210v-51l-92 -102q42 -7 69 -30.5t27 -71.5q0 -53 -34 -84.5t-88 -31.5zM105 337v294l-64 -29l-8 63l90 38h51v-366h-69zM260 363
l165 337h60l-185 -363l-166 -337h-60z" />
    <glyph glyph-name="onethird.alt" horiz-adv-x="675" 
d="M44 337v57h81v239l-75 -31l-7 62l99 40h51v-310h72v-57h-221zM520 -7q-35 0 -62 12.5t-47 29.5l32 51q14 -11 32.5 -21.5t43.5 -10.5q24 0 39.5 14t15.5 40q0 51 -82 53h-16l-5 44l85 97h-128v62h210v-51l-92 -102q42 -7 69 -30.5t27 -71.5q0 -53 -34 -84.5t-88 -31.5z
M324 363l165 337h60l-185 -363l-166 -337h-60z" />
    <glyph glyph-name="twothirds" unicode="&#x2154;" horiz-adv-x="675" 
d="M525 -7q-35 0 -62 12.5t-47 29.5l32 51q14 -11 32.5 -21.5t43.5 -10.5q24 0 39.5 14t15.5 40q0 51 -82 53h-16l-5 44l85 97h-128v62h210v-51l-92 -102q42 -7 69 -30.5t27 -71.5q0 -53 -34 -84.5t-88 -31.5zM34 392l106 124q23 29 35 46t12 37q0 21 -13.5 33t-32.5 12
q-22 0 -38.5 -12t-34.5 -29l-36 46q26 29 53 43.5t62 14.5q48 0 78.5 -27t30.5 -73q0 -29 -12 -53.5t-42 -59.5l-83 -95h138v-62h-223v55zM319 363l165 337h60l-185 -363l-166 -337h-60z" />
    <glyph glyph-name="onequarter" unicode="&#xbc;" horiz-adv-x="620" 
d="M105 337v294l-64 -29l-8 63l90 38h51v-366h-69zM280 363l165 337h60l-185 -363l-166 -337h-60zM549 -1h-61v73h-147l-3 59l131 236h80v-239h38v-56h-38v-73zM490 289h-4l-90 -161h94v161z" />
    <glyph glyph-name="onequarter.alt" horiz-adv-x="675" 
d="M47 337v57h81v239l-75 -31l-7 62l99 40h51v-310h72v-57h-221zM339 363l165 337h60l-185 -363l-166 -337h-60zM607 -1h-61v73h-147l-3 59l131 236h80v-239h38v-56h-38v-73zM548 289h-4l-90 -161h94v161z" />
    <glyph glyph-name="threequarters" unicode="&#xbe;" horiz-adv-x="675" 
d="M609 -1h-61v73h-147l-3 59l131 236h80v-239h38v-56h-38v-73zM550 289h-4l-90 -161h94v161zM335 363l165 337h60l-185 -363l-166 -337h-60zM140 330q-35 0 -62 12.5t-47 29.5l32 51q14 -12 32.5 -22t43.5 -10q24 0 39.5 14t15.5 40q0 51 -82 53h-16l-5 44l85 97h-128v61
h210v-50l-92 -102q42 -7 69 -30.5t27 -71.5q0 -54 -34 -85t-88 -31z" />
    <glyph glyph-name="onefifth" unicode="&#x2155;" horiz-adv-x="620" 
d="M459 -7q-57 0 -108 42l32 52q17 -14 35 -23.5t39 -9.5q29 0 43 17.5t14 44.5q0 28 -15 41t-41 13q-15 0 -27.5 -3.5t-23.5 -8.5l-40 21l14 185h184v-62h-129l-7 -80q10 3 20.5 5t23.5 2q46 0 77.5 -27t31.5 -84q0 -58 -34 -91.5t-89 -33.5zM105 337v294l-64 -29l-8 63
l90 38h51v-366h-69zM260 363l165 337h60l-185 -363l-166 -337h-60z" />
    <glyph glyph-name="onefifth.alt" horiz-adv-x="675" 
d="M44 337v57h81v239l-75 -31l-7 62l99 40h51v-310h72v-57h-221zM521 -7q-57 0 -108 42l32 52q17 -14 35 -23.5t39 -9.5q29 0 43 17.5t14 44.5q0 28 -15 41t-41 13q-15 0 -27.5 -3.5t-23.5 -8.5l-40 21l14 185h184v-62h-129l-7 -80q10 3 20.5 5t23.5 2q46 0 77.5 -27
t31.5 -84q0 -58 -34 -91.5t-89 -33.5zM329 363l165 337h60l-185 -363l-166 -337h-60z" />
    <glyph glyph-name="twofifths" unicode="&#x2156;" horiz-adv-x="675" 
d="M524 -7q-57 0 -108 42l32 52q17 -14 35 -23.5t39 -9.5q29 0 43 17.5t14 44.5q0 28 -15 41t-41 13q-15 0 -27.5 -3.5t-23.5 -8.5l-40 21l14 185h184v-62h-129l-7 -80q10 3 20.5 5t23.5 2q46 0 77.5 -27t31.5 -84q0 -58 -34 -91.5t-89 -33.5zM326 363l165 337h60l-185 -363
l-166 -337h-60zM34 392l106 124q23 29 35 46t12 37q0 21 -13.5 33t-32.5 12q-22 0 -38.5 -12t-34.5 -29l-36 46q26 29 53 43.5t62 14.5q48 0 78.5 -27t30.5 -73q0 -29 -12 -53.5t-42 -59.5l-83 -95h138v-62h-223v55z" />
    <glyph glyph-name="threefifths" unicode="&#x2157;" horiz-adv-x="675" 
d="M524 -7q-57 0 -108 42l32 52q17 -14 35 -23.5t39 -9.5q29 0 43 17.5t14 44.5q0 28 -15 41t-41 13q-15 0 -27.5 -3.5t-23.5 -8.5l-40 21l14 185h184v-62h-129l-7 -80q10 3 20.5 5t23.5 2q46 0 77.5 -27t31.5 -84q0 -58 -34 -91.5t-89 -33.5zM315 363l165 337h60l-185 -363
l-166 -337h-60zM138 330q-35 0 -62 12.5t-47 29.5l32 51q14 -12 32.5 -22t43.5 -10q24 0 39.5 14t15.5 40q0 51 -82 53h-16l-5 44l85 97h-128v61h210v-50l-92 -102q42 -7 69 -30.5t27 -71.5q0 -54 -34 -85t-88 -31z" />
    <glyph glyph-name="fourfifths" unicode="&#x2158;" horiz-adv-x="675" 
d="M232 336h-61v73h-147l-3 58l131 236h80v-239h38v-55h-38v-73zM173 626h-4l-90 -162h94v162zM524 -7q-57 0 -108 42l32 52q17 -14 35 -23.5t39 -9.5q29 0 43 17.5t14 44.5q0 28 -15 41t-41 13q-15 0 -27.5 -3.5t-23.5 -8.5l-40 21l14 185h184v-62h-129l-7 -80q10 3 20.5 5
t23.5 2q46 0 77.5 -27t31.5 -84q0 -58 -34 -91.5t-89 -33.5zM322 363l165 337h60l-185 -363l-166 -337h-60z" />
    <glyph glyph-name="onesixth" unicode="&#x2159;" horiz-adv-x="620" 
d="M465 -7q-23 0 -42 7.5t-33 21.5q-20 20 -31 52t-11 89v9q0 102 37.5 150t96.5 48q26 0 47.5 -7.5t39.5 -19.5l-28 -54q-8 6 -24 13.5t-35 7.5q-29 0 -48.5 -23.5t-21.5 -76.5q25 27 68 27q19 0 37 -6.5t31.5 -20.5t22 -36t8.5 -53q0 -60 -33 -94t-81 -34zM267 363
l165 337h60l-185 -363l-166 -337h-60zM105 337v294l-64 -29l-8 63l90 38h51v-366h-69zM465 52q24 0 38 17.5t14 49.5q0 31 -14 46.5t-37 15.5q-22 0 -37 -15.5t-15 -46.5q0 -32 14 -49.5t37 -17.5z" />
    <glyph glyph-name="onesixth.alt" horiz-adv-x="675" 
d="M532 -7q-23 0 -42 7.5t-33 21.5q-20 20 -31 52t-11 89v9q0 102 37.5 150t96.5 48q26 0 47.5 -7.5t39.5 -19.5l-28 -54q-8 6 -24 13.5t-35 7.5q-29 0 -48.5 -23.5t-21.5 -76.5q25 27 68 27q19 0 37 -6.5t31.5 -20.5t22 -36t8.5 -53q0 -60 -33 -94t-81 -34zM332 363
l165 337h60l-185 -363l-166 -337h-60zM44 337v57h81v239l-75 -31l-7 62l99 40h51v-310h72v-57h-221zM532 52q24 0 38 17.5t14 49.5q0 31 -14 46.5t-37 15.5q-22 0 -37 -15.5t-15 -46.5q0 -32 14 -49.5t37 -17.5z" />
    <glyph glyph-name="fivesixths" unicode="&#x215a;" horiz-adv-x="675" 
d="M527 -7q-23 0 -42 7.5t-33 21.5q-20 20 -31 52t-11 89v9q0 102 37.5 150t96.5 48q26 0 47.5 -7.5t39.5 -19.5l-28 -54q-8 6 -24 13.5t-35 7.5q-29 0 -48.5 -23.5t-21.5 -76.5q25 27 68 27q19 0 37 -6.5t31.5 -20.5t22 -36t8.5 -53q0 -60 -33 -94t-81 -34zM139 330
q-29 0 -55.5 9.5t-52.5 31.5l32 53q17 -14 35 -23.5t39 -9.5q29 0 43 17.5t14 43.5q0 28 -15 41.5t-41 13.5q-15 0 -27.5 -3.5t-23.5 -8.5l-40 20l14 185h184v-62h-129l-7 -79q10 2 20.5 4.5t23.5 2.5q46 0 77.5 -27.5t31.5 -83.5q0 -58 -34 -91.5t-89 -33.5zM317 363
l165 337h60l-185 -363l-166 -337h-60zM527 52q24 0 38 17.5t14 49.5q0 31 -14 46.5t-37 15.5q-22 0 -37 -15.5t-15 -46.5q0 -32 14 -49.5t37 -17.5z" />
    <glyph glyph-name="oneeighth" unicode="&#x215b;" horiz-adv-x="620" 
d="M465 -7q-53 0 -86 29t-33 78q0 32 15.5 55t38.5 35q-20 12 -32.5 32t-12.5 49q0 45 31 72t79 27t79.5 -27t31.5 -72q0 -29 -13 -49t-33 -32q23 -12 38.5 -35t15.5 -55q0 -49 -33 -78t-86 -29zM465 318q-21 0 -34.5 -14t-13.5 -37t13.5 -37.5t34.5 -14.5q22 0 35 14.5
t13 37.5t-13 37t-35 14zM465 161q-23 0 -38.5 -15.5t-15.5 -42.5q0 -26 15 -41.5t39 -15.5q25 0 40 15.5t15 41.5q0 27 -16 42.5t-39 15.5zM105 337v294l-64 -29l-8 63l90 38h51v-366h-69zM262 363l165 337h60l-185 -363l-166 -337h-60z" />
    <glyph glyph-name="oneeighth.alt" horiz-adv-x="675" 
d="M42 337v57h81v239l-75 -31l-7 62l99 40h51v-310h72v-57h-221zM532 -7q-53 0 -86 29t-33 78q0 32 15.5 55t38.5 35q-20 12 -32.5 32t-12.5 49q0 45 31 72t79 27t79.5 -27t31.5 -72q0 -29 -13 -49t-33 -32q23 -12 38.5 -35t15.5 -55q0 -49 -33 -78t-86 -29zM532 318
q-21 0 -34.5 -14t-13.5 -37t13.5 -37.5t34.5 -14.5q22 0 35 14.5t13 37.5t-13 37t-35 14zM532 161q-23 0 -38.5 -15.5t-15.5 -42.5q0 -26 15 -41.5t39 -15.5q25 0 40 15.5t15 41.5q0 27 -16 42.5t-39 15.5zM330 363l165 337h60l-185 -363l-166 -337h-60z" />
    <glyph glyph-name="threeeighths" unicode="&#x215c;" horiz-adv-x="675" 
d="M530 -7q-53 0 -86 29t-33 78q0 32 15.5 55t38.5 35q-20 12 -32.5 32t-12.5 49q0 45 31 72t79 27t79.5 -27t31.5 -72q0 -29 -13 -49t-33 -32q23 -12 38.5 -35t15.5 -55q0 -49 -33 -78t-86 -29zM530 318q-21 0 -34.5 -14t-13.5 -37t13.5 -37.5t34.5 -14.5q22 0 35 14.5
t13 37.5t-13 37t-35 14zM530 161q-23 0 -38.5 -15.5t-15.5 -42.5q0 -26 15 -41.5t39 -15.5q25 0 40 15.5t15 41.5q0 27 -16 42.5t-39 15.5zM317 363l165 337h60l-185 -363l-166 -337h-60zM139 330q-35 0 -62 12.5t-47 29.5l32 51q14 -12 32.5 -22t43.5 -10q24 0 39.5 14
t15.5 40q0 51 -82 53h-16l-5 44l85 97h-128v61h210v-50l-92 -102q42 -7 69 -30.5t27 -71.5q0 -54 -34 -85t-88 -31z" />
    <glyph glyph-name="fiveeighths" unicode="&#x215d;" horiz-adv-x="675" 
d="M530 -7q-53 0 -86 29t-33 78q0 32 15.5 55t38.5 35q-20 12 -32.5 32t-12.5 49q0 45 31 72t79 27t79.5 -27t31.5 -72q0 -29 -13 -49t-33 -32q23 -12 38.5 -35t15.5 -55q0 -49 -33 -78t-86 -29zM530 318q-21 0 -34.5 -14t-13.5 -37t13.5 -37.5t34.5 -14.5q22 0 35 14.5
t13 37.5t-13 37t-35 14zM530 161q-23 0 -38.5 -15.5t-15.5 -42.5q0 -26 15 -41.5t39 -15.5q25 0 40 15.5t15 41.5q0 27 -16 42.5t-39 15.5zM317 363l165 337h60l-185 -363l-166 -337h-60zM139 330q-29 0 -55.5 9.5t-52.5 31.5l32 53q17 -14 35 -23.5t39 -9.5q29 0 43 17.5
t14 43.5q0 28 -15 41.5t-41 13.5q-15 0 -27.5 -3.5t-23.5 -8.5l-40 20l14 185h184v-62h-129l-7 -79q10 2 20.5 4.5t23.5 2.5q46 0 77.5 -27.5t31.5 -83.5q0 -58 -34 -91.5t-89 -33.5z" />
    <glyph glyph-name="seveneighths" unicode="&#x215e;" horiz-adv-x="675" 
d="M514 -7q-53 0 -86 29t-33 78q0 32 15.5 55t38.5 35q-20 12 -32.5 32t-12.5 49q0 45 31 72t79 27t79.5 -27t31.5 -72q0 -29 -13 -49t-33 -32q23 -12 38.5 -35t15.5 -55q0 -49 -33 -78t-86 -29zM514 318q-21 0 -34.5 -14t-13.5 -37t13.5 -37.5t34.5 -14.5q22 0 35 14.5
t13 37.5t-13 37t-35 14zM514 161q-23 0 -38.5 -15.5t-15.5 -42.5q0 -26 15 -41.5t39 -15.5q25 0 40 15.5t15 41.5q0 27 -16 42.5t-39 15.5zM69 336l125 300h-146v64h219v-50l-126 -314h-72zM284 363l165 337h60l-185 -363l-166 -337h-60z" />
    <glyph glyph-name="zero.sup" unicode="&#x2070;" 
d="M149 440q-57 0 -88 46t-31 137v10q0 91 31.5 137.5t88.5 46.5t88.5 -46t31.5 -137v-10q0 -91 -32 -137.5t-89 -46.5zM149 755q-25 0 -38.5 -28t-13.5 -94v-8q0 -66 14 -94.5t39 -28.5q24 0 38 28.5t14 94.5v8q0 66 -14 94t-39 28z" />
    <glyph glyph-name="one.sup" unicode="&#xb9;" horiz-adv-x="244" 
d="M103 447v294l-64 -29l-8 63l90 39h51v-367h-69z" />
    <glyph glyph-name="one.sup_alt" 
d="M49 447v58h81v238l-75 -31l-7 62l99 41h51v-310h72v-58h-221z" />
    <glyph glyph-name="two.sup" unicode="&#xb2;" 
d="M38 502l106 125q23 28 35 45.5t12 37.5t-13.5 32t-32.5 12q-22 0 -38.5 -12t-34.5 -29l-36 47q26 28 53 42.5t62 14.5q48 0 78.5 -26.5t30.5 -73.5q0 -29 -12 -53.5t-42 -59.5l-83 -95h138v-62h-223v55z" />
    <glyph glyph-name="three.sup" unicode="&#xb3;" 
d="M139 440q-35 0 -62 12.5t-47 29.5l32 51q14 -11 32.5 -21.5t43.5 -10.5q24 0 39.5 14t15.5 40q0 51 -82 53h-16l-5 44l85 97h-128v62h210v-51l-92 -102q42 -7 69 -30.5t27 -71.5q0 -53 -34 -84.5t-88 -31.5z" />
    <glyph glyph-name="four.sup" unicode="&#x2074;" 
d="M239 446h-61v73h-147l-3 59l131 236h80v-239h38v-56h-38v-73zM180 736h-4l-90 -161h94v161z" />
    <glyph glyph-name="five.sup" unicode="&#x2075;" 
d="M139 440q-57 0 -108 42l32 52q17 -14 35 -23.5t39 -9.5q29 0 43 17.5t14 44.5q0 28 -15 41t-41 13q-15 0 -27.5 -3.5t-23.5 -8.5l-40 21l14 185h184v-62h-129l-7 -80q10 3 20.5 5t23.5 2q46 0 77.5 -27t31.5 -84q0 -58 -34 -91.5t-89 -33.5z" />
    <glyph glyph-name="six.sup" unicode="&#x2076;" 
d="M151 440q-23 0 -42 7.5t-33 21.5q-20 20 -31 52t-11 89v9q0 102 37.5 150t96.5 48q26 0 47.5 -7.5t39.5 -19.5l-28 -54q-8 6 -24 13.5t-35 7.5q-29 0 -48.5 -23.5t-21.5 -76.5q25 27 68 27q19 0 37 -6.5t31.5 -20.5t22 -36t8.5 -53q0 -60 -33 -94t-81 -34zM151 499
q24 0 38 17.5t14 49.5q0 31 -14 46.5t-37 15.5q-22 0 -37 -15.5t-15 -46.5q0 -32 14 -49.5t37 -17.5z" />
    <glyph glyph-name="seven.sup" unicode="&#x2077;" 
d="M62 446l125 301h-146v64h219v-50l-126 -315h-72z" />
    <glyph glyph-name="eight.sup" unicode="&#x2078;" 
d="M150 440q-53 0 -86 29t-33 78q0 32 15.5 55t38.5 35q-20 12 -32.5 32t-12.5 49q0 45 31 72t79 27t79.5 -27t31.5 -72q0 -29 -13 -49t-33 -32q23 -12 38.5 -35t15.5 -55q0 -49 -33 -78t-86 -29zM150 765q-21 0 -34.5 -14t-13.5 -37t13.5 -37.5t34.5 -14.5q22 0 35 14.5
t13 37.5t-13 37t-35 14zM150 608q-23 0 -38.5 -15.5t-15.5 -42.5q0 -26 15 -41.5t39 -15.5q25 0 40 15.5t15 41.5q0 27 -16 42.5t-39 15.5z" />
    <glyph glyph-name="nine.sup" unicode="&#x2079;" 
d="M149 817q46 0 75 -29q20 -19 31 -51t11 -89v-9q0 -103 -37 -151t-97 -48q-26 0 -48.5 8t-41.5 22l25 55q12 -9 29.5 -16.5t36.5 -7.5q29 0 47.5 23t20.5 72q-23 -26 -66 -26q-19 0 -37 6.5t-32 20.5t-22.5 36.5t-8.5 54.5q0 60 33 94.5t81 34.5zM149 626q21 0 36 15.5
t15 49.5q0 32 -14 49.5t-37 17.5q-24 0 -37.5 -17.5t-13.5 -50.5q0 -32 14 -48t37 -16z" />
    <glyph glyph-name="zero.inf" unicode="&#x2080;" 
d="M149 -139q-57 0 -88 46t-31 137v10q0 91 31.5 137.5t88.5 46.5t88.5 -46t31.5 -137v-10q0 -91 -32 -137.5t-89 -46.5zM149 176q-25 0 -38.5 -28t-13.5 -94v-8q0 -66 14 -94.5t39 -28.5q24 0 38 28.5t14 94.5v8q0 66 -14 94t-39 28z" />
    <glyph glyph-name="one.inf" unicode="&#x2081;" horiz-adv-x="244" 
d="M103 -132v294l-64 -29l-8 63l90 39h51v-367h-69z" />
    <glyph glyph-name="one.inf_alt" 
d="M49 -132v58h81v238l-75 -31l-7 62l99 41h51v-310h72v-58h-221z" />
    <glyph glyph-name="two.inf" unicode="&#x2082;" 
d="M38 -77l106 125q23 28 35 45.5t12 37.5t-13.5 32t-32.5 12q-22 0 -38.5 -12t-34.5 -29l-36 47q26 28 53 42.5t62 14.5q48 0 78.5 -26.5t30.5 -73.5q0 -29 -12 -53.5t-42 -59.5l-83 -95h138v-62h-223v55z" />
    <glyph glyph-name="three.inf" unicode="&#x2083;" 
d="M139 -139q-35 0 -62 12.5t-47 29.5l32 51q14 -11 32.5 -21.5t43.5 -10.5q24 0 39.5 14t15.5 40q0 51 -82 53h-16l-5 44l85 97h-128v62h210v-51l-92 -102q42 -7 69 -30.5t27 -71.5q0 -53 -34 -84.5t-88 -31.5z" />
    <glyph glyph-name="four.inf" unicode="&#x2084;" 
d="M239 -133h-61v73h-147l-3 59l131 236h80v-239h38v-56h-38v-73zM180 157h-4l-90 -161h94v161z" />
    <glyph glyph-name="five.inf" unicode="&#x2085;" 
d="M139 -139q-57 0 -108 42l32 52q17 -14 35 -23.5t39 -9.5q29 0 43 17.5t14 44.5q0 28 -15 41t-41 13q-15 0 -27.5 -3.5t-23.5 -8.5l-40 21l14 185h184v-62h-129l-7 -80q10 3 20.5 5t23.5 2q46 0 77.5 -27t31.5 -84q0 -58 -34 -91.5t-89 -33.5z" />
    <glyph glyph-name="six.inf" unicode="&#x2086;" 
d="M151 -139q-23 0 -42 7.5t-33 21.5q-20 20 -31 52t-11 89v9q0 102 37.5 150t96.5 48q26 0 47.5 -7.5t39.5 -19.5l-28 -54q-8 6 -24 13.5t-35 7.5q-29 0 -48.5 -23.5t-21.5 -76.5q25 27 68 27q19 0 37 -6.5t31.5 -20.5t22 -36t8.5 -53q0 -60 -33 -94t-81 -34zM151 -80
q24 0 38 17.5t14 49.5q0 31 -14 46.5t-37 15.5q-22 0 -37 -15.5t-15 -46.5q0 -32 14 -49.5t37 -17.5z" />
    <glyph glyph-name="seven.inf" unicode="&#x2087;" 
d="M62 -133l125 301h-146v64h219v-50l-126 -315h-72z" />
    <glyph glyph-name="eight.inf" unicode="&#x2088;" 
d="M150 -139q-53 0 -86 29t-33 78q0 32 15.5 55t38.5 35q-20 12 -32.5 32t-12.5 49q0 45 31 72t79 27t79.5 -27t31.5 -72q0 -29 -13 -49t-33 -32q23 -12 38.5 -35t15.5 -55q0 -49 -33 -78t-86 -29zM150 186q-21 0 -34.5 -14t-13.5 -37t13.5 -37.5t34.5 -14.5q22 0 35 14.5
t13 37.5t-13 37t-35 14zM150 29q-23 0 -38.5 -15.5t-15.5 -42.5q0 -26 15 -41.5t39 -15.5q25 0 40 15.5t15 41.5q0 27 -16 42.5t-39 15.5z" />
    <glyph glyph-name="nine.inf" unicode="&#x2089;" 
d="M149 238q46 0 75 -29q20 -19 31 -51t11 -89v-9q0 -103 -37 -151t-97 -48q-26 0 -48.5 8t-41.5 22l25 55q12 -9 29.5 -16.5t36.5 -7.5q29 0 47.5 23t20.5 72q-23 -26 -66 -26q-19 0 -37 6.5t-32 20.5t-22.5 36.5t-8.5 54.5q0 60 33 94.5t81 34.5zM149 47q21 0 36 15.5
t15 49.5q0 32 -14 49.5t-37 17.5q-24 0 -37.5 -17.5t-13.5 -50.5q0 -32 14 -48t37 -16z" />
    <glyph glyph-name="zero.tab" horiz-adv-x="450" 
d="M225 -10q-94 0 -144 85t-50 262v24q0 178 50 263.5t144 85.5q93 0 143.5 -85t50.5 -262v-24q0 -178 -50.5 -263.5t-143.5 -85.5zM225 614q-21 0 -38 -13t-29 -43t-18 -78t-6 -118v-23q0 -70 6 -118.5t18 -78.5t29 -43t38 -13t38 13t28.5 43t17.5 78t6 118v23
q0 70 -6 118.5t-18 78.5t-28.5 43t-37.5 13z" />
    <glyph glyph-name="one.tab" horiz-adv-x="450" 
d="M52 0v90h144v498l-133 -60l-10 101l172 75h76v-614h122v-90h-371z" />
    <glyph glyph-name="two.tab" horiz-adv-x="450" 
d="M37 0v87l182 258q22 32 37.5 57t25 45.5t13.5 38t4 34.5q0 45 -25.5 66.5t-57.5 21.5q-39 0 -68 -23.5t-52 -52.5l-66 68q80 110 196 110q40 0 73.5 -12.5t57.5 -36t37.5 -56.5t13.5 -74v-3q0 -28 -5.5 -52.5t-17 -49.5t-29 -53.5t-41.5 -63.5l-146 -207h240v-102h-372z
" />
    <glyph glyph-name="three.tab" horiz-adv-x="450" 
d="M198 -10q-54 0 -98 19t-78 52l54 82q9 -9 21 -18.5t26.5 -17.5t32 -13t39.5 -5q47 0 77 31t30 85v3q0 56 -39 86t-116 30h-15l-9 69l152 206h-226v101h352v-90l-161 -207q33 -6 63.5 -20.5t54 -38t37.5 -57t14 -76.5v-4q0 -50 -16 -90t-44.5 -68.5t-67 -43.5t-83.5 -15z
" />
    <glyph glyph-name="three.tab_alt" horiz-adv-x="450" 
d="M203 -10q-51 0 -96.5 17t-84.5 53l53 82q24 -23 55.5 -38.5t67.5 -15.5q48 0 77.5 30t29.5 82q0 51 -38.5 82.5t-110.5 31.5h-25v89h26q65 0 103.5 33t38.5 84q0 45 -28 69.5t-70 22.5q-38 -1 -66 -18t-48 -37l-55 74q38 38 84 58.5t99 20.5q40 0 74.5 -12t60 -35
t40 -55.5t14.5 -74.5q0 -33 -9 -59.5t-24.5 -47t-36 -35.5t-42.5 -25q52 -19 86 -61t34 -111q0 -45 -15.5 -82.5t-43 -64.5t-66 -42t-84.5 -15z" />
    <glyph glyph-name="four.tab" horiz-adv-x="450" 
d="M270 144h-239l-9 90l221 470h124v-470h64v-90h-64v-144h-97v144zM271 551h-5l-154 -318h159v318z" />
    <glyph glyph-name="five.tab" horiz-adv-x="450" 
d="M199 -10q-46 0 -90.5 17t-77.5 49l50 84q26 -23 54 -37.5t62 -14.5q51 0 80 36.5t29 97.5q0 60 -29.5 89.5t-75.5 29.5q-29 0 -49.5 -8t-36.5 -19l-59 39l20 347h307v-98h-223l-11 -183q14 7 34 12t45 5q36 0 69 -11.5t58.5 -36.5t40.5 -64.5t15 -95.5v-3
q0 -54 -16.5 -97.5t-45 -74t-67 -47t-83.5 -16.5z" />
    <glyph glyph-name="six.tab" horiz-adv-x="450" 
d="M233 -10q-79 0 -124 47q-18 18 -32 42.5t-23.5 58.5t-14.5 78t-5 101v16q0 99 16 170.5t45.5 117.5t71.5 67.5t95 21.5q37 0 70 -10t68 -33l-45 -90q-17 14 -40.5 25t-53.5 11q-58 0 -91 -56.5t-36 -161.5q20 24 50.5 40t70.5 16q34 0 64.5 -12.5t54 -38.5t37 -66.5
t13.5 -95.5v-10q0 -54 -14 -97.5t-39.5 -75t-60.5 -48.5t-77 -17zM231 83q46 0 69.5 38.5t23.5 101.5v3q0 66 -24.5 100.5t-68.5 34.5q-43 0 -68 -36t-25 -99v-3q0 -63 23.5 -101.5t69.5 -38.5z" />
    <glyph glyph-name="seven.tab" horiz-adv-x="450" 
d="M43 597v103h366v-81l-216 -619h-112l215 597h-253z" />
    <glyph glyph-name="eight.tab" horiz-adv-x="450" 
d="M225 -10q-43 0 -78.5 14t-61 40t-39.5 62.5t-14 81.5v6q0 63 27 104.5t69 63.5q-37 22 -59.5 60t-22.5 96v4q0 42 13 76.5t37 59t57 38.5t72 14t72 -14t57 -38.5t37 -59t13 -76.5v-4q0 -58 -22.5 -96t-58.5 -60q42 -22 68.5 -63.5t26.5 -104.5v-6q0 -45 -14 -81.5
t-39.5 -62.5t-61 -40t-78.5 -14zM225 78q42 0 66.5 31.5t24.5 86.5v3q0 56 -26 87.5t-65 31.5t-65 -31.5t-26 -87.5v-3q0 -55 24.5 -86.5t66.5 -31.5zM225 402q36 0 58.5 30.5t22.5 80.5v3q0 51 -22.5 79t-58.5 28t-58.5 -28t-22.5 -79v-3q0 -50 22.5 -80.5t58.5 -30.5z" />
    <glyph glyph-name="nine.tab" horiz-adv-x="450" 
d="M189 -10q-75 0 -148 47l45 89q26 -18 50.5 -28t53.5 -10q57 0 90 55t36 155q-20 -24 -50 -40t-69 -16q-35 0 -65.5 12.5t-54 39t-37 67t-13.5 97.5v11q0 54 14 98.5t39.5 76t60.5 49t77 17.5t72.5 -12.5t52.5 -35.5q18 -18 32 -42t23 -57.5t14 -78t5 -101.5v-16
q0 -99 -16 -170.5t-45.5 -117.5t-71.5 -67.5t-95 -21.5zM220 331q43 0 68.5 37t25.5 103v3q0 65 -24 104t-70 39q-45 0 -69 -39.5t-24 -104.5v-3q0 -67 24.5 -103t68.5 -36z" />
    <glyph glyph-name="period.tab" horiz-adv-x="225" 
d="M53 136h119v-136h-119v136z" />
    <glyph glyph-name="comma.tab" horiz-adv-x="225" 
d="M27 -98q45 10 62 36.5t13 61.5h-49v136h119v-115q0 -75 -33 -114t-100 -50z" />
    <glyph glyph-name="colon.tab" horiz-adv-x="225" 
d="M53 531h118v-135h-118v135zM53 135h118v-135h-118v135z" />
    <glyph glyph-name="semicolon.tab" horiz-adv-x="225" 
d="M53 531h118v-135h-118v135zM27 -98q45 10 62 36.5t13 61.5h-49v135h118v-114q0 -75 -32.5 -114t-99.5 -50z" />
    <glyph glyph-name="twodotleader.tab" horiz-adv-x="450" 
d="M280 131h114v-131h-114v131zM56 131h114v-131h-114v131z" />
    <glyph glyph-name="periodcentered.tab" horiz-adv-x="225" 
d="M53 374h119v-136h-119v136z" />
    <glyph glyph-name="slash.tab" horiz-adv-x="450" 
d="M91 -110h-91l348 890h90z" />
    <glyph glyph-name="bar.tab" horiz-adv-x="225" 
d="M70 780h84v-890h-84v890z" />
    <glyph glyph-name="underscore.tab" horiz-adv-x="450" 
d="M-1 -73h452v-83h-452v83z" />
    <glyph glyph-name="dollar.tab" horiz-adv-x="450" 
d="M295 698q31 -7 61 -21.5t58 -40.5l-57 -82q-17 14 -35 26t-39 20l-16 -205q39 -24 67.5 -47t47 -47t27 -51t8.5 -61v-1q0 -41 -13.5 -75t-38 -59t-58.5 -40t-74 -17l-11 -110h-72l10 115q-37 8 -73 26.5t-68 50.5l57 82q20 -20 44 -36t50 -25l18 214q-38 23 -65.5 45
t-45 46t-25.5 51.5t-8 60.5v1q0 39 13 72t36.5 57.5t56.5 39t73 16.5l7 75h72zM312 184q0 26 -12 47t-45 44l-15 -182q36 6 54 31t18 59v1zM148 525q0 -28 12 -47t42 -41l14 169q-32 -5 -50 -26.5t-18 -53.5v-1z" />
    <glyph glyph-name="sterling.tab" horiz-adv-x="450" 
d="M98 495q0 56 13.5 97t43.5 71q22 21 53.5 33.5t69.5 12.5q51 0 87.5 -19.5t64.5 -49.5l-63 -77q-17 17 -37 30.5t-46 13.5q-13 0 -26 -4t-24 -15q-15 -15 -21 -38t-6 -55v-113h156v-93h-156v-193h214v-96h-382v68l59 23v198h-58v93h58v113z" />
    <glyph glyph-name="Euro.tab" horiz-adv-x="450" 
d="M22 472h65q20 117 76.5 177t137.5 60q36 0 68.5 -12.5t64.5 -41.5l-51 -82q-14 14 -33 25.5t-45 11.5q-39 0 -67.5 -33t-42.5 -105h139v-75h-148q-1 -9 -1 -18.5v-19.5v-17v-34h149v-76h-142q13 -74 43 -108t68 -34q26 0 44 11.5t35 28.5l52 -79q-32 -30 -65 -45t-71 -15
q-81 0 -137.5 60.5t-74.5 180.5h-64v76h57v33v17v39h-57v75z" />
    <glyph glyph-name="yen.tab" horiz-adv-x="450" 
d="M174 183v77h-115v78h95l-145 362h112l105 -300l106 300h109l-146 -362h96v-78h-115v-77h115v-77h-115v-106h-102v106h-115v77h115z" />
    <glyph glyph-name="cent.tab" horiz-adv-x="450" 
d="M310 621q30 -6 55.5 -20t48.5 -36l-50 -78q-14 14 -29.5 24t-33.5 15l-26 -351q29 2 51 16t39 33l49 -76q-29 -29 -65 -47t-80 -21l-7 -86h-74l8 94q-68 20 -109 84.5t-41 168.5v17q0 58 14 105t39 81t59.5 54.5t76.5 25.5l7 81h74zM148 345q0 -57 15.5 -95t41.5 -57
l24 332q-37 -14 -59 -55.5t-22 -113.5v-11z" />
    <glyph glyph-name="numbersign.tab" horiz-adv-x="450" 
d="M90 258l17 187h-64v92h73l15 163h75l-16 -163h101l15 163h75l-15 -163h64v-92h-73l-17 -187h66v-92h-74l-15 -166h-75l15 166h-100l-15 -166h-75l15 166h-62v92h70zM164 257h103l17 189h-103z" />
    <glyph glyph-name="paragraph.tab" horiz-adv-x="450" 
d="M274 238h-16q-48 2 -89 17t-71.5 44t-48 71.5t-17.5 98.5v1q0 57 18 100.5t50 72t76 43t97 14.5h110v-700h-109v238z" />
    <glyph glyph-name="section.tab" horiz-adv-x="450" 
d="M216 -8q-40 0 -76.5 13.5t-68.5 38.5l45 74q15 -13 42 -26t57 -13q27 0 42 13.5t15 35.5q0 24 -23.5 42t-75.5 41q-37 16 -64 31t-45 31.5t-26.5 36.5t-8.5 46v2q0 40 25 72t74 46q-23 21 -35.5 44t-12.5 52v1q0 30 11.5 55t31.5 43t48.5 27.5t62.5 9.5q40 0 76.5 -13.5
t69.5 -38.5l-45 -74q-16 13 -43 26t-56 13q-27 0 -42 -13.5t-15 -35.5q0 -24 23 -42t76 -41q37 -16 64 -31t45 -31.5t26.5 -36.5t8.5 -46v-2q0 -40 -25.5 -72t-73.5 -46q23 -21 35 -44t12 -52v-1q0 -61 -42.5 -98t-111.5 -37zM185 427q-26 0 -45.5 -16.5t-19.5 -41.5v-2
q0 -25 21 -41.5t63 -34.5q23 -11 36 -14.5t26 -3.5q26 0 45.5 16.5t19.5 41.5v2q0 25 -21 41.5t-63 34.5q-23 11 -36 14.5t-26 3.5z" />
    <glyph glyph-name="degree.tab" horiz-adv-x="450" 
d="M224 307q-34 0 -63 14.5t-50.5 40.5t-34 62t-12.5 79v8q0 43 12.5 79t34.5 62t51.5 40.5t63.5 14.5t63 -14.5t50.5 -40.5t34 -62t12.5 -79v-8q0 -43 -12.5 -79t-34.5 -62t-51.5 -40.5t-63.5 -14.5zM225 377q40 0 64 34.5t24 91.5v8q0 57 -24 91.5t-64 34.5t-63.5 -34.5
t-23.5 -91.5v-8q0 -57 23.5 -91.5t63.5 -34.5z" />
    <glyph glyph-name="percent.tab" horiz-adv-x="450" 
d="M122 706q51 0 78 -45.5t27 -126.5v-19q0 -78 -27 -125t-78 -47t-78 45t-27 126v20q0 81 27 126.5t78 45.5zM328 357q51 0 78 -45t27 -126v-20q0 -81 -27 -126.5t-78 -45.5t-78 45.5t-27 126.5v19q0 78 27 125t78 47zM407 700l-165 -359l-141 -341h-58l165 359l141 341h58
zM327 295q-20 0 -30 -26t-10 -82v-23q0 -108 40 -108q41 0 41 108v23q0 56 -10.5 82t-30.5 26zM123 644q-41 0 -41 -108v-23q0 -56 10.5 -82t30.5 -26t30 26t10 82v23q0 108 -40 108z" />
    <glyph glyph-name="quotedbl.tab" horiz-adv-x="450" 
d="M283 700h115l-1 -8l-88 -289h-47zM97 700h115v-8l-89 -289h-47z" />
    <glyph glyph-name="quotesingle.tab" horiz-adv-x="225" 
d="M80 700h114v-8l-88 -289h-48z" />
    <glyph glyph-name="plus.tab" horiz-adv-x="450" 
d="M272 305v-146h-94v146h-140v94h140v146h94v-146h140v-94h-140z" />
    <glyph glyph-name="minus.tab" horiz-adv-x="450" 
d="M39 301v102h372v-102h-372z" />
    <glyph glyph-name="divide.tab" horiz-adv-x="450" 
d="M171 580h108v-110h-108v110zM39 305v95h372v-95h-372zM171 234h108v-110h-108v110z" />
    <glyph glyph-name="equal.tab" horiz-adv-x="450" 
d="M46 403v99h358v-99h-358zM46 202v99h358v-99h-358z" />
    <glyph glyph-name="multiply.tab" horiz-adv-x="450" 
d="M224 284l-113 -122l-70 62l121 128l-121 127l70 63l115 -122l114 122l69 -62l-121 -128l121 -127l-71 -63z" />
    <glyph glyph-name="less.tab" horiz-adv-x="450" 
d="M46 305v94l348 194v-112l-242 -128l242 -128v-114z" />
    <glyph glyph-name="greater.tab" horiz-adv-x="450" 
d="M56 111v113l242 127l-242 128v114l349 -194v-94z" />
    <glyph glyph-name="plusminus.tab" horiz-adv-x="450" 
d="M272 334v-142h-94v142h-140v94h140v144h94v-144h140v-94h-140zM39 18v92h372v-92h-372z" />
    <glyph glyph-name="C" unicode="C" horiz-adv-x="481" 
d="M291 -8q-56 0 -102.5 23t-79.5 67t-51 109.5t-18 151.5v14q0 85 20 150.5t54.5 110t81.5 67.5t102 23q52 0 90.5 -17.5t68.5 -46.5l-61 -86q-21 20 -45.5 33.5t-53.5 13.5q-31 0 -57.5 -16.5t-46.5 -48.5t-31.5 -79t-11.5 -108v-5q0 -64 12 -111.5t32 -79t46 -47
t55 -15.5q32 0 57 14t49 38l58 -83q-36 -35 -77.5 -53.5t-90.5 -18.5z" />
    <glyph glyph-name="uni00A0" unicode="&#xa0;" horiz-adv-x="189" 
 />
    <glyph glyph-name="emspace" unicode="&#x2003;" horiz-adv-x="1000" 
 />
    <glyph glyph-name="enspace" unicode="&#x2002;" horiz-adv-x="500" 
 />
    <glyph glyph-name="threeperemspace" unicode="&#x2004;" horiz-adv-x="333" 
 />
    <glyph glyph-name="fourperemspace" unicode="&#x2005;" horiz-adv-x="250" 
 />
    <glyph glyph-name="thinspace" unicode="&#x2009;" horiz-adv-x="127" 
 />
    <glyph glyph-name="hairspace" unicode="&#x200a;" horiz-adv-x="70" 
 />
    <glyph glyph-name="space.tab" horiz-adv-x="225" 
 />
    <glyph glyph-name="figurespace" unicode="&#x2007;" horiz-adv-x="450" 
 />
    <glyph glyph-name="A" unicode="A" horiz-adv-x="543" 
d="M217 703h109l201 -703h-111l-44 161h-205l-43 -161h-107zM346 257l-76 281l-77 -281h153z" />
    <glyph glyph-name="asciicircum" unicode="^" horiz-adv-x="461" 
d="M190 695h81l101 -190h-76l-66 125l-67 -125h-74z" />
    <glyph glyph-name="asciitilde" unicode="~" horiz-adv-x="400" 
d="M264 248q-21 0 -38 7t-32 16q-14 9 -25.5 14.5t-22.5 5.5q-16 0 -24.5 -11.5t-16.5 -36.5l-58 17q11 56 34.5 82t55.5 26q21 0 37.5 -7t31.5 -16q14 -8 26 -14t23 -6q30 0 44 49l55 -17q-11 -57 -34.5 -83t-55.5 -26z" />
    <glyph glyph-name="hfjslug" horiz-adv-x="694" 
d="M436 -200l-8 14h-163l-8 -14h-207v303q14 0 23 9t9 23q0 13 -9 22.5t-23 9.5v554h100l30 79h334l29 -79h101v-921h-208zM400 391h15v78h38v14h-38v66h43v14h-58v-172zM184 391h15v79h47v-79h15v172h-15v-79h-47v79h-15v-172zM460 394q10 -4 21 -4q31 0 31 36v137h-16
v-137q0 -22 -16 -22q-5 0 -10.5 1.5t-9.5 3.5v-15zM358 468q-2 -7 -4 -15t-4 -15h-1l-16 31q10 9 16.5 19.5t6.5 22.5t-6.5 21.5t-20.5 9.5q-13 0 -20.5 -9.5t-7.5 -21.5q0 -11 4 -19.5t10 -19.5q-23 -18 -23 -47q0 -17 8 -27t21 -10q19 0 29 24h1l12 -24l12 6l-17 32
q4 9 7 18.5t6 20.5zM523 277h8v12l8 8l15 -20h10l-20 26l18 20h-10l-20 -24h-1v24h-8v-46zM498 277h9l-12 17q10 4 10 14q0 15 -17 15h-20v-46h8v15h12zM426 276q11 0 17.5 7t6.5 17q0 9 -6.5 16.5t-17.5 7.5t-17.5 -7.5t-6.5 -16.5q0 -10 6.5 -17t17.5 -7zM357 323h-9
l18 -29v-17h8v17l18 29h-9l-13 -22zM193 277h34v7h-26v13h23v7h-23v12h26v7h-34v-46zM132 277h8v32l25 -32h7v46h-8v-32l-25 32h-7v-46zM255 276h8l11 34h1l11 -34h8l14 47h-8l-10 -35h-1l-11 35h-7l-11 -35h-1l-10 35h-8zM327 479l-8.5 17t-3.5 15t4 13.5t10 5.5t9.5 -5.5
t3.5 -13.5q0 -16 -15 -32zM342 423q-8 -21 -20 -21q-16 0 -16 25q0 10 4.5 19t11.5 16zM476 299v17h11q10 0 10 -8q0 -9 -10 -9h-11zM426 283q-8 0 -12 5t-4 12q0 6 4 11.5t12 5.5t12 -5.5t4 -11.5q0 -7 -4 -12t-12 -5z" />
    <glyph glyph-name="i.dot" horiz-adv-x="215" 
d="M53 712h108v-107h-108v107zM55 532h104v-532h-104v532z" />
    <glyph glyph-name="fraction" unicode="&#x2044;" horiz-adv-x="75" 
d="M18 363l165 337h60l-185 -363l-166 -337h-60z" />
    <glyph glyph-name="zero.num" 
d="M149 330q-57 0 -88 46t-31 137v10q0 91 31.5 137.5t88.5 46.5t88.5 -46t31.5 -137v-10q0 -91 -32 -137.5t-89 -46.5zM149 645q-25 0 -38.5 -28.5t-13.5 -94.5v-7q0 -66 14 -94.5t39 -28.5q24 0 38 28t14 94v8q0 66 -14 94.5t-39 28.5z" />
    <glyph glyph-name="one.num" horiz-adv-x="244" 
d="M103 337v294l-64 -29l-8 63l90 38h51v-366h-69z" />
    <glyph glyph-name="one.num_alt" 
d="M49 337v57h81v239l-75 -31l-7 62l99 40h51v-310h72v-57h-221z" />
    <glyph glyph-name="two.num" 
d="M38 392l106 124q23 29 35 46t12 37q0 21 -13.5 33t-32.5 12q-22 0 -38.5 -12t-34.5 -29l-36 46q26 29 53 43.5t62 14.5q48 0 78.5 -27t30.5 -73q0 -29 -12 -53.5t-42 -59.5l-83 -95h138v-62h-223v55z" />
    <glyph glyph-name="three.num" 
d="M139 330q-35 0 -62 12.5t-47 29.5l32 51q14 -12 32.5 -22t43.5 -10q24 0 39.5 14t15.5 40q0 51 -82 53h-16l-5 44l85 97h-128v61h210v-50l-92 -102q42 -7 69 -30.5t27 -71.5q0 -54 -34 -85t-88 -31z" />
    <glyph glyph-name="four.num" 
d="M239 336h-61v73h-147l-3 58l131 236h80v-239h38v-55h-38v-73zM180 626h-4l-90 -162h94v162z" />
    <glyph glyph-name="five.num" 
d="M139 330q-29 0 -55.5 9.5t-52.5 31.5l32 53q17 -14 35 -23.5t39 -9.5q29 0 43 17.5t14 43.5q0 28 -15 41.5t-41 13.5q-15 0 -27.5 -3.5t-23.5 -8.5l-40 20l14 185h184v-62h-129l-7 -79q10 2 20.5 4.5t23.5 2.5q46 0 77.5 -27.5t31.5 -83.5q0 -58 -34 -91.5t-89 -33.5z
" />
    <glyph glyph-name="six.num" 
d="M151 330q-23 0 -42 7.5t-33 21.5q-20 19 -31 51t-11 89v9q0 102 37.5 150.5t96.5 48.5q26 0 47.5 -8t39.5 -20l-28 -54q-8 7 -24 14t-35 7q-29 0 -48.5 -23.5t-21.5 -75.5q24 26 68 26q19 0 37 -6.5t31.5 -20.5t22 -36t8.5 -53q0 -60 -33 -93.5t-81 -33.5zM151 389
q24 0 38 17t14 49q0 31 -14 46.5t-37 15.5q-22 0 -37 -15t-15 -47q0 -31 14 -48.5t37 -17.5z" />
    <glyph glyph-name="seven.num" 
d="M62 336l125 300h-146v64h219v-50l-126 -314h-72z" />
    <glyph glyph-name="eight.num" 
d="M150 330q-53 0 -86 29t-33 77q0 33 15.5 55.5t38.5 35.5q-20 11 -33 31.5t-13 49.5q0 45 31.5 72t79.5 27t79.5 -27t31.5 -72q0 -29 -13 -49.5t-33 -31.5q23 -13 38.5 -35.5t15.5 -55.5q0 -48 -33 -77t-86 -29zM150 654q-21 0 -34.5 -13.5t-13.5 -36.5q0 -24 13.5 -38
t34.5 -14q22 0 35 14t13 38q0 23 -13 36.5t-35 13.5zM150 498q-23 0 -39 -16t-16 -42q0 -27 15 -42.5t40 -15.5t40 15.5t15 42.5q0 26 -16 42t-39 16z" />
    <glyph glyph-name="nine.num" 
d="M149 707q22 0 41.5 -7.5t33.5 -21.5q20 -19 31 -51.5t11 -89.5v-9q0 -102 -37 -150t-97 -48q-26 0 -48.5 8t-41.5 22l25 54q12 -8 29.5 -16t36.5 -8q29 0 47.5 23t20.5 73q-24 -27 -66 -27q-19 0 -37 6.5t-32 21t-22.5 36.5t-8.5 54q0 61 33 95.5t81 34.5zM149 515
q21 0 36 16t15 49q0 32 -14 50t-37 18q-24 0 -37.5 -18t-13.5 -50q0 -33 14 -49t37 -16z" />
    <glyph glyph-name="zero.den" 
d="M149 -7q-57 0 -88 46t-31 137v10q0 91 31.5 137.5t88.5 46.5t88.5 -46t31.5 -137v-10q0 -91 -32 -137.5t-89 -46.5zM149 308q-25 0 -38.5 -28t-13.5 -94v-8q0 -66 14 -94.5t39 -28.5q24 0 38 28.5t14 94.5v8q0 66 -14 94t-39 28z" />
    <glyph glyph-name="one.den" horiz-adv-x="244" 
d="M103 0v294l-64 -29l-8 63l90 39h51v-367h-69z" />
    <glyph glyph-name="one.den_alt" 
d="M49 0v58h81v238l-75 -31l-7 62l99 41h51v-310h72v-58h-221z" />
    <glyph glyph-name="two.den" 
d="M38 55l106 125q23 28 35 45.5t12 37.5t-13.5 32t-32.5 12q-22 0 -38.5 -12t-34.5 -29l-36 47q26 28 53 42.5t62 14.5q48 0 78.5 -26.5t30.5 -73.5q0 -29 -12 -53.5t-42 -59.5l-83 -95h138v-62h-223v55z" />
    <glyph glyph-name="three.den" 
d="M139 -7q-35 0 -62 12.5t-47 29.5l32 51q14 -11 32.5 -21.5t43.5 -10.5q24 0 39.5 14t15.5 40q0 51 -82 53h-16l-5 44l85 97h-128v62h210v-51l-92 -102q42 -7 69 -30.5t27 -71.5q0 -53 -34 -84.5t-88 -31.5z" />
    <glyph glyph-name="four.den" 
d="M239 -1h-61v73h-147l-3 59l131 236h80v-239h38v-56h-38v-73zM180 289h-4l-90 -161h94v161z" />
    <glyph glyph-name="five.den" 
d="M139 -7q-57 0 -108 42l32 52q17 -14 35 -23.5t39 -9.5q29 0 43 17.5t14 44.5q0 28 -15 41t-41 13q-15 0 -27.5 -3.5t-23.5 -8.5l-40 21l14 185h184v-62h-129l-7 -80q10 3 20.5 5t23.5 2q46 0 77.5 -27t31.5 -84q0 -58 -34 -91.5t-89 -33.5z" />
    <glyph glyph-name="six.den" 
d="M151 -7q-23 0 -42 7.5t-33 21.5q-20 20 -31 52t-11 89v9q0 102 37.5 150t96.5 48q26 0 47.5 -7.5t39.5 -19.5l-28 -54q-8 6 -24 13.5t-35 7.5q-29 0 -48.5 -23.5t-21.5 -76.5q25 27 68 27q19 0 37 -6.5t31.5 -20.5t22 -36t8.5 -53q0 -60 -33 -94t-81 -34zM151 52
q24 0 38 17.5t14 49.5q0 31 -14 46.5t-37 15.5q-22 0 -37 -15.5t-15 -46.5q0 -32 14 -49.5t37 -17.5z" />
    <glyph glyph-name="seven.den" 
d="M62 -1l125 301h-146v64h219v-50l-126 -315h-72z" />
    <glyph glyph-name="eight.den" 
d="M150 -7q-53 0 -86 29t-33 78q0 32 15.5 55t38.5 35q-20 12 -32.5 32t-12.5 49q0 45 31 72t79 27t79.5 -27t31.5 -72q0 -29 -13 -49t-33 -32q23 -12 38.5 -35t15.5 -55q0 -49 -33 -78t-86 -29zM150 318q-21 0 -34.5 -14t-13.5 -37t13.5 -37.5t34.5 -14.5q22 0 35 14.5
t13 37.5t-13 37t-35 14zM150 161q-23 0 -38.5 -15.5t-15.5 -42.5q0 -26 15 -41.5t39 -15.5q25 0 40 15.5t15 41.5q0 27 -16 42.5t-39 15.5z" />
    <glyph glyph-name="nine.den" 
d="M149 370q46 0 75 -29q20 -19 31 -51t11 -89v-9q0 -103 -37 -151t-97 -48q-26 0 -48.5 8t-41.5 22l25 55q12 -9 29.5 -16.5t36.5 -7.5q29 0 47.5 23t20.5 72q-23 -26 -66 -26q-19 0 -37 6.5t-32 20.5t-22.5 36.5t-8.5 54.5q0 60 33 94.5t81 34.5zM149 179q21 0 36 15.5
t15 49.5q0 32 -14 49.5t-37 17.5q-24 0 -37.5 -17.5t-13.5 -50.5q0 -32 14 -48t37 -16z" />
    <glyph glyph-name="acute" unicode="&#xb4;" horiz-adv-x="500" 
d="M253 731l89 -45l-104 -104h-73z" />
    <glyph glyph-name="hungarumlaut" unicode="&#x2dd;" horiz-adv-x="500" 
d="M315 731l84 -44l-101 -105h-70zM187 731l84 -44l-101 -105h-70z" />
    <glyph glyph-name="caron.alt" horiz-adv-x="500" 
d="M200 733h76v-3l-42 -161h-44z" />
    <glyph glyph-name="grave" unicode="`" horiz-adv-x="500" 
d="M152 686l90 45l87 -149h-73z" />
    <glyph glyph-name="circumflex" unicode="&#x2c6;" horiz-adv-x="500" 
d="M207 721h86l89 -138h-76l-57 66l-57 -66h-74z" />
    <glyph glyph-name="caron" unicode="&#x2c7;" horiz-adv-x="500" 
d="M293 583h-86l-89 138h76l57 -66l57 66h74z" />
    <glyph glyph-name="breve" unicode="&#x2d8;" horiz-adv-x="500" 
d="M250 579q-54 0 -90.5 30.5t-41.5 92.5h69q5 -24 20 -38.5t43 -14.5t43 14.5t20 38.5h69q-5 -62 -41.5 -92.5t-90.5 -30.5z" />
    <glyph glyph-name="tilde" unicode="&#x2dc;" horiz-adv-x="500" 
d="M314 582q-18 0 -34.5 7t-33.5 15q-14 8 -25.5 13t-20.5 5q-14 0 -21.5 -10.5t-15.5 -34.5l-59 16q13 56 31 81.5t51 25.5q18 0 34.5 -7t33.5 -15q14 -8 25.5 -13t20.5 -5q14 0 21.5 10.5t15.5 33.5l59 -16q-12 -55 -30.5 -80.5t-51.5 -25.5z" />
    <glyph glyph-name="macron" unicode="&#xaf;" horiz-adv-x="500" 
d="M121 663h258v-73h-258v73z" />
    <glyph glyph-name="dieresis" unicode="&#xa8;" horiz-adv-x="500" 
d="M276 688h100v-102h-100v102zM124 688h100v-102h-100v102z" />
    <glyph glyph-name="dotaccent" unicode="&#x2d9;" horiz-adv-x="500" 
d="M199 689h102v-103h-102v103z" />
    <glyph glyph-name="ring" unicode="&#x2da;" horiz-adv-x="500" 
d="M250 579q-40 0 -67.5 27t-27.5 68q0 40 27.5 67.5t67.5 27.5t67.5 -27t27.5 -68t-27.5 -68t-67.5 -27zM250 620q22 0 36 15.5t14 38.5t-14 38.5t-36 15.5q-21 0 -35.5 -15.5t-14.5 -38.5t14.5 -38.5t35.5 -15.5z" />
    <glyph glyph-name="acute.cap" horiz-adv-x="500" 
d="M254 874l94 -44l-106 -86h-79z" />
    <glyph glyph-name="hungarumlaut.cap" horiz-adv-x="500" 
d="M184 874l87 -44l-103 -86h-75zM317 874l87 -44l-103 -86h-76z" />
    <glyph glyph-name="grave.cap" horiz-adv-x="500" 
d="M252 744l-105 86l94 44l91 -130h-80z" />
    <glyph glyph-name="circumflex.cap" horiz-adv-x="500" 
d="M204 866h92l91 -121h-82l-56 53l-56 -53h-80z" />
    <glyph glyph-name="caron.cap" horiz-adv-x="500" 
d="M296 745h-92l-91 121h82l56 -53l56 53h80z" />
    <glyph glyph-name="breve.cap" horiz-adv-x="500" 
d="M250 742q-55 0 -92 28t-40 85h70q10 -43 62 -43t62 43h71q-5 -57 -41.5 -85t-91.5 -28z" />
    <glyph glyph-name="tilde.cap" horiz-adv-x="500" 
d="M316 744q-19 0 -36.5 6.5t-34.5 14.5q-14 7 -26 11.5t-21 4.5q-14 0 -21.5 -9.5t-15.5 -31.5l-61 17q12 53 31.5 79t52.5 26q19 0 37 -6.5t35 -14.5q14 -7 25.5 -11.5t20.5 -4.5q14 0 21.5 9.5t15.5 31.5l61 -16q-12 -54 -31.5 -80t-52.5 -26z" />
    <glyph glyph-name="macron.cap" horiz-adv-x="500" 
d="M112 828h276v-76h-276v76z" />
    <glyph glyph-name="dieresis.cap" horiz-adv-x="500" 
d="M279 848h103v-101h-103v101zM118 848h103v-101h-103v101z" />
    <glyph glyph-name="dotaccent.cap" horiz-adv-x="500" 
d="M198 848h104v-101h-104v101z" />
    <glyph glyph-name="ring.cap" horiz-adv-x="500" 
d="M250 741q-40 0 -68.5 25.5t-28.5 64.5t28.5 64.5t68.5 25.5q41 0 69 -25.5t28 -64.5t-28.5 -64.5t-68.5 -25.5zM250 783q22 0 36 14t14 34t-14 34t-36 14t-36 -14t-14 -34t14 -34t36 -14z" />
    <glyph glyph-name="commaaccent" unicode="&#x326;" horiz-adv-x="500" 
d="M193 -197q31 5 43.5 18t10.5 39h-45v88h100v-78q0 -51 -25.5 -74.5t-76.5 -28.5z" />
    <glyph glyph-name="cedilla" unicode="&#xb8;" horiz-adv-x="500" 
d="M151 -100l77 117h72l-57 -153z" />
    <glyph glyph-name="ogonek" unicode="&#x2db;" horiz-adv-x="500" 
d="M320 -147q-20 -3 -34 -3q-50 0 -75.5 19.5t-25.5 51.5q0 25 12.5 45.5t34.5 42.5l70 -1q-34 -40 -34 -65q0 -34 52 -32v-58z" />
    <glyph glyph-name="B" unicode="B" horiz-adv-x="509" 
d="M60 700h178q55 0 100 -14.5t74 -44.5q47 -45 47 -118v-4q0 -34 -9 -59.5t-24 -44.5t-34 -32.5t-39 -22.5q27 -9 50 -23t40 -33.5t26.5 -46t9.5 -61.5v-5q0 -46 -17 -81.5t-48.5 -60t-75.5 -37t-98 -12.5h-180v700zM352 504q0 48 -29.5 73t-82.5 25h-74v-202h68
q55 0 86.5 26.5t31.5 76.5v1zM372 202q0 49 -33.5 77t-93.5 28h-79v-209h81q57 0 91 26.5t34 76.5v1z" />
    </font>
</defs>
</svg>
